<svg width="64" height="64" viewBox="0 0 64 64" fill="none" xmlns="http://www.w3.org/2000/svg">
<rect width="64" height="64" rx="14" fill="#0A754E"/>
<rect width="64" height="64" rx="14" fill="url(#paint0_radial_236_1380)"/>
<path d="M48 25.1231C48 26.6739 47.8879 28.1975 47.6717 29.6851C47.2222 32.7741 46.3237 35.7086 45.0474 38.4149C43.313 42.0955 40.88 45.3532 37.9288 48H28.3176L27.3821 44.6791L25.6178 38.4149L23.1587 29.6851H17.6999L17.4086 28.6518L15 20.1005H29.8613L30.7832 23.3744L32.5611 29.6851L35.0202 38.4149L35.0528 38.5303C35.0828 38.4922 35.1123 38.4535 35.1409 38.4149C37.0554 35.9028 38.4389 32.9318 39.1156 29.6851C39.4219 28.2152 39.5831 26.6885 39.5831 25.1231C39.5831 23.4015 39.3879 21.7281 39.0195 20.1245L39.081 20.1005L46.9394 17C47.2102 18.013 47.4319 19.0473 47.6011 20.1005C47.8634 21.7338 48 23.412 48 25.1231Z" fill="#F29F05"/>
<defs>
<radialGradient id="paint0_radial_236_1380" cx="0" cy="0" r="1" gradientUnits="userSpaceOnUse" gradientTransform="translate(66.2857 -2.74287) rotate(135) scale(82.1052 73.6577)">
<stop stop-color="#02BF7A"/>
<stop offset="1" stop-color="#0A754E" stop-opacity="0"/>
</radialGradient>
</defs>
</svg>
