<svg xmlns:xlink="http://www.w3.org/1999/xlink" xmlns="http://www.w3.org/2000/svg" width="336" height="5" viewBox="0 0 336 5" fill="none">
<path d="M10.5 2.85705C7 -0.000225067 3.5 -0.000225067 0 2.85705V0H336V2.85705C332.5 5.71432 329 5.71432 325.5 2.85705C322 -0.000225067 318.5 -0.000225067 315 2.85705C311.5 5.71432 308 5.71432 304.5 2.85705C301 -0.000225067 297.5 -0.000225067 294 2.85705C290.5 5.71432 287 5.71432 283.5 2.85705C280 -0.000225067 276.5 -0.000225067 273 2.85705C269.5 5.71432 266 5.71432 262.5 2.85705C259 -0.000225067 255.5 -0.000225067 252 2.85705C248.5 5.71432 245 5.71432 241.5 2.85705C238 -0.000225067 234.5 -0.000225067 231 2.85705C227.5 5.71432 224 5.71432 220.5 2.85705C217 -0.000225067 213.5 -0.000225067 210 2.85705C206.5 5.71432 203 5.71432 199.5 2.85705C196 -0.000225067 192.5 -0.000225067 189 2.85705C185.5 5.71432 182 5.71432 178.5 2.85705C175 -0.000225067 171.5 -0.000225067 168 2.85705C164.5 5.71432 161 5.71432 157.5 2.85705C154 -0.000225067 150.5 -0.000225067 147 2.85705C143.5 5.71432 140 5.71432 136.5 2.85705C133 -0.000225067 129.5 -0.000225067 126 2.85705C122.5 5.71432 119 5.71432 115.5 2.85705C112 -0.000225067 108.5 -0.000225067 105 2.85705C101.5 5.71432 98 5.71432 94.5 2.85705C91 -0.000225067 87.5 -0.000225067 84 2.85705C80.5 5.71432 77 5.71432 73.5 2.85705C70 -0.000225067 66.5 -0.000225067 63 2.85705C59.5 5.71432 56 5.71432 52.5 2.85705C49 -0.000225067 45.5 -0.000225067 42 2.85705C38.5 5.71432 35 5.71432 31.5 2.85705C28 -0.000225067 24.5 -0.000225067 21 2.85705C17.5 5.71432 14 5.71432 10.5 2.85705Z" fill="white"/>
</svg>