<svg width="129" height="126" viewBox="0 0 129 126" fill="none" xmlns="http://www.w3.org/2000/svg">
<path d="M91.5991 36.053L84.1661 29.903L60.9861 57.802L68.4191 63.951L91.5991 36.053Z" fill="#043121"/>
<path d="M88.2109 16.041L84.0139 30.105L87.7279 33.17L91.4349 36.236L104.502 29.524L88.2109 16.041Z" fill="#0A754E"/>
<path d="M106.476 28.1089C109.102 24.9489 107.38 19.1999 102.63 15.2709C97.88 11.3409 91.899 10.7179 89.273 13.8789C86.647 17.0399 88.369 22.7889 93.119 26.7179C97.869 30.6479 103.849 31.2699 106.476 28.1089Z" fill="#F5B237"/>
<path d="M91.611 36.0539C92.425 35.0739 91.422 32.9039 89.371 31.2079C87.32 29.5119 84.998 28.9309 84.183 29.9109C83.369 30.8909 84.372 33.0609 86.423 34.7569C88.474 36.4539 90.796 37.0339 91.611 36.0539Z" fill="#0A754E"/>
<path d="M89.375 22.2481C89.375 22.2481 92.727 16.7341 97.875 20.9981C97.875 20.9981 103.401 25.0951 98.215 29.5621C98.215 29.5621 92.214 27.9121 89.375 22.2481Z" fill="#FAF1E5"/>
<path d="M106.467 93.731C106.732 93.7313 106.995 93.6792 107.24 93.5779C107.486 93.4766 107.709 93.328 107.897 93.1405C108.084 92.953 108.234 92.7303 108.335 92.4852C108.437 92.2401 108.49 91.9774 108.49 91.712V86.5H104.451V91.712C104.451 92.827 105.357 93.731 106.474 93.731" fill="#043121"/>
<path d="M55.495 33.856H50.762V43.422H55.442C55.442 43.422 55.48 43.429 55.495 43.429C57.073 43.429 58.356 41.29 58.356 38.646C58.356 36.002 57.073 33.863 55.495 33.863V33.856Z" fill="#0A754E"/>
<path d="M50.7619 43.429C49.1839 43.429 47.8999 41.29 47.8999 38.646C47.8999 36.002 49.1839 33.863 50.7619 33.863C52.3389 33.863 53.6229 36.003 53.6229 38.646C53.6229 41.29 52.3389 43.429 50.7619 43.429Z" fill="#043121"/>
<path d="M61.6469 62.562C61.6469 62.516 59.1489 52.852 59.1179 52.724C57.7819 46.269 50.9349 42.608 45.9599 39.114L44.5939 41.011C48.9039 44.13 55.7359 47.617 56.8229 53.311L59.2009 62.577M24.0889 62.562C24.0889 62.516 21.5899 52.852 21.5589 52.724C20.2239 46.269 13.3759 42.608 8.40191 39.114L7.03491 41.011C11.3449 44.13 18.1779 47.617 19.2649 53.311L21.6429 62.577" fill="#043121"/>
<path d="M49.57 35.634C50.914 35.634 51.993 36.974 51.993 38.646C51.993 40.318 50.906 41.659 49.57 41.659H6.83398V35.634H49.57Z" fill="#0A754E"/>
<path d="M7.59288 33.856H2.85889V43.422H7.53889C7.53889 43.422 7.57788 43.429 7.59288 43.429C9.16988 43.429 10.4529 41.29 10.4529 38.646C10.4529 36.002 9.16988 33.863 7.59288 33.863V33.856Z" fill="#0A754E"/>
<path d="M2.861 43.429C1.283 43.429 0 41.289 0 38.646C0 36.002 1.283 33.863 2.861 33.863C4.439 33.863 5.722 36.003 5.722 38.646C5.722 41.29 4.438 43.429 2.861 43.429ZM56.422 85.618L63.594 94.431L55.908 112.727C54.542 116.682 57.486 120.81 61.684 120.81L65.624 117.45C63.911 117.45 62.763 115.688 63.458 114.128L66.628 107.01C68.2997 103.264 71.021 100.082 74.4628 97.8495C77.9047 95.6171 81.9196 94.4298 86.022 94.431L56.422 85.618ZM76.812 112.645H74.502V113.081C73.3178 113.542 72.3002 114.349 71.5824 115.397C70.8646 116.446 70.48 117.686 70.479 118.957C70.4799 120.228 70.8645 121.468 71.5823 122.516C72.3001 123.565 73.3178 124.372 74.502 124.832V125.269H76.812C80.308 125.269 83.146 122.444 83.146 118.949C83.1459 118.118 82.9818 117.295 82.6633 116.527C82.3448 115.76 81.878 115.062 81.2897 114.475C80.7013 113.888 80.003 113.423 79.2347 113.106C78.4664 112.79 77.6431 112.627 76.812 112.629V112.645Z" fill="#043121"/>
<path d="M80.8379 118.964C80.8379 115.477 78.0069 112.645 74.5039 112.645C73.6729 112.643 72.8496 112.805 72.0813 113.122C71.313 113.439 70.6146 113.904 70.0263 114.491C69.438 115.078 68.9712 115.775 68.6526 116.543C68.3341 117.31 68.1701 118.133 68.1699 118.964C68.1699 122.452 71.0009 125.284 74.5039 125.284C75.335 125.286 76.1583 125.124 76.9266 124.807C77.695 124.49 78.3933 124.025 78.9816 123.438C79.5699 122.851 80.0367 122.153 80.3552 121.386C80.6738 120.618 80.8378 119.795 80.8379 118.964Z" fill="#043121"/>
<path d="M76.8051 118.964C76.8048 118.663 76.7452 118.365 76.6298 118.087C76.5143 117.809 76.3451 117.556 76.132 117.343C75.9189 117.131 75.666 116.962 75.3877 116.847C75.1094 116.732 74.8112 116.674 74.5101 116.674C74.209 116.674 73.9108 116.732 73.6325 116.847C73.3542 116.962 73.1013 117.131 72.8882 117.343C72.675 117.556 72.5059 117.809 72.3904 118.087C72.2749 118.365 72.2154 118.663 72.2151 118.964C72.2152 119.265 72.2747 119.563 72.3902 119.841C72.5056 120.119 72.6747 120.372 72.8879 120.585C73.101 120.797 73.354 120.966 73.6324 121.081C73.9107 121.196 74.209 121.254 74.5101 121.254C74.8112 121.254 75.1095 121.196 75.3878 121.081C75.6662 120.966 75.9192 120.797 76.1323 120.585C76.3455 120.372 76.5146 120.119 76.63 119.841C76.7455 119.563 76.805 119.265 76.8051 118.964Z" fill="#5D5FEF"/>
<path d="M105.713 112.645H103.403V113.081C102.219 113.541 101.201 114.349 100.483 115.397C99.7647 116.446 99.38 117.686 99.3789 118.957C99.3799 120.228 99.7646 121.468 100.483 122.517C101.201 123.565 102.219 124.372 103.403 124.832V125.269H105.713C107.389 125.269 108.997 124.603 110.182 123.418C111.367 122.233 112.033 120.625 112.033 118.949C112.033 117.273 111.367 115.665 110.182 114.48C108.997 113.295 107.389 112.629 105.713 112.629V112.645Z" fill="#043121"/>
<path d="M109.736 118.964C109.736 115.477 106.905 112.645 103.402 112.645C102.565 112.635 101.735 112.79 100.959 113.103C100.183 113.416 99.477 113.88 98.8817 114.468C98.2864 115.055 97.8138 115.756 97.4912 116.528C97.1686 117.3 97.0024 118.128 97.0024 118.965C97.0024 119.801 97.1686 120.629 97.4912 121.401C97.8138 122.173 98.2864 122.874 98.8817 123.461C99.477 124.049 100.183 124.513 100.959 124.826C101.735 125.139 102.565 125.295 103.402 125.284C104.233 125.286 105.056 125.124 105.825 124.807C106.593 124.49 107.291 124.025 107.88 123.438C108.468 122.851 108.935 122.153 109.253 121.386C109.572 120.618 109.736 119.795 109.736 118.964Z" fill="#043121"/>
<path d="M51.9629 94.431C43.5759 94.431 35.9739 99.357 32.5699 107.01L29.3989 114.128C28.7039 115.688 29.8519 117.45 31.5649 117.45H102.558C103.487 117.45 104.242 118.204 104.242 119.13C104.242 120.056 103.487 120.81 102.558 120.81H27.6179C23.4199 120.81 20.4759 116.682 21.8419 112.727L29.5269 94.431L27.0279 83.735" fill="#0A754E"/>
<path d="M42.75 112.645H40.44V113.081C39.2556 113.541 38.2378 114.349 37.5198 115.397C36.8018 116.446 36.4171 117.686 36.416 118.957C36.417 120.228 36.8017 121.468 37.5197 122.517C38.2378 123.565 39.2556 124.372 40.44 124.832V125.269H42.75C46.245 125.269 49.084 122.444 49.084 118.949C49.0839 118.118 48.9199 117.295 48.6013 116.527C48.2828 115.76 47.816 115.062 47.2277 114.475C46.6394 113.888 45.9411 113.423 45.1727 113.106C44.4044 112.79 43.5811 112.627 42.75 112.629V112.645Z" fill="#0A754E"/>
<path d="M46.7749 118.964C46.7749 115.477 43.9449 112.645 40.4409 112.645C39.6099 112.643 38.7866 112.805 38.0183 113.122C37.25 113.439 36.5517 113.904 35.9633 114.491C35.375 115.078 34.9082 115.775 34.5896 116.543C34.2711 117.31 34.1071 118.133 34.1069 118.964C34.1069 122.452 36.9379 125.284 40.4409 125.284C41.2721 125.286 42.0954 125.124 42.8638 124.807C43.6322 124.49 44.3305 124.025 44.9189 123.438C45.5072 122.851 45.974 122.154 46.2925 121.386C46.611 120.618 46.7749 119.795 46.7749 118.964Z" fill="#043121"/>
<path d="M71.648 112.645H69.338V113.081C68.1536 113.541 67.1357 114.349 66.4177 115.397C65.6998 116.446 65.315 117.686 65.314 118.957C65.3152 120.228 65.7 121.468 66.418 122.516C67.136 123.565 68.1537 124.372 69.338 124.832V125.269H71.648C75.144 125.269 77.982 122.444 77.982 118.949C77.9818 118.118 77.8178 117.295 77.4993 116.527C77.1807 115.76 76.714 115.062 76.1256 114.475C75.5373 113.888 74.839 113.423 74.0707 113.106C73.3023 112.79 72.4791 112.627 71.648 112.629V112.645Z" fill="#0A754E"/>
<path d="M75.6749 118.964C75.6749 115.477 72.8439 112.645 69.3419 112.645C68.5109 112.643 67.6876 112.805 66.9193 113.122C66.151 113.439 65.4527 113.904 64.8643 114.491C64.276 115.078 63.8092 115.775 63.4907 116.543C63.1721 117.31 63.0081 118.133 63.0079 118.964C63.0079 122.452 65.8389 125.284 69.3419 125.284C72.8369 125.284 75.6749 122.459 75.6749 118.964ZM58.1729 51.1801H18.7729L63.6609 72.8061" fill="#043121"/>
<path d="M128.389 58.487L58.1741 51.173L69.1431 94.431H113.608C115.195 94.4332 116.737 93.9074 117.992 92.9363C119.246 91.9653 120.142 90.6044 120.538 89.068L128.389 58.487Z" fill="#043121"/>
<path d="M128.389 58.486H70.4261L67.7991 94.431H114.898C116.116 94.4324 117.299 94.0282 118.262 93.2821C119.224 92.536 119.911 91.4906 120.213 90.311L128.389 58.486Z" fill="#043121"/>
<path d="M88.999 58.487L18.783 51.173L28.81 91.304C29.429 93.737 31.686 94.845 34.328 94.604L75.517 94.43C76.7346 94.4312 77.9179 94.0269 78.8801 93.2808C79.8424 92.5347 80.5288 91.4895 80.831 90.31L89.007 58.486H89L88.999 58.487Z" fill="#0A754E"/>
<path d="M28.8 91.313C28.8 91.313 29.072 94.6121 34.319 94.6121C39.565 94.6121 52.731 94.5291 52.731 94.5291C52.731 94.5291 42.841 94.1071 36.463 101.143H26.709L29.525 94.4311L28.793 91.3051L28.8 91.313ZM59.092 40.148C71.939 32.748 78.019 19.257 72.672 10.016C67.325 0.776048 52.575 -0.715953 39.728 6.68405C26.881 14.084 20.802 27.575 26.148 36.816C31.496 46.057 46.245 47.549 59.092 40.149V40.148Z" fill="#043121"/>
<path d="M75.379 14.685C80.723 23.928 74.646 37.418 61.798 44.823C48.949 52.22 34.205 50.728 28.853 41.486L27.207 38.383L72.676 10.015L75.379 14.693V14.685Z" fill="#043121"/>
<path d="M42.442 41.8399C36.154 41.8399 31.164 39.4599 28.763 35.3099C24.256 27.5199 29.85 15.8529 41.234 9.29194C46.051 6.51994 51.426 4.99194 56.37 4.99194C62.659 4.99194 67.649 7.37194 70.05 11.5219C74.557 19.3099 68.963 30.9779 57.578 37.5389C52.762 40.3109 47.387 41.8399 42.442 41.8399Z" fill="#FAF1E5"/>
<path d="M66.3349 57.447L56.6799 42.594C56.6799 42.594 57.0039 37.7439 63.0439 38.5789L76.3379 58.488" fill="#0A754E"/>
<path d="M82.317 57.778C82.317 57.778 80.966 39.723 70.585 39.723C60.205 39.723 59.76 55.376 59.76 55.376" fill="#075337"/>
<path d="M70.578 39.724C70.578 39.724 80.143 38.352 82.694 60.648C85.246 82.944 90.176 87.81 90.176 87.81H128.382C128.382 87.81 120.108 79.984 117.723 56.679C117.723 56.679 117.051 42.126 110.687 39.723H70.57L70.578 39.724ZM31.707 38.639C31.707 38.639 39.581 35.596 44.02 22.037C48.451 8.47904 62.281 5.79004 62.281 5.79004C62.281 5.79004 68.525 6.98704 70.48 12.335C70.48 12.335 58.288 13.835 53.622 25.721C48.957 37.607 42.442 41.832 42.442 41.832C42.442 41.832 36.44 42.179 31.707 38.639Z" fill="#F5B237"/>
<path d="M109.736 46.608H86.7031V47.361H109.736V46.608ZM111.757 54.976H88.7251V55.73H111.757V54.976ZM112.273 63.344H89.2401V64.098H112.273V63.344ZM114.167 71.714H91.1351V72.467H114.167V71.714ZM117.23 80.082H94.1971V80.835H117.23V80.082Z" fill="#0A754E"/>
<path d="M48.6271 79.133L52.1671 79.253C52.3147 79.2583 52.4619 79.2335 52.5996 79.18C52.7374 79.1265 52.8627 79.0454 52.968 78.9418C53.0733 78.8382 53.1564 78.7142 53.2121 78.5773C53.2678 78.4405 53.295 78.2937 53.2921 78.146L53.1641 72.489C53.1577 72.2224 53.0533 71.9676 52.8709 71.7731C52.6884 71.5787 52.4407 71.4583 52.1751 71.435L48.1211 71.08C47.4411 71.02 46.8751 71.6 46.9431 72.278L47.5851 78.176C47.6451 78.711 48.0911 79.126 48.6271 79.14V79.133ZM45.2671 77.784L44.5951 71.638C44.5681 71.3886 44.4555 71.1562 44.2765 70.9804C44.0974 70.8046 43.863 70.6964 43.6131 70.674L39.5591 70.32C39.3923 70.3051 39.2242 70.329 39.0682 70.3899C38.9122 70.4508 38.7724 70.5471 38.6598 70.6711C38.5472 70.7951 38.4649 70.9435 38.4193 71.1047C38.3737 71.2659 38.3661 71.4354 38.3971 71.6L39.6121 77.988C39.7101 78.485 40.1331 78.854 40.6471 78.869L44.1571 78.982C44.3121 78.9871 44.4664 78.959 44.6096 78.8995C44.7528 78.84 44.8817 78.7506 44.9875 78.6372C45.0933 78.5238 45.1736 78.3891 45.223 78.2421C45.2725 78.0951 45.2899 77.9393 45.2741 77.785L45.2671 77.784ZM61.2771 78.508L61.6321 73.325C61.6701 72.738 61.2321 72.225 60.6431 72.173L56.6191 71.819C56.4671 71.8057 56.3141 71.8247 56.1699 71.8747C56.0258 71.9246 55.8939 72.0045 55.7827 72.109C55.6716 72.2135 55.5838 72.3403 55.5251 72.4811C55.4664 72.6219 55.4381 72.7735 55.4421 72.926L55.5701 78.342C55.5851 78.914 56.0461 79.382 56.6191 79.396L60.1601 79.516C60.7411 79.539 61.2401 79.088 61.2771 78.508ZM47.4321 68.745L51.8791 69.137C52.5201 69.197 53.0711 68.677 53.0561 68.03L52.9131 61.74C52.9048 61.4765 52.8018 61.2248 52.6228 61.0312C52.4439 60.8376 52.2011 60.715 51.9391 60.686L46.9341 60.166C46.7728 60.1491 46.6098 60.1685 46.457 60.2228C46.3043 60.2771 46.1656 60.3649 46.0511 60.4798C45.9367 60.5947 45.8495 60.7337 45.7958 60.8867C45.7422 61.0397 45.7235 61.2028 45.7411 61.364L46.4431 67.781C46.4961 68.294 46.9111 68.701 47.4241 68.745H47.4321ZM34.9611 69.913L31.0811 69.574C30.9091 69.5585 30.7359 69.5844 30.576 69.6495C30.416 69.7146 30.274 69.8169 30.1616 69.948C30.0493 70.0792 29.9699 70.2353 29.9302 70.4033C29.8904 70.5713 29.8914 70.7464 29.9331 70.914L31.6471 77.784C31.7671 78.251 32.1831 78.59 32.6671 78.605L36.1011 78.718C36.2637 78.7233 36.4255 78.6919 36.5744 78.6262C36.7233 78.5605 36.8555 78.4623 36.9613 78.3386C37.0671 78.2149 37.1438 78.0691 37.1856 77.9118C37.2275 77.7546 37.2334 77.5899 37.2031 77.43L35.9351 70.787C35.8905 70.555 35.7711 70.3439 35.5952 70.1861C35.4193 70.0282 35.1966 69.9323 34.9611 69.913ZM73.9841 71.081L78.4901 71.48C78.7471 71.5035 79.004 71.4344 79.2145 71.2851C79.425 71.1359 79.5752 70.9163 79.6381 70.666L81.1021 64.972C81.1411 64.8212 81.147 64.6637 81.1196 64.5104C81.0921 64.357 81.0319 64.2114 80.9431 64.0835C80.8542 63.9555 80.7388 63.8482 80.6047 63.7689C80.4706 63.6896 80.321 63.6402 80.1661 63.624L75.1691 63.104C74.8934 63.0746 74.617 63.1519 74.3966 63.32C74.1762 63.4882 74.0286 63.7344 73.9841 64.008L73.0171 69.823C72.9928 69.9703 72.9992 70.1211 73.0359 70.2658C73.0725 70.4106 73.1386 70.5462 73.23 70.6643C73.3214 70.7823 73.4361 70.8802 73.5671 70.952C73.6981 71.0237 73.8424 71.0676 73.9911 71.081H73.9841ZM44.1021 67.149L43.3921 60.656C43.3646 60.4102 43.2538 60.1811 43.078 60.007C42.9023 59.8329 42.6722 59.7242 42.4261 59.699L37.4431 59.179C37.2749 59.1611 37.1048 59.1829 36.9465 59.2426C36.7882 59.3023 36.6462 59.3983 36.5317 59.5229C36.4173 59.6474 36.3336 59.7971 36.2875 59.9599C36.2414 60.1226 36.234 60.2939 36.2661 60.46L37.5261 67.081C37.6171 67.556 38.0171 67.917 38.5001 67.955L42.9241 68.346C43.6041 68.406 44.1701 67.826 44.1021 67.149ZM61.3821 61.673L56.3921 61.153C56.2391 61.1372 56.0844 61.1539 55.9384 61.2022C55.7923 61.2505 55.6582 61.3292 55.5448 61.4332C55.4314 61.5371 55.3413 61.664 55.2805 61.8053C55.2197 61.9466 55.1896 62.0992 55.1921 62.253L55.3351 68.467C55.3501 69.017 55.7731 69.477 56.3241 69.521L60.7551 69.913C61.3591 69.966 61.8951 69.514 61.9331 68.911L62.3481 62.825C62.3656 62.5446 62.2742 62.2683 62.0929 62.0536C61.9117 61.839 61.6545 61.7026 61.3751 61.673H61.3821ZM44.7071 81.264L41.5671 81.159C41.4044 81.1536 41.2425 81.1849 41.0935 81.2505C40.9444 81.3161 40.8121 81.4143 40.7062 81.538C40.6002 81.6617 40.5235 81.8076 40.4816 81.9649C40.4397 82.1223 40.4337 82.287 40.4641 82.447L41.4611 87.675C41.5591 88.187 42.0121 88.555 42.5331 88.555L45.2361 88.541C45.3877 88.5408 45.5377 88.5086 45.6761 88.4466C45.8145 88.3847 45.9383 88.2942 46.0394 88.1812C46.1405 88.0682 46.2167 87.9351 46.263 87.7907C46.3093 87.6463 46.3247 87.4938 46.3081 87.343L45.7481 82.236C45.7192 81.9771 45.5981 81.7373 45.407 81.5603C45.2159 81.3833 44.9674 81.281 44.7071 81.272V81.264ZM52.3471 81.513L49.1921 81.408C49.0371 81.4029 48.8827 81.4311 48.7395 81.4906C48.5962 81.55 48.4673 81.6394 48.3614 81.7528C48.2556 81.8661 48.1751 82.0008 48.1256 82.1478C48.076 82.2948 48.0585 82.4507 48.0741 82.605L48.6181 87.546C48.6781 88.096 49.1461 88.518 49.7051 88.511L52.4301 88.495C53.0341 88.495 53.5251 87.991 53.5101 87.388L53.3961 82.568C53.3893 82.2914 53.2768 82.0278 53.0817 81.8316C52.8866 81.6354 52.6237 81.5214 52.3471 81.513ZM37.0201 81.008L33.8501 80.903C33.6825 80.8981 33.516 80.932 33.3636 81.0021C33.2113 81.0723 33.0773 81.1767 32.972 81.3072C32.8667 81.4378 32.7931 81.5909 32.7569 81.7546C32.7206 81.9183 32.7228 82.0882 32.7631 82.251L34.1371 87.765C34.2571 88.247 34.6961 88.585 35.1941 88.585L38.0171 88.571C38.6971 88.571 39.2101 87.953 39.0821 87.283L38.0551 81.89C38.0088 81.6473 37.8811 81.4276 37.6931 81.2673C37.5051 81.1069 37.2681 81.0155 37.0211 81.008H37.0201ZM77.5621 73.664L73.4481 73.303C73.1754 73.2795 72.9038 73.3593 72.6871 73.5265C72.4704 73.6937 72.3245 73.9362 72.2781 74.206L71.5381 78.673C71.5126 78.8252 71.52 78.9811 71.5598 79.1301C71.5996 79.2792 71.6709 79.418 71.7689 79.5372C71.8669 79.6564 71.9893 79.7533 72.1278 79.8212C72.2664 79.8891 72.4179 79.9266 72.5721 79.931L76.3471 80.059C76.8531 80.074 77.3061 79.735 77.4341 79.246L78.5211 75.02C78.56 74.8674 78.5652 74.7082 78.5363 74.5535C78.5075 74.3987 78.4453 74.2521 78.354 74.1238C78.2627 73.9955 78.1446 73.8886 78.0078 73.8106C77.8711 73.7326 77.719 73.6853 77.5621 73.672V73.664ZM70.8051 83.072L70.1251 87.162C70.0121 87.825 70.5251 88.428 71.2051 88.42L74.2471 88.405C74.7381 88.405 75.1681 88.066 75.2961 87.592L76.3151 83.622C76.355 83.4647 76.3591 83.3005 76.327 83.1414C76.2949 82.9824 76.2274 82.8326 76.1295 82.7031C76.0317 82.5737 75.906 82.4679 75.7617 82.3936C75.6174 82.3193 75.4583 82.2785 75.2961 82.274L71.9221 82.161C71.6592 82.1528 71.4022 82.2397 71.1983 82.4058C70.9944 82.5718 70.8572 82.8059 70.8121 83.065L70.8051 83.072ZM35.0671 66.267L33.7911 59.571C33.7479 59.3423 33.632 59.1337 33.4606 58.9762C33.2893 58.8187 33.0716 58.7208 32.8401 58.697L28.2651 58.223C28.0918 58.2054 27.9167 58.2295 27.7547 58.2935C27.5926 58.3574 27.4482 58.4593 27.3336 58.5905C27.219 58.7217 27.1376 58.8785 27.0961 59.0477C27.0546 59.217 27.0542 59.3936 27.0951 59.563L28.7931 66.373C28.9071 66.825 29.2921 67.149 29.7531 67.193L33.9041 67.563C34.071 67.5781 34.2391 67.5543 34.3953 67.4935C34.5515 67.4326 34.6914 67.3364 34.8041 67.2124C34.9168 67.0883 34.9992 66.9399 35.0448 66.7786C35.0905 66.6174 35.0981 66.4477 35.0671 66.283V66.267ZM67.4381 82.018L64.3581 81.912C64.0772 81.9025 63.8035 82.0026 63.5949 82.191C63.3864 82.3795 63.2591 82.6416 63.2401 82.922L62.9381 87.298C62.9285 87.4467 62.9495 87.5957 62.9998 87.736C63.0501 87.8762 63.1286 88.0046 63.2305 88.1133C63.3323 88.222 63.4554 88.3087 63.5921 88.368C63.7287 88.4273 63.8761 88.4579 64.0251 88.458L66.6981 88.443C67.2261 88.443 67.6791 88.059 67.7621 87.539L68.4721 83.276C68.4974 83.1238 68.4899 82.968 68.45 82.819C68.4101 82.67 68.3388 82.5313 68.2409 82.4121C68.1429 82.293 68.0206 82.1961 67.8821 82.1282C67.7437 82.0602 67.5923 82.0226 67.4381 82.018ZM70.7371 62.644L65.8001 62.132C65.6555 62.1167 65.5093 62.1308 65.3702 62.1733C65.2311 62.2158 65.102 62.286 64.9907 62.3795C64.8793 62.473 64.788 62.5881 64.722 62.7177C64.6561 62.8473 64.617 62.9889 64.6071 63.134L64.1921 69.152C64.1541 69.74 64.5921 70.252 65.1811 70.305L69.5591 70.689C69.8319 70.7125 70.1037 70.6326 70.3204 70.4651C70.5371 70.2977 70.6829 70.055 70.7291 69.785L71.7111 63.902C71.7351 63.7559 71.7289 63.6064 71.6931 63.4627C71.6573 63.319 71.5925 63.1841 71.5027 63.0664C71.4129 62.9486 71.3 62.8504 71.171 62.7777C71.0419 62.7051 70.8994 62.6596 70.7521 62.644H70.7371ZM59.9271 81.769L56.7871 81.664C56.6394 81.6587 56.4923 81.6835 56.3545 81.737C56.2168 81.7905 56.0915 81.8716 55.9862 81.9752C55.8809 82.0788 55.7978 82.2029 55.7421 82.3397C55.6864 82.4765 55.6591 82.6233 55.6621 82.771L55.7681 87.426C55.7756 87.7096 55.8933 87.9791 56.0963 88.1774C56.2992 88.3757 56.5714 88.4871 56.8551 88.488L59.5731 88.473C60.1391 88.473 60.6141 88.029 60.6521 87.463L60.9621 82.922C60.972 82.7763 60.9524 82.6301 60.9045 82.4921C60.8566 82.3542 60.7815 82.2273 60.6835 82.119C60.5855 82.0107 60.4667 81.9233 60.3341 81.862C60.2016 81.8006 60.0581 81.7666 59.9121 81.762L59.9271 81.769ZM63.8821 73.566L63.5421 78.5C63.4971 79.11 63.9721 79.638 64.5911 79.66L68.1021 79.773C68.3648 79.7812 68.6217 79.6943 68.8255 79.5282C69.0292 79.3621 69.1662 79.128 69.2111 78.869L69.9971 74.161C70.0212 74.0138 70.0147 73.8631 69.978 73.7185C69.9413 73.5739 69.8752 73.4384 69.7838 73.3204C69.6924 73.2025 69.5777 73.1046 69.4468 73.033C69.3159 72.9613 69.1717 72.9174 69.0231 72.904L65.0751 72.557C64.4711 72.504 63.9351 72.957 63.8971 73.559L63.8821 73.566Z" fill="#043121"/>
<path d="M110.691 5.324L105.514 12.012L106.111 12.472L111.289 5.784L110.691 5.324ZM96.638 0L96.105 8.238L96.859 8.287L97.391 0.0479999L96.638 0ZM118.779 19.444L110.611 20.765L110.732 21.509L118.899 20.188L118.779 19.444Z" fill="#0A754E"/>
</svg>
