<svg width="91" height="122" viewBox="0 0 91 122" fill="none" xmlns="http://www.w3.org/2000/svg">
<path fill-rule="evenodd" clip-rule="evenodd" d="M0.0580262 46.1504C-0.134424 42.4551 0.150691 38.7208 0.930487 35.0356C3.3344 23.6752 10.2442 13.7046 20.1515 7.30027C30.0588 0.89599 42.159 -1.42182 53.8105 0.852817C64.0074 2.84347 73.136 8.20998 79.6955 15.9746C107.861 45.6244 76.4479 86.6288 54.9139 114.738L54.8696 114.796L51.7945 118.429C48.8881 121.862 41.8004 122.001 38.7909 118.658C37.5176 117.244 36.217 115.75 35.0456 114.296C33.3861 112.093 31.7139 109.9 30.0475 107.714C14.4331 87.2373 -0.662804 67.4404 0.0580262 46.1504Z" fill="#0A754E"/>
<circle cx="45" cy="47" r="23" fill="white"/>
<path fill-rule="evenodd" clip-rule="evenodd" d="M17.4392 65.8392C22.2663 73.4581 29.8217 78.7992 38.456 80.6967L39.2891 80.8684C47.9674 82.5392 56.9346 80.6034 64.233 75.4838C71.5316 70.3641 76.5686 62.4764 78.2447 53.5424C79.9208 44.6084 78.0996 35.3538 73.179 27.7988C68.2583 20.2438 60.6378 15.0021 51.9808 13.2178C43.3238 11.4335 34.3335 13.2517 26.9724 18.2753C19.6114 23.2989 14.4775 31.1201 12.6914 40.0314C10.9053 48.9427 12.6121 58.2204 17.4392 65.8392ZM26.4681 58.9983C29.6604 63.9938 34.657 67.4958 40.3671 68.74L40.918 68.8526C46.6572 69.948 52.5874 68.6788 57.414 65.322C62.2407 61.9651 65.5718 56.7933 66.6803 50.9355C67.7887 45.0777 66.5844 39.0097 63.3302 34.0561C60.076 29.1025 55.0363 25.6656 49.3113 24.4957C43.5862 23.3259 37.6407 24.518 32.7726 27.8118C27.9046 31.1057 24.5094 36.2339 23.3283 42.0768C22.1471 47.9197 23.2758 54.0029 26.4681 58.9983Z" fill="#F5B237"/>
</svg>
