<svg width="461" height="269" viewBox="0 0 461 269" fill="none" xmlns="http://www.w3.org/2000/svg">
<mask id="path-1-outside-1_444_7832" maskUnits="userSpaceOnUse" x="-1.00977" y="0" width="462" height="269" fill="black">
<rect fill="white" x="-1.00977" width="462" height="269"/>
<path d="M285.582 138.207C285.003 136.387 286.717 135.915 286.843 134.892C286.97 133.87 285.751 131.792 286.525 131.383C288.056 130.573 288.582 129.177 289.631 128.147C290.811 126.991 290.851 125.81 290.591 124.53C290.427 123.722 290.427 123.121 290.811 122.379C291.471 121.104 290.803 119.562 289.386 119.277C288.506 119.1 288.089 118.62 287.624 118.007C286.487 116.512 282.805 116.265 281.47 117.623C280.495 118.618 279.512 119.632 278.711 120.766C277.866 121.96 277.149 122.914 275.4 122.374C274.46 122.084 273.418 122.51 272.473 122.99C271.69 123.386 270.831 123.618 269.979 122.957C268.599 121.884 266.964 121.336 265.298 120.895C264.207 120.607 263.426 120.089 263.598 118.792C263.699 118.04 263.327 117.575 262.673 117.308C261.942 117.007 261.225 116.573 260.924 115.896C259.387 112.443 256.056 112.988 253.393 112.887C250.155 112.766 249.713 112.915 248.705 109.661C248.144 107.851 247.163 106.301 245.46 105.536C243.276 104.557 240.42 105.476 238.649 103.206C235.517 103.88 237.117 101.603 237.319 100.735C237.59 99.5738 237.787 98.3924 238.083 97.2362C238.634 95.0703 238.123 93.7678 236.048 93.3361C234.699 93.0559 234.956 92.6166 235.275 91.7053C235.677 90.5542 236.319 89.3223 234.494 88.5448C233.574 88.151 233.407 85.6671 234.196 85.2278C235.56 84.4629 235.955 83.3169 235.492 82.0219C234.982 80.588 233.642 81.3857 232.646 81.3403C231.835 81.3049 231.032 81.5852 231.08 80.1715C231.125 78.7856 229.786 78.1798 228.737 78.0662C226.677 77.844 224.628 77.9021 223.091 76.1552C222.836 75.8649 222.169 75.5974 221.883 75.7311C219.927 76.6424 217.627 75.5671 215.754 76.852C215.348 77.1322 214.794 77.6017 214.45 77.5007C212.416 76.8999 211.746 78.6973 211.478 79.7197C211.104 81.1484 210.397 81.1232 209.416 81.0399C207.897 80.9086 206.651 81.2646 205.853 82.6782C205.56 83.2008 205.054 83.4709 204.506 83.688C203.861 83.9429 203.439 84.3796 203.553 85.1445C203.379 85.5055 203.053 85.5888 202.694 85.6166L198.22 83.481C197.796 83.4911 197.781 82.7994 197.733 82.3475C197.533 80.4871 196.125 79.5227 194.695 78.8285C193.702 78.3464 193.295 77.8945 193.487 76.852C193.649 75.9861 193.537 75.1404 192.724 74.6532C192.016 74.2291 192.074 73.8 192.243 73.0806C192.554 71.7502 192.243 70.1195 190.831 70.016C188.978 69.8822 188.306 68.312 188.218 67.5017C187.947 64.9723 186.646 64.4725 184.5 64.5734C183.391 64.6264 183.287 63.7631 183.684 63.0159C184.637 61.2236 184.379 60.4991 182.44 60.0094C181.968 59.8907 181.323 60.1836 181.038 59.6383C179.693 57.0735 176.966 57.6668 174.841 56.8993C174.586 56.8085 174.146 56.8893 173.939 57.0634C172.445 58.3357 171.578 57.0054 170.906 56.1496C170.259 55.3267 169.471 54.6501 168.68 54.1579C167.818 53.6202 166.713 54.3245 165.74 54.6931C165.599 52.4666 164.98 51.7118 163.243 51.8077C162.447 51.8531 161.618 51.9794 160.931 52.5574C160.274 53.1077 159.109 53.186 158.95 52.4893C158.603 50.9772 157.709 50.7828 156.481 50.7323C156.106 50.7172 155.76 50.4193 155.679 50.0053C155.381 48.5008 154.332 47.8293 152.894 47.5819C154.373 45.7088 153.65 43.3208 151.461 42.5079C150.481 42.1444 149.654 43.4016 148.982 43.0128C148.373 42.6619 148.838 41.1523 147.615 40.9504C146.652 40.7914 146.278 40.0921 145.874 39.3499C145.308 38.3099 144.582 37.3582 143.933 36.3788C143.22 35.3059 142.068 34.2583 140.655 35.7451C140.445 35.9648 140.038 36.3586 139.925 36.0253C139.338 34.2886 137.17 34.7051 136.391 33.3672C135.13 31.2013 132.532 31.5168 130.713 30.3253C129.922 29.8078 128.342 29.7422 127.329 29.0884C126.368 28.4674 125.555 28.3311 124.508 28.7375C123.359 29.1843 122.924 28.6087 123.209 27.5056C123.374 26.872 123.316 26.2409 123.788 25.5972C124.989 23.9589 123.743 21.4067 121.683 20.9952C120.672 20.7933 119.504 18.7082 119.522 17.6656C119.55 15.843 120.379 14.0002 119.272 12.1827C118.375 10.7084 116.927 9.98395 115.711 10.5166C113.886 11.3168 112.054 13.1823 110.101 10.6681C109.901 10.4106 109.426 10.2187 109.049 10.4812C107.846 11.3168 106.851 10.7009 105.966 9.97385C105.228 9.36548 104.48 9.19634 103.537 9.13071C101.864 9.01207 99.8122 9.12062 98.637 8.20679C96.8073 6.78305 94.6819 6.31604 92.7385 5.33406C90.9694 4.44043 90.4993 4.68025 89.9711 6.57857C87.5399 5.64961 87.3074 5.72029 86.6428 7.61357C86.0286 9.36548 84.8434 9.66335 83.5343 8.24718C82.8039 7.45958 81.9396 6.94966 81.0197 6.5912C79.3643 5.94748 78.0577 6.76538 78.04 8.36583C78.0122 11.0795 78.3559 13.8387 77.9693 16.4943C77.6938 18.385 77.7999 20.5207 75.7276 22.0555C74.3427 23.0829 72.93 22.7169 71.6082 23.252C70.9461 23.5221 70.2258 23.6004 70.0034 24.3855C69.8063 25.0797 70.1348 25.6249 70.6782 26.044C72.0075 27.0689 71.1154 29.5503 71.1154 29.5503L70.6908 30.9185C70.6908 30.9185 69.3792 31.2442 68.7398 31.4764C68.1004 31.7087 67.4585 31.946 66.766 32.0495C65.8031 32.1959 64.9186 32.6679 64.1427 31.8425C63.4225 31.0776 62.2574 30.4364 63.2885 29C63.7232 28.3967 63.142 27.652 62.6138 27.1648C62.1841 26.7735 61.9592 26.3444 61.9036 25.8067C62.0527 25.0696 61.8404 23.8124 60.1674 21.8636L58.3983 20.0966C58.3983 20.0966 59.6619 19.5917 58.3983 18.8344C58.3983 18.8344 58.3983 17.7943 58.6864 17.1506C58.7622 16.979 58.6864 16.7821 58.5171 16.7038C58.2998 16.6028 57.9965 16.416 57.6402 16.0576C56.882 15.3003 53.8493 14.7954 53.0911 15.5527C53.0911 15.5527 52.5857 15.3003 52.8384 14.543C52.8384 14.543 51.8275 13.2808 50.5639 13.0283C49.8183 12.8794 49.601 12.9072 49.5479 12.9526C49.5176 12.6219 49.2649 11.3572 47.2785 12.0186C47.2785 12.0186 47.0257 11.0088 46.0148 11.2613C46.0148 11.2613 44.7512 9.99909 45.0039 9.49422C45.0039 9.49422 41.9713 5.70767 40.9604 5.45523C40.0329 5.22299 40.1693 5.62941 40.1971 5.69757C40.091 5.52844 38.6404 3.20097 37.4222 3.68817C37.4222 3.68817 36.1586 2.93086 36.1586 2.42599C36.1586 2.42599 35.1477 1.66868 34.1368 2.17355C34.1368 2.17355 33.1259 2.17355 32.6205 3.1833L31.6096 3.43573C31.6096 3.43573 30.5987 4.19305 30.5987 4.95036C30.5987 5.70767 31.4832 5.83389 32.2414 5.32901C32.9996 4.82414 33.505 4.06683 33.505 4.06683C33.505 4.06683 34.7686 4.06683 35.2741 3.81439C35.2741 3.81439 36.285 4.06683 36.285 5.58145C36.285 7.09607 37.8013 8.10582 37.8013 8.10582V10.3778L39.0649 10.6302L39.3177 11.1351L41.0867 11.3875C41.0867 11.3875 42.3503 11.8924 42.0976 12.6497C41.8449 13.407 43.3612 13.1546 43.3612 13.1546C43.3612 13.1546 42.6031 14.4167 44.8776 15.6789C44.8776 15.6789 44.1194 17.1935 46.6467 18.4557C46.6467 18.4557 48.0341 20.0385 48.8833 21.6566C49.3938 22.6235 49.7097 23.6004 49.4266 24.2618L48.4865 25.0772L47.8117 25.6628L47.4731 25.9556C45.2693 27.8388 42.4236 29.1818 41.8929 32.5089C41.8601 32.7159 41.6023 33.0138 41.4102 33.0466C40.0177 33.2889 39.353 34.4678 38.4483 35.3135C37.9732 35.7578 37.5638 35.8411 36.9294 35.7855C32.0013 35.364 31.142 36.2197 30.5052 40.0088C30.0755 42.566 27.7631 44.2245 25.2384 44.4012C23.7322 44.5047 22.0162 44.901 21.4627 46.7564C21.2833 47.3547 21.0078 47.7586 20.4468 48.0312C19.2261 48.6245 18.842 49.7428 19.125 50.9216C19.5496 52.6963 20.0095 54.5138 20.8157 56.1345C21.7988 58.106 21.7483 58.9845 19.8731 60.1003C19.1048 60.5572 18.1015 60.9308 18.0054 61.8825C17.73 64.5608 15.4302 65.6135 13.8254 67.1432C12.5719 68.3398 11.47 71.051 12.6477 72.3157C14.1969 73.9792 14.1539 76.3042 15.5515 77.998C16.2819 78.8841 15.5818 81.0626 14.7301 81.3832C12.2838 82.3071 11.7455 83.7662 12.956 86.2401C13.1279 86.5935 13.3654 86.9469 13.047 87.2776C12.7665 87.5704 12.4531 87.27 12.1953 87.1312C11.1591 86.5708 10.2468 86.7652 9.37744 87.4972C7.33795 89.2113 6.08192 91.3141 6.01621 94.0429C5.99599 94.8608 6.15773 95.8377 5.5335 96.4209C4.32296 97.5594 3.87563 99.1194 3.06186 100.467C1.40652 103.204 1.93724 106.14 2.85968 108.937C3.43337 110.676 4.86631 111.017 6.30684 109.957C6.96645 109.469 7.56288 109.368 7.91417 110.002C9.56951 112.993 13.6813 112.966 15.2507 116.04C15.4555 116.442 15.923 116.586 16.3981 116.631C17.3281 116.719 17.7401 117.161 17.965 118.171C18.4553 120.357 21.2277 121.978 23.4062 121.475C24.3513 121.258 25.3016 121.402 25.5316 122.205C26.0092 123.868 27.2198 124.757 28.4354 125.739C28.9964 126.188 29.3452 127.216 30.2524 126.484C31.0182 125.863 31.3114 125.024 30.9323 123.939C30.4597 122.573 30.1918 121.134 29.8557 119.723C29.6156 118.719 30.3232 118.317 31.0713 118.103C31.4832 117.984 32.1959 117.795 32.2793 118.57C32.5118 120.741 34.1065 121.023 35.8048 121.225C36.6059 121.321 37.359 121.329 37.7508 122.374C38.471 124.297 39.6588 125.817 42.0243 125.777C42.2518 125.774 42.6385 125.85 42.6915 125.989C43.4472 127.907 45.2339 128.564 46.7983 129.561C47.7182 130.151 48.4157 130.593 49.6313 130.462C50.7383 130.343 50.253 132.317 51.4383 132.557C51.686 132.608 51.9387 132.638 52.1914 132.671C52.7803 132.749 53.3085 132.966 53.7103 133.405L59.2348 136.372C59.4067 136.927 59.7984 137.182 60.367 137.197C62.2321 137.874 64.1756 138.219 66.1317 138.434C67.6733 138.603 68.6817 139.658 68.5806 140.878C68.3733 143.359 70.0489 144.677 71.2342 146.343C72.0909 147.544 74.4589 148.292 72.47 150.369C72.4422 150.397 72.4574 150.505 72.4902 150.548C73.1347 151.369 73.0184 152.729 74.1329 153.169C75.1691 153.575 77.7974 152.482 78.2599 151.614C78.7881 150.622 80.1149 150.452 80.4738 151.465C80.9843 152.906 82.7432 153.777 82.306 155.645C82.2176 156.029 82.5815 156.534 83.0212 156.695C87.1002 158.205 89.8877 162.302 94.6364 162.476C94.8639 162.484 95.1368 162.635 95.3011 162.804C98.0406 165.642 101.389 167.686 104.523 170.021C106.525 171.513 108.074 171.334 109.059 169.052C110.467 165.796 114.362 165.311 116.608 168.065C117.756 169.471 118.822 170.933 121.089 170.753C122.047 170.678 123 171.533 123.872 172.243C126.085 174.04 128.178 176.029 130.758 177.329C131.575 177.741 132.166 178.291 132.755 178.998C134.241 180.788 136.078 182.603 138.509 182.181C141.239 181.707 144.036 181.49 146.713 180.639C150.064 179.574 149.97 179.68 151.282 182.648C152.308 184.971 153.203 187.215 152.589 189.823C152.45 190.411 152.533 191.065 152.386 191.696C152.197 192.516 152.437 193.392 153.42 193.354C155.007 193.294 156.607 193.521 158.133 193.662C160.357 193.869 163.271 192.122 164.803 195.323C164.904 195.535 165.349 195.626 165.649 195.697C167.979 196.247 170.234 197.153 172.748 196.553C174.025 196.247 175.412 196.391 176.752 196.378C177.302 196.373 177.962 196.28 178.258 196.939C178.839 198.241 179.933 198.968 181.114 199.637C181.685 199.96 181.859 200.445 181.935 201.182C182.147 203.25 184.156 204.512 186.231 204.146C188.185 203.8 189.453 202.54 190.098 200.844C190.522 199.721 192.107 198.908 191.099 197.269C190.26 195.904 190.937 194.907 192.539 194.965C195.403 195.068 198.263 195.217 201.124 195.371C201.496 195.391 201.898 195.48 202.219 195.654C206.239 197.853 210.43 199.733 214.294 202.22C214.809 202.55 215.264 203.212 215.969 202.823C216.707 202.417 216.556 201.624 216.551 200.932C216.54 199.827 216.174 198.607 217.521 197.941L220.791 197.199C220.791 197.199 222.922 197.118 223.993 197.439C225.692 197.946 227.036 197.3 227.698 195.699C228.188 194.513 229.515 194.129 229.968 192.965C230.064 192.718 230.503 192.673 230.584 192.93C231.209 194.924 234.044 194.525 234.572 196.671C234.709 197.227 235.538 197.439 236.058 197.126C237.84 196.05 238.108 197.681 238.123 198.532C238.148 199.963 238.932 200.379 239.996 200.703L257.239 203.78C257.654 203.843 257.932 204.068 258.144 204.406C261.139 209.174 262.016 214.059 259.001 219.181C258.055 220.786 258.525 222.107 260.277 222.803C261.399 223.248 262.476 223.886 263.585 224.222C265.435 224.785 267.424 226.481 269.362 224.275C269.575 224.033 269.903 224.268 269.989 224.469C271.02 226.943 273.264 227.092 275.46 227.41C276.368 227.542 277.278 227.855 276.828 229.142C276.598 229.793 276.911 230.124 277.404 230.563C278.435 231.482 280.512 231.677 279.903 233.868C279.868 233.991 280.189 234.304 280.401 234.39C281.819 234.961 283.545 235.14 284.591 234.282C285.617 233.439 286.532 233.598 287.536 233.535C288.918 233.449 289.623 233.757 288.777 235.39C287.627 237.606 289.631 240.36 292.196 240.487C293.702 240.56 295.216 240.883 296.677 241.274C297.546 241.509 298.148 241.388 298.982 241.042C300.389 240.459 301.418 238.826 302.884 238.942C305.578 239.154 307.41 237.831 309.293 236.326C311.82 234.309 314.504 233.648 317.471 235.44C318.853 236.276 319.621 237.293 319.283 239.035C318.995 240.522 318.876 242.052 318.81 243.566C318.712 245.889 320.289 247.868 322.341 248.885C323.683 249.549 325.257 250.112 325.813 251.897C326.134 252.924 326.953 252.74 327.835 252.24C329.296 251.412 330.319 249.824 332.21 249.713C332.427 249.701 332.776 249.304 332.804 249.057C332.996 247.272 334.196 247.075 335.675 246.904C337.398 246.704 340.919 247.926 341.687 249.405C342.225 250.44 342.923 250.695 343.82 250.099C344.533 249.625 344.745 249.701 345.253 250.435C346.11 251.677 347.616 251.702 348.652 250.549C349.946 249.11 351.677 249.415 353.024 249.771C355.488 250.42 357.876 251.622 360.037 252.891C362.145 254.131 365.344 253.987 366.254 257.044C366.279 257.127 366.469 257.16 366.583 257.216C369.299 258.576 372.042 259.886 374.72 261.315C375.903 261.946 376.866 262.173 377.619 260.825C377.93 260.27 378.481 260.056 378.898 260.336C380.654 261.51 381.888 260.326 383.379 259.664C384.93 258.978 386.368 255.951 386.371 256.453C386.689 256.188 394.453 256.393 394.777 258.127C395.312 261.017 398.613 263.264 401.486 262.943C402.614 262.817 404.509 261.762 404.792 264.274C404.865 264.912 405.568 265.074 406.144 265.147C407.049 265.263 407.837 265.597 408.623 266.066C410.112 266.955 411.305 266.354 411.343 264.615C411.383 262.908 412.422 262.312 413.781 261.921C414.203 261.8 414.717 261.873 415.075 261.664C417.325 260.353 419.114 261.186 420.971 262.605C422.046 263.426 422.986 265.147 424.633 264.405C425.978 263.799 427.727 263.93 428.639 262.37C429.059 261.651 429.582 261.469 430.426 262.229C431.851 263.514 433.428 263.163 434.383 261.512C434.96 260.515 435.258 259.404 436.741 260.621C437.429 261.186 438.382 260.886 438.902 260.073C439.622 258.945 440.163 259.442 440.709 260.192C441.558 261.356 442.365 262.565 443.757 263.166C444.477 263.476 445.023 263.877 445.339 264.678C445.723 265.644 446.641 265.766 447.593 265.687C448.41 265.619 448.902 265.291 448.915 264.397C448.923 263.827 449.375 263.569 449.764 263.224C451.758 261.441 453.81 259.821 452.696 256.448C452.441 255.678 452.772 253.868 453.3 252.551C454.334 249.978 456.219 247.951 456.83 244.985C457.52 241.643 457.892 238.545 456.967 235.314C456.666 234.264 457.452 232.956 456.537 232.197C455.049 230.962 455.643 228.857 454.334 227.602C454.048 227.33 454.119 226.855 454.285 226.509C454.836 225.381 454.791 224.593 453.345 224.24C452.923 224.136 452.471 223.642 452.281 223.217C451.761 222.044 451.286 221.11 449.653 221.39C448.92 221.516 448.637 220.547 448.483 219.852C448.374 219.363 448.528 218.588 448.25 218.401C446.353 217.119 447.454 215.728 447.993 214.354C448.129 214.009 448.367 213.736 448.298 213.299C447.785 210.028 449.069 207.109 450.325 204.254C450.833 203.103 450.907 202.247 450.214 201.266C449.365 200.064 449.592 198.973 450.778 198.221C451.614 197.688 451.746 197.151 451.334 196.328C450.502 194.672 450.105 193.336 450.745 191.133C451.602 188.182 453.666 186.074 454.647 183.32C455.018 182.277 455.744 181.338 455.739 180.162C455.734 179.437 455.87 178.778 456.242 178.162C457.217 176.549 458.67 175.07 457.687 172.904C457.606 172.725 457.697 172.372 457.836 172.205C459.15 170.637 458.14 169.946 456.868 169.105C455.453 168.168 453.641 168.29 452.423 167.659C450.249 166.533 448.374 165.889 446.097 166.813C445.668 166.987 445.415 166.901 445.099 166.598C443.921 165.472 442.544 165.069 440.924 165.472C440.138 165.669 439.521 165.652 439.256 164.544C438.996 163.461 436.845 162.726 436.559 163.453C435.837 165.306 433.8 166.192 433.307 168.035C432.918 169.489 431.978 170.433 431.111 171.498C430.509 172.238 429.438 172.326 429.114 171.776C427.712 169.393 426.213 170.599 424.593 171.556C424.479 171.172 424.406 170.88 424.31 170.597C423.585 168.474 422.291 168.095 420.539 169.514C420.281 169.724 420.077 169.915 419.715 169.852C418.237 169.6 417.024 170.291 415.841 171.051C415.075 169.052 414.416 168.446 413.445 169.085C412.485 169.716 411.239 169.671 410.425 170.627C409.96 171.175 409.21 171.205 408.517 170.766C406.124 169.244 405.484 169.257 403.276 170.806C402.08 171.647 398.191 171.319 397.908 170.062C397.577 168.59 396.611 167.679 395.964 166.53C394.953 164.735 393.452 162.569 391.337 162.986C387.948 163.652 386.785 160.815 384.685 159.583C383.563 158.924 382.979 157.917 381.486 158.796C380.477 159.389 377.783 157.884 377.983 156.968C378.38 155.138 377.531 154.09 375.956 153.509C373.939 152.767 371.963 153.229 371.015 154.666C370.303 155.749 370.027 155.789 369.492 154.486C369.052 153.411 367.965 152.78 366.696 152.997C365.453 153.212 365.466 154.231 365.413 155.221C365.387 155.696 365.577 156.301 365.097 156.65L363.952 157.548L363.3 159.048L363.497 160.876L361.986 163.084C361.986 163.084 360.399 163.708 360.108 164.763C359.739 166.099 358.859 166.275 357.841 165.298C355.943 163.481 353.484 162.67 351.172 161.603C350.732 161.398 350.113 161.224 349.703 161.378C348.109 161.974 348.109 160.972 348.227 159.962C348.447 158.104 346.847 156.294 348.131 154.378C348.306 154.118 347.924 153.414 347.689 152.974C347.239 152.141 346.759 151.344 346.527 150.394C346.367 149.741 346.044 148.983 345.119 149.135C344.358 149.258 344.1 149.751 343.888 150.556C343.491 152.058 341.967 153.666 341.037 153.838C338.892 154.234 338.356 154.817 339.152 156.761C339.258 157.018 339.137 157.384 339.071 157.69C338.727 159.265 338.935 160.641 339.769 162.138C341.042 164.425 340.064 165.95 337.57 165.919C336.38 165.904 335.192 165.616 334.153 164.935C333.542 164.536 333.152 163.933 333.655 163.357C335.503 161.239 334.039 160.106 332.462 158.975C331.474 158.265 330.233 157.162 330.34 156.279C330.638 153.807 328.525 152.563 328.03 150.604C327.615 148.968 326.346 148.029 325.106 147.711C322.156 146.954 321.307 144.745 321.216 142.347C321.148 140.524 320.516 138.906 320.266 137.177C320.165 136.48 319.793 135.793 318.992 135.69C318.252 135.594 317.226 135.435 316.933 136.255C316.346 137.906 315.1 139.297 314.956 141.1C314.883 142.014 314.337 142.536 313.804 143.213C313.038 142.435 314.13 140.885 312.775 140.749C310.17 140.489 308.049 138.57 305.33 138.76C303.675 138.876 302.019 138.681 301.332 140.817C301.102 141.531 300.372 142.758 299.295 141.304C298.845 140.696 298.201 140.64 297.592 141.006C295.709 142.145 294.352 141.534 292.972 139.997C292.327 139.277 291.349 138.27 290.169 138.749C290.169 138.749 286.158 140.004 285.58 138.184L285.582 138.207Z"/>
</mask>
<path d="M285.582 138.207C285.003 136.387 286.717 135.915 286.843 134.892C286.97 133.87 285.751 131.792 286.525 131.383C288.056 130.573 288.582 129.177 289.631 128.147C290.811 126.991 290.851 125.81 290.591 124.53C290.427 123.722 290.427 123.121 290.811 122.379C291.471 121.104 290.803 119.562 289.386 119.277C288.506 119.1 288.089 118.62 287.624 118.007C286.487 116.512 282.805 116.265 281.47 117.623C280.495 118.618 279.512 119.632 278.711 120.766C277.866 121.96 277.149 122.914 275.4 122.374C274.46 122.084 273.418 122.51 272.473 122.99C271.69 123.386 270.831 123.618 269.979 122.957C268.599 121.884 266.964 121.336 265.298 120.895C264.207 120.607 263.426 120.089 263.598 118.792C263.699 118.04 263.327 117.575 262.673 117.308C261.942 117.007 261.225 116.573 260.924 115.896C259.387 112.443 256.056 112.988 253.393 112.887C250.155 112.766 249.713 112.915 248.705 109.661C248.144 107.851 247.163 106.301 245.46 105.536C243.276 104.557 240.42 105.476 238.649 103.206C235.517 103.88 237.117 101.603 237.319 100.735C237.59 99.5738 237.787 98.3924 238.083 97.2362C238.634 95.0703 238.123 93.7678 236.048 93.3361C234.699 93.0559 234.956 92.6166 235.275 91.7053C235.677 90.5542 236.319 89.3223 234.494 88.5448C233.574 88.151 233.407 85.6671 234.196 85.2278C235.56 84.4629 235.955 83.3169 235.492 82.0219C234.982 80.588 233.642 81.3857 232.646 81.3403C231.835 81.3049 231.032 81.5852 231.08 80.1715C231.125 78.7856 229.786 78.1798 228.737 78.0662C226.677 77.844 224.628 77.9021 223.091 76.1552C222.836 75.8649 222.169 75.5974 221.883 75.7311C219.927 76.6424 217.627 75.5671 215.754 76.852C215.348 77.1322 214.794 77.6017 214.45 77.5007C212.416 76.8999 211.746 78.6973 211.478 79.7197C211.104 81.1484 210.397 81.1232 209.416 81.0399C207.897 80.9086 206.651 81.2646 205.853 82.6782C205.56 83.2008 205.054 83.4709 204.506 83.688C203.861 83.9429 203.439 84.3796 203.553 85.1445C203.379 85.5055 203.053 85.5888 202.694 85.6166L198.22 83.481C197.796 83.4911 197.781 82.7994 197.733 82.3475C197.533 80.4871 196.125 79.5227 194.695 78.8285C193.702 78.3464 193.295 77.8945 193.487 76.852C193.649 75.9861 193.537 75.1404 192.724 74.6532C192.016 74.2291 192.074 73.8 192.243 73.0806C192.554 71.7502 192.243 70.1195 190.831 70.016C188.978 69.8822 188.306 68.312 188.218 67.5017C187.947 64.9723 186.646 64.4725 184.5 64.5734C183.391 64.6264 183.287 63.7631 183.684 63.0159C184.637 61.2236 184.379 60.4991 182.44 60.0094C181.968 59.8907 181.323 60.1836 181.038 59.6383C179.693 57.0735 176.966 57.6668 174.841 56.8993C174.586 56.8085 174.146 56.8893 173.939 57.0634C172.445 58.3357 171.578 57.0054 170.906 56.1496C170.259 55.3267 169.471 54.6501 168.68 54.1579C167.818 53.6202 166.713 54.3245 165.74 54.6931C165.599 52.4666 164.98 51.7118 163.243 51.8077C162.447 51.8531 161.618 51.9794 160.931 52.5574C160.274 53.1077 159.109 53.186 158.95 52.4893C158.603 50.9772 157.709 50.7828 156.481 50.7323C156.106 50.7172 155.76 50.4193 155.679 50.0053C155.381 48.5008 154.332 47.8293 152.894 47.5819C154.373 45.7088 153.65 43.3208 151.461 42.5079C150.481 42.1444 149.654 43.4016 148.982 43.0128C148.373 42.6619 148.838 41.1523 147.615 40.9504C146.652 40.7914 146.278 40.0921 145.874 39.3499C145.308 38.3099 144.582 37.3582 143.933 36.3788C143.22 35.3059 142.068 34.2583 140.655 35.7451C140.445 35.9648 140.038 36.3586 139.925 36.0253C139.338 34.2886 137.17 34.7051 136.391 33.3672C135.13 31.2013 132.532 31.5168 130.713 30.3253C129.922 29.8078 128.342 29.7422 127.329 29.0884C126.368 28.4674 125.555 28.3311 124.508 28.7375C123.359 29.1843 122.924 28.6087 123.209 27.5056C123.374 26.872 123.316 26.2409 123.788 25.5972C124.989 23.9589 123.743 21.4067 121.683 20.9952C120.672 20.7933 119.504 18.7082 119.522 17.6656C119.55 15.843 120.379 14.0002 119.272 12.1827C118.375 10.7084 116.927 9.98395 115.711 10.5166C113.886 11.3168 112.054 13.1823 110.101 10.6681C109.901 10.4106 109.426 10.2187 109.049 10.4812C107.846 11.3168 106.851 10.7009 105.966 9.97385C105.228 9.36548 104.48 9.19634 103.537 9.13071C101.864 9.01207 99.8122 9.12062 98.637 8.20679C96.8073 6.78305 94.6819 6.31604 92.7385 5.33406C90.9694 4.44043 90.4993 4.68025 89.9711 6.57857C87.5399 5.64961 87.3074 5.72029 86.6428 7.61357C86.0286 9.36548 84.8434 9.66335 83.5343 8.24718C82.8039 7.45958 81.9396 6.94966 81.0197 6.5912C79.3643 5.94748 78.0577 6.76538 78.04 8.36583C78.0122 11.0795 78.3559 13.8387 77.9693 16.4943C77.6938 18.385 77.7999 20.5207 75.7276 22.0555C74.3427 23.0829 72.93 22.7169 71.6082 23.252C70.9461 23.5221 70.2258 23.6004 70.0034 24.3855C69.8063 25.0797 70.1348 25.6249 70.6782 26.044C72.0075 27.0689 71.1154 29.5503 71.1154 29.5503L70.6908 30.9185C70.6908 30.9185 69.3792 31.2442 68.7398 31.4764C68.1004 31.7087 67.4585 31.946 66.766 32.0495C65.8031 32.1959 64.9186 32.6679 64.1427 31.8425C63.4225 31.0776 62.2574 30.4364 63.2885 29C63.7232 28.3967 63.142 27.652 62.6138 27.1648C62.1841 26.7735 61.9592 26.3444 61.9036 25.8067C62.0527 25.0696 61.8404 23.8124 60.1674 21.8636L58.3983 20.0966C58.3983 20.0966 59.6619 19.5917 58.3983 18.8344C58.3983 18.8344 58.3983 17.7943 58.6864 17.1506C58.7622 16.979 58.6864 16.7821 58.5171 16.7038C58.2998 16.6028 57.9965 16.416 57.6402 16.0576C56.882 15.3003 53.8493 14.7954 53.0911 15.5527C53.0911 15.5527 52.5857 15.3003 52.8384 14.543C52.8384 14.543 51.8275 13.2808 50.5639 13.0283C49.8183 12.8794 49.601 12.9072 49.5479 12.9526C49.5176 12.6219 49.2649 11.3572 47.2785 12.0186C47.2785 12.0186 47.0257 11.0088 46.0148 11.2613C46.0148 11.2613 44.7512 9.99909 45.0039 9.49422C45.0039 9.49422 41.9713 5.70767 40.9604 5.45523C40.0329 5.22299 40.1693 5.62941 40.1971 5.69757C40.091 5.52844 38.6404 3.20097 37.4222 3.68817C37.4222 3.68817 36.1586 2.93086 36.1586 2.42599C36.1586 2.42599 35.1477 1.66868 34.1368 2.17355C34.1368 2.17355 33.1259 2.17355 32.6205 3.1833L31.6096 3.43573C31.6096 3.43573 30.5987 4.19305 30.5987 4.95036C30.5987 5.70767 31.4832 5.83389 32.2414 5.32901C32.9996 4.82414 33.505 4.06683 33.505 4.06683C33.505 4.06683 34.7686 4.06683 35.2741 3.81439C35.2741 3.81439 36.285 4.06683 36.285 5.58145C36.285 7.09607 37.8013 8.10582 37.8013 8.10582V10.3778L39.0649 10.6302L39.3177 11.1351L41.0867 11.3875C41.0867 11.3875 42.3503 11.8924 42.0976 12.6497C41.8449 13.407 43.3612 13.1546 43.3612 13.1546C43.3612 13.1546 42.6031 14.4167 44.8776 15.6789C44.8776 15.6789 44.1194 17.1935 46.6467 18.4557C46.6467 18.4557 48.0341 20.0385 48.8833 21.6566C49.3938 22.6235 49.7097 23.6004 49.4266 24.2618L48.4865 25.0772L47.8117 25.6628L47.4731 25.9556C45.2693 27.8388 42.4236 29.1818 41.8929 32.5089C41.8601 32.7159 41.6023 33.0138 41.4102 33.0466C40.0177 33.2889 39.353 34.4678 38.4483 35.3135C37.9732 35.7578 37.5638 35.8411 36.9294 35.7855C32.0013 35.364 31.142 36.2197 30.5052 40.0088C30.0755 42.566 27.7631 44.2245 25.2384 44.4012C23.7322 44.5047 22.0162 44.901 21.4627 46.7564C21.2833 47.3547 21.0078 47.7586 20.4468 48.0312C19.2261 48.6245 18.842 49.7428 19.125 50.9216C19.5496 52.6963 20.0095 54.5138 20.8157 56.1345C21.7988 58.106 21.7483 58.9845 19.8731 60.1003C19.1048 60.5572 18.1015 60.9308 18.0054 61.8825C17.73 64.5608 15.4302 65.6135 13.8254 67.1432C12.5719 68.3398 11.47 71.051 12.6477 72.3157C14.1969 73.9792 14.1539 76.3042 15.5515 77.998C16.2819 78.8841 15.5818 81.0626 14.7301 81.3832C12.2838 82.3071 11.7455 83.7662 12.956 86.2401C13.1279 86.5935 13.3654 86.9469 13.047 87.2776C12.7665 87.5704 12.4531 87.27 12.1953 87.1312C11.1591 86.5708 10.2468 86.7652 9.37744 87.4972C7.33795 89.2113 6.08192 91.3141 6.01621 94.0429C5.99599 94.8608 6.15773 95.8377 5.5335 96.4209C4.32296 97.5594 3.87563 99.1194 3.06186 100.467C1.40652 103.204 1.93724 106.14 2.85968 108.937C3.43337 110.676 4.86631 111.017 6.30684 109.957C6.96645 109.469 7.56288 109.368 7.91417 110.002C9.56951 112.993 13.6813 112.966 15.2507 116.04C15.4555 116.442 15.923 116.586 16.3981 116.631C17.3281 116.719 17.7401 117.161 17.965 118.171C18.4553 120.357 21.2277 121.978 23.4062 121.475C24.3513 121.258 25.3016 121.402 25.5316 122.205C26.0092 123.868 27.2198 124.757 28.4354 125.739C28.9964 126.188 29.3452 127.216 30.2524 126.484C31.0182 125.863 31.3114 125.024 30.9323 123.939C30.4597 122.573 30.1918 121.134 29.8557 119.723C29.6156 118.719 30.3232 118.317 31.0713 118.103C31.4832 117.984 32.1959 117.795 32.2793 118.57C32.5118 120.741 34.1065 121.023 35.8048 121.225C36.6059 121.321 37.359 121.329 37.7508 122.374C38.471 124.297 39.6588 125.817 42.0243 125.777C42.2518 125.774 42.6385 125.85 42.6915 125.989C43.4472 127.907 45.2339 128.564 46.7983 129.561C47.7182 130.151 48.4157 130.593 49.6313 130.462C50.7383 130.343 50.253 132.317 51.4383 132.557C51.686 132.608 51.9387 132.638 52.1914 132.671C52.7803 132.749 53.3085 132.966 53.7103 133.405L59.2348 136.372C59.4067 136.927 59.7984 137.182 60.367 137.197C62.2321 137.874 64.1756 138.219 66.1317 138.434C67.6733 138.603 68.6817 139.658 68.5806 140.878C68.3733 143.359 70.0489 144.677 71.2342 146.343C72.0909 147.544 74.4589 148.292 72.47 150.369C72.4422 150.397 72.4574 150.505 72.4902 150.548C73.1347 151.369 73.0184 152.729 74.1329 153.169C75.1691 153.575 77.7974 152.482 78.2599 151.614C78.7881 150.622 80.1149 150.452 80.4738 151.465C80.9843 152.906 82.7432 153.777 82.306 155.645C82.2176 156.029 82.5815 156.534 83.0212 156.695C87.1002 158.205 89.8877 162.302 94.6364 162.476C94.8639 162.484 95.1368 162.635 95.3011 162.804C98.0406 165.642 101.389 167.686 104.523 170.021C106.525 171.513 108.074 171.334 109.059 169.052C110.467 165.796 114.362 165.311 116.608 168.065C117.756 169.471 118.822 170.933 121.089 170.753C122.047 170.678 123 171.533 123.872 172.243C126.085 174.04 128.178 176.029 130.758 177.329C131.575 177.741 132.166 178.291 132.755 178.998C134.241 180.788 136.078 182.603 138.509 182.181C141.239 181.707 144.036 181.49 146.713 180.639C150.064 179.574 149.97 179.68 151.282 182.648C152.308 184.971 153.203 187.215 152.589 189.823C152.45 190.411 152.533 191.065 152.386 191.696C152.197 192.516 152.437 193.392 153.42 193.354C155.007 193.294 156.607 193.521 158.133 193.662C160.357 193.869 163.271 192.122 164.803 195.323C164.904 195.535 165.349 195.626 165.649 195.697C167.979 196.247 170.234 197.153 172.748 196.553C174.025 196.247 175.412 196.391 176.752 196.378C177.302 196.373 177.962 196.28 178.258 196.939C178.839 198.241 179.933 198.968 181.114 199.637C181.685 199.96 181.859 200.445 181.935 201.182C182.147 203.25 184.156 204.512 186.231 204.146C188.185 203.8 189.453 202.54 190.098 200.844C190.522 199.721 192.107 198.908 191.099 197.269C190.26 195.904 190.937 194.907 192.539 194.965C195.403 195.068 198.263 195.217 201.124 195.371C201.496 195.391 201.898 195.48 202.219 195.654C206.239 197.853 210.43 199.733 214.294 202.22C214.809 202.55 215.264 203.212 215.969 202.823C216.707 202.417 216.556 201.624 216.551 200.932C216.54 199.827 216.174 198.607 217.521 197.941L220.791 197.199C220.791 197.199 222.922 197.118 223.993 197.439C225.692 197.946 227.036 197.3 227.698 195.699C228.188 194.513 229.515 194.129 229.968 192.965C230.064 192.718 230.503 192.673 230.584 192.93C231.209 194.924 234.044 194.525 234.572 196.671C234.709 197.227 235.538 197.439 236.058 197.126C237.84 196.05 238.108 197.681 238.123 198.532C238.148 199.963 238.932 200.379 239.996 200.703L257.239 203.78C257.654 203.843 257.932 204.068 258.144 204.406C261.139 209.174 262.016 214.059 259.001 219.181C258.055 220.786 258.525 222.107 260.277 222.803C261.399 223.248 262.476 223.886 263.585 224.222C265.435 224.785 267.424 226.481 269.362 224.275C269.575 224.033 269.903 224.268 269.989 224.469C271.02 226.943 273.264 227.092 275.46 227.41C276.368 227.542 277.278 227.855 276.828 229.142C276.598 229.793 276.911 230.124 277.404 230.563C278.435 231.482 280.512 231.677 279.903 233.868C279.868 233.991 280.189 234.304 280.401 234.39C281.819 234.961 283.545 235.14 284.591 234.282C285.617 233.439 286.532 233.598 287.536 233.535C288.918 233.449 289.623 233.757 288.777 235.39C287.627 237.606 289.631 240.36 292.196 240.487C293.702 240.56 295.216 240.883 296.677 241.274C297.546 241.509 298.148 241.388 298.982 241.042C300.389 240.459 301.418 238.826 302.884 238.942C305.578 239.154 307.41 237.831 309.293 236.326C311.82 234.309 314.504 233.648 317.471 235.44C318.853 236.276 319.621 237.293 319.283 239.035C318.995 240.522 318.876 242.052 318.81 243.566C318.712 245.889 320.289 247.868 322.341 248.885C323.683 249.549 325.257 250.112 325.813 251.897C326.134 252.924 326.953 252.74 327.835 252.24C329.296 251.412 330.319 249.824 332.21 249.713C332.427 249.701 332.776 249.304 332.804 249.057C332.996 247.272 334.196 247.075 335.675 246.904C337.398 246.704 340.919 247.926 341.687 249.405C342.225 250.44 342.923 250.695 343.82 250.099C344.533 249.625 344.745 249.701 345.253 250.435C346.11 251.677 347.616 251.702 348.652 250.549C349.946 249.11 351.677 249.415 353.024 249.771C355.488 250.42 357.876 251.622 360.037 252.891C362.145 254.131 365.344 253.987 366.254 257.044C366.279 257.127 366.469 257.16 366.583 257.216C369.299 258.576 372.042 259.886 374.72 261.315C375.903 261.946 376.866 262.173 377.619 260.825C377.93 260.27 378.481 260.056 378.898 260.336C380.654 261.51 381.888 260.326 383.379 259.664C384.93 258.978 386.368 255.951 386.371 256.453C386.689 256.188 394.453 256.393 394.777 258.127C395.312 261.017 398.613 263.264 401.486 262.943C402.614 262.817 404.509 261.762 404.792 264.274C404.865 264.912 405.568 265.074 406.144 265.147C407.049 265.263 407.837 265.597 408.623 266.066C410.112 266.955 411.305 266.354 411.343 264.615C411.383 262.908 412.422 262.312 413.781 261.921C414.203 261.8 414.717 261.873 415.075 261.664C417.325 260.353 419.114 261.186 420.971 262.605C422.046 263.426 422.986 265.147 424.633 264.405C425.978 263.799 427.727 263.93 428.639 262.37C429.059 261.651 429.582 261.469 430.426 262.229C431.851 263.514 433.428 263.163 434.383 261.512C434.96 260.515 435.258 259.404 436.741 260.621C437.429 261.186 438.382 260.886 438.902 260.073C439.622 258.945 440.163 259.442 440.709 260.192C441.558 261.356 442.365 262.565 443.757 263.166C444.477 263.476 445.023 263.877 445.339 264.678C445.723 265.644 446.641 265.766 447.593 265.687C448.41 265.619 448.902 265.291 448.915 264.397C448.923 263.827 449.375 263.569 449.764 263.224C451.758 261.441 453.81 259.821 452.696 256.448C452.441 255.678 452.772 253.868 453.3 252.551C454.334 249.978 456.219 247.951 456.83 244.985C457.52 241.643 457.892 238.545 456.967 235.314C456.666 234.264 457.452 232.956 456.537 232.197C455.049 230.962 455.643 228.857 454.334 227.602C454.048 227.33 454.119 226.855 454.285 226.509C454.836 225.381 454.791 224.593 453.345 224.24C452.923 224.136 452.471 223.642 452.281 223.217C451.761 222.044 451.286 221.11 449.653 221.39C448.92 221.516 448.637 220.547 448.483 219.852C448.374 219.363 448.528 218.588 448.25 218.401C446.353 217.119 447.454 215.728 447.993 214.354C448.129 214.009 448.367 213.736 448.298 213.299C447.785 210.028 449.069 207.109 450.325 204.254C450.833 203.103 450.907 202.247 450.214 201.266C449.365 200.064 449.592 198.973 450.778 198.221C451.614 197.688 451.746 197.151 451.334 196.328C450.502 194.672 450.105 193.336 450.745 191.133C451.602 188.182 453.666 186.074 454.647 183.32C455.018 182.277 455.744 181.338 455.739 180.162C455.734 179.437 455.87 178.778 456.242 178.162C457.217 176.549 458.67 175.07 457.687 172.904C457.606 172.725 457.697 172.372 457.836 172.205C459.15 170.637 458.14 169.946 456.868 169.105C455.453 168.168 453.641 168.29 452.423 167.659C450.249 166.533 448.374 165.889 446.097 166.813C445.668 166.987 445.415 166.901 445.099 166.598C443.921 165.472 442.544 165.069 440.924 165.472C440.138 165.669 439.521 165.652 439.256 164.544C438.996 163.461 436.845 162.726 436.559 163.453C435.837 165.306 433.8 166.192 433.307 168.035C432.918 169.489 431.978 170.433 431.111 171.498C430.509 172.238 429.438 172.326 429.114 171.776C427.712 169.393 426.213 170.599 424.593 171.556C424.479 171.172 424.406 170.88 424.31 170.597C423.585 168.474 422.291 168.095 420.539 169.514C420.281 169.724 420.077 169.915 419.715 169.852C418.237 169.6 417.024 170.291 415.841 171.051C415.075 169.052 414.416 168.446 413.445 169.085C412.485 169.716 411.239 169.671 410.425 170.627C409.96 171.175 409.21 171.205 408.517 170.766C406.124 169.244 405.484 169.257 403.276 170.806C402.08 171.647 398.191 171.319 397.908 170.062C397.577 168.59 396.611 167.679 395.964 166.53C394.953 164.735 393.452 162.569 391.337 162.986C387.948 163.652 386.785 160.815 384.685 159.583C383.563 158.924 382.979 157.917 381.486 158.796C380.477 159.389 377.783 157.884 377.983 156.968C378.38 155.138 377.531 154.09 375.956 153.509C373.939 152.767 371.963 153.229 371.015 154.666C370.303 155.749 370.027 155.789 369.492 154.486C369.052 153.411 367.965 152.78 366.696 152.997C365.453 153.212 365.466 154.231 365.413 155.221C365.387 155.696 365.577 156.301 365.097 156.65L363.952 157.548L363.3 159.048L363.497 160.876L361.986 163.084C361.986 163.084 360.399 163.708 360.108 164.763C359.739 166.099 358.859 166.275 357.841 165.298C355.943 163.481 353.484 162.67 351.172 161.603C350.732 161.398 350.113 161.224 349.703 161.378C348.109 161.974 348.109 160.972 348.227 159.962C348.447 158.104 346.847 156.294 348.131 154.378C348.306 154.118 347.924 153.414 347.689 152.974C347.239 152.141 346.759 151.344 346.527 150.394C346.367 149.741 346.044 148.983 345.119 149.135C344.358 149.258 344.1 149.751 343.888 150.556C343.491 152.058 341.967 153.666 341.037 153.838C338.892 154.234 338.356 154.817 339.152 156.761C339.258 157.018 339.137 157.384 339.071 157.69C338.727 159.265 338.935 160.641 339.769 162.138C341.042 164.425 340.064 165.95 337.57 165.919C336.38 165.904 335.192 165.616 334.153 164.935C333.542 164.536 333.152 163.933 333.655 163.357C335.503 161.239 334.039 160.106 332.462 158.975C331.474 158.265 330.233 157.162 330.34 156.279C330.638 153.807 328.525 152.563 328.03 150.604C327.615 148.968 326.346 148.029 325.106 147.711C322.156 146.954 321.307 144.745 321.216 142.347C321.148 140.524 320.516 138.906 320.266 137.177C320.165 136.48 319.793 135.793 318.992 135.69C318.252 135.594 317.226 135.435 316.933 136.255C316.346 137.906 315.1 139.297 314.956 141.1C314.883 142.014 314.337 142.536 313.804 143.213C313.038 142.435 314.13 140.885 312.775 140.749C310.17 140.489 308.049 138.57 305.33 138.76C303.675 138.876 302.019 138.681 301.332 140.817C301.102 141.531 300.372 142.758 299.295 141.304C298.845 140.696 298.201 140.64 297.592 141.006C295.709 142.145 294.352 141.534 292.972 139.997C292.327 139.277 291.349 138.27 290.169 138.749C290.169 138.749 286.158 140.004 285.58 138.184L285.582 138.207Z" fill="#075337"/>
<path d="M285.582 138.207C285.003 136.387 286.717 135.915 286.843 134.892C286.97 133.87 285.751 131.792 286.525 131.383C288.056 130.573 288.582 129.177 289.631 128.147C290.811 126.991 290.851 125.81 290.591 124.53C290.427 123.722 290.427 123.121 290.811 122.379C291.471 121.104 290.803 119.562 289.386 119.277C288.506 119.1 288.089 118.62 287.624 118.007C286.487 116.512 282.805 116.265 281.47 117.623C280.495 118.618 279.512 119.632 278.711 120.766C277.866 121.96 277.149 122.914 275.4 122.374C274.46 122.084 273.418 122.51 272.473 122.99C271.69 123.386 270.831 123.618 269.979 122.957C268.599 121.884 266.964 121.336 265.298 120.895C264.207 120.607 263.426 120.089 263.598 118.792C263.699 118.04 263.327 117.575 262.673 117.308C261.942 117.007 261.225 116.573 260.924 115.896C259.387 112.443 256.056 112.988 253.393 112.887C250.155 112.766 249.713 112.915 248.705 109.661C248.144 107.851 247.163 106.301 245.46 105.536C243.276 104.557 240.42 105.476 238.649 103.206C235.517 103.88 237.117 101.603 237.319 100.735C237.59 99.5738 237.787 98.3924 238.083 97.2362C238.634 95.0703 238.123 93.7678 236.048 93.3361C234.699 93.0559 234.956 92.6166 235.275 91.7053C235.677 90.5542 236.319 89.3223 234.494 88.5448C233.574 88.151 233.407 85.6671 234.196 85.2278C235.56 84.4629 235.955 83.3169 235.492 82.0219C234.982 80.588 233.642 81.3857 232.646 81.3403C231.835 81.3049 231.032 81.5852 231.08 80.1715C231.125 78.7856 229.786 78.1798 228.737 78.0662C226.677 77.844 224.628 77.9021 223.091 76.1552C222.836 75.8649 222.169 75.5974 221.883 75.7311C219.927 76.6424 217.627 75.5671 215.754 76.852C215.348 77.1322 214.794 77.6017 214.45 77.5007C212.416 76.8999 211.746 78.6973 211.478 79.7197C211.104 81.1484 210.397 81.1232 209.416 81.0399C207.897 80.9086 206.651 81.2646 205.853 82.6782C205.56 83.2008 205.054 83.4709 204.506 83.688C203.861 83.9429 203.439 84.3796 203.553 85.1445C203.379 85.5055 203.053 85.5888 202.694 85.6166L198.22 83.481C197.796 83.4911 197.781 82.7994 197.733 82.3475C197.533 80.4871 196.125 79.5227 194.695 78.8285C193.702 78.3464 193.295 77.8945 193.487 76.852C193.649 75.9861 193.537 75.1404 192.724 74.6532C192.016 74.2291 192.074 73.8 192.243 73.0806C192.554 71.7502 192.243 70.1195 190.831 70.016C188.978 69.8822 188.306 68.312 188.218 67.5017C187.947 64.9723 186.646 64.4725 184.5 64.5734C183.391 64.6264 183.287 63.7631 183.684 63.0159C184.637 61.2236 184.379 60.4991 182.44 60.0094C181.968 59.8907 181.323 60.1836 181.038 59.6383C179.693 57.0735 176.966 57.6668 174.841 56.8993C174.586 56.8085 174.146 56.8893 173.939 57.0634C172.445 58.3357 171.578 57.0054 170.906 56.1496C170.259 55.3267 169.471 54.6501 168.68 54.1579C167.818 53.6202 166.713 54.3245 165.74 54.6931C165.599 52.4666 164.98 51.7118 163.243 51.8077C162.447 51.8531 161.618 51.9794 160.931 52.5574C160.274 53.1077 159.109 53.186 158.95 52.4893C158.603 50.9772 157.709 50.7828 156.481 50.7323C156.106 50.7172 155.76 50.4193 155.679 50.0053C155.381 48.5008 154.332 47.8293 152.894 47.5819C154.373 45.7088 153.65 43.3208 151.461 42.5079C150.481 42.1444 149.654 43.4016 148.982 43.0128C148.373 42.6619 148.838 41.1523 147.615 40.9504C146.652 40.7914 146.278 40.0921 145.874 39.3499C145.308 38.3099 144.582 37.3582 143.933 36.3788C143.22 35.3059 142.068 34.2583 140.655 35.7451C140.445 35.9648 140.038 36.3586 139.925 36.0253C139.338 34.2886 137.17 34.7051 136.391 33.3672C135.13 31.2013 132.532 31.5168 130.713 30.3253C129.922 29.8078 128.342 29.7422 127.329 29.0884C126.368 28.4674 125.555 28.3311 124.508 28.7375C123.359 29.1843 122.924 28.6087 123.209 27.5056C123.374 26.872 123.316 26.2409 123.788 25.5972C124.989 23.9589 123.743 21.4067 121.683 20.9952C120.672 20.7933 119.504 18.7082 119.522 17.6656C119.55 15.843 120.379 14.0002 119.272 12.1827C118.375 10.7084 116.927 9.98395 115.711 10.5166C113.886 11.3168 112.054 13.1823 110.101 10.6681C109.901 10.4106 109.426 10.2187 109.049 10.4812C107.846 11.3168 106.851 10.7009 105.966 9.97385C105.228 9.36548 104.48 9.19634 103.537 9.13071C101.864 9.01207 99.8122 9.12062 98.637 8.20679C96.8073 6.78305 94.6819 6.31604 92.7385 5.33406C90.9694 4.44043 90.4993 4.68025 89.9711 6.57857C87.5399 5.64961 87.3074 5.72029 86.6428 7.61357C86.0286 9.36548 84.8434 9.66335 83.5343 8.24718C82.8039 7.45958 81.9396 6.94966 81.0197 6.5912C79.3643 5.94748 78.0577 6.76538 78.04 8.36583C78.0122 11.0795 78.3559 13.8387 77.9693 16.4943C77.6938 18.385 77.7999 20.5207 75.7276 22.0555C74.3427 23.0829 72.93 22.7169 71.6082 23.252C70.9461 23.5221 70.2258 23.6004 70.0034 24.3855C69.8063 25.0797 70.1348 25.6249 70.6782 26.044C72.0075 27.0689 71.1154 29.5503 71.1154 29.5503L70.6908 30.9185C70.6908 30.9185 69.3792 31.2442 68.7398 31.4764C68.1004 31.7087 67.4585 31.946 66.766 32.0495C65.8031 32.1959 64.9186 32.6679 64.1427 31.8425C63.4225 31.0776 62.2574 30.4364 63.2885 29C63.7232 28.3967 63.142 27.652 62.6138 27.1648C62.1841 26.7735 61.9592 26.3444 61.9036 25.8067C62.0527 25.0696 61.8404 23.8124 60.1674 21.8636L58.3983 20.0966C58.3983 20.0966 59.6619 19.5917 58.3983 18.8344C58.3983 18.8344 58.3983 17.7943 58.6864 17.1506C58.7622 16.979 58.6864 16.7821 58.5171 16.7038C58.2998 16.6028 57.9965 16.416 57.6402 16.0576C56.882 15.3003 53.8493 14.7954 53.0911 15.5527C53.0911 15.5527 52.5857 15.3003 52.8384 14.543C52.8384 14.543 51.8275 13.2808 50.5639 13.0283C49.8183 12.8794 49.601 12.9072 49.5479 12.9526C49.5176 12.6219 49.2649 11.3572 47.2785 12.0186C47.2785 12.0186 47.0257 11.0088 46.0148 11.2613C46.0148 11.2613 44.7512 9.99909 45.0039 9.49422C45.0039 9.49422 41.9713 5.70767 40.9604 5.45523C40.0329 5.22299 40.1693 5.62941 40.1971 5.69757C40.091 5.52844 38.6404 3.20097 37.4222 3.68817C37.4222 3.68817 36.1586 2.93086 36.1586 2.42599C36.1586 2.42599 35.1477 1.66868 34.1368 2.17355C34.1368 2.17355 33.1259 2.17355 32.6205 3.1833L31.6096 3.43573C31.6096 3.43573 30.5987 4.19305 30.5987 4.95036C30.5987 5.70767 31.4832 5.83389 32.2414 5.32901C32.9996 4.82414 33.505 4.06683 33.505 4.06683C33.505 4.06683 34.7686 4.06683 35.2741 3.81439C35.2741 3.81439 36.285 4.06683 36.285 5.58145C36.285 7.09607 37.8013 8.10582 37.8013 8.10582V10.3778L39.0649 10.6302L39.3177 11.1351L41.0867 11.3875C41.0867 11.3875 42.3503 11.8924 42.0976 12.6497C41.8449 13.407 43.3612 13.1546 43.3612 13.1546C43.3612 13.1546 42.6031 14.4167 44.8776 15.6789C44.8776 15.6789 44.1194 17.1935 46.6467 18.4557C46.6467 18.4557 48.0341 20.0385 48.8833 21.6566C49.3938 22.6235 49.7097 23.6004 49.4266 24.2618L48.4865 25.0772L47.8117 25.6628L47.4731 25.9556C45.2693 27.8388 42.4236 29.1818 41.8929 32.5089C41.8601 32.7159 41.6023 33.0138 41.4102 33.0466C40.0177 33.2889 39.353 34.4678 38.4483 35.3135C37.9732 35.7578 37.5638 35.8411 36.9294 35.7855C32.0013 35.364 31.142 36.2197 30.5052 40.0088C30.0755 42.566 27.7631 44.2245 25.2384 44.4012C23.7322 44.5047 22.0162 44.901 21.4627 46.7564C21.2833 47.3547 21.0078 47.7586 20.4468 48.0312C19.2261 48.6245 18.842 49.7428 19.125 50.9216C19.5496 52.6963 20.0095 54.5138 20.8157 56.1345C21.7988 58.106 21.7483 58.9845 19.8731 60.1003C19.1048 60.5572 18.1015 60.9308 18.0054 61.8825C17.73 64.5608 15.4302 65.6135 13.8254 67.1432C12.5719 68.3398 11.47 71.051 12.6477 72.3157C14.1969 73.9792 14.1539 76.3042 15.5515 77.998C16.2819 78.8841 15.5818 81.0626 14.7301 81.3832C12.2838 82.3071 11.7455 83.7662 12.956 86.2401C13.1279 86.5935 13.3654 86.9469 13.047 87.2776C12.7665 87.5704 12.4531 87.27 12.1953 87.1312C11.1591 86.5708 10.2468 86.7652 9.37744 87.4972C7.33795 89.2113 6.08192 91.3141 6.01621 94.0429C5.99599 94.8608 6.15773 95.8377 5.5335 96.4209C4.32296 97.5594 3.87563 99.1194 3.06186 100.467C1.40652 103.204 1.93724 106.14 2.85968 108.937C3.43337 110.676 4.86631 111.017 6.30684 109.957C6.96645 109.469 7.56288 109.368 7.91417 110.002C9.56951 112.993 13.6813 112.966 15.2507 116.04C15.4555 116.442 15.923 116.586 16.3981 116.631C17.3281 116.719 17.7401 117.161 17.965 118.171C18.4553 120.357 21.2277 121.978 23.4062 121.475C24.3513 121.258 25.3016 121.402 25.5316 122.205C26.0092 123.868 27.2198 124.757 28.4354 125.739C28.9964 126.188 29.3452 127.216 30.2524 126.484C31.0182 125.863 31.3114 125.024 30.9323 123.939C30.4597 122.573 30.1918 121.134 29.8557 119.723C29.6156 118.719 30.3232 118.317 31.0713 118.103C31.4832 117.984 32.1959 117.795 32.2793 118.57C32.5118 120.741 34.1065 121.023 35.8048 121.225C36.6059 121.321 37.359 121.329 37.7508 122.374C38.471 124.297 39.6588 125.817 42.0243 125.777C42.2518 125.774 42.6385 125.85 42.6915 125.989C43.4472 127.907 45.2339 128.564 46.7983 129.561C47.7182 130.151 48.4157 130.593 49.6313 130.462C50.7383 130.343 50.253 132.317 51.4383 132.557C51.686 132.608 51.9387 132.638 52.1914 132.671C52.7803 132.749 53.3085 132.966 53.7103 133.405L59.2348 136.372C59.4067 136.927 59.7984 137.182 60.367 137.197C62.2321 137.874 64.1756 138.219 66.1317 138.434C67.6733 138.603 68.6817 139.658 68.5806 140.878C68.3733 143.359 70.0489 144.677 71.2342 146.343C72.0909 147.544 74.4589 148.292 72.47 150.369C72.4422 150.397 72.4574 150.505 72.4902 150.548C73.1347 151.369 73.0184 152.729 74.1329 153.169C75.1691 153.575 77.7974 152.482 78.2599 151.614C78.7881 150.622 80.1149 150.452 80.4738 151.465C80.9843 152.906 82.7432 153.777 82.306 155.645C82.2176 156.029 82.5815 156.534 83.0212 156.695C87.1002 158.205 89.8877 162.302 94.6364 162.476C94.8639 162.484 95.1368 162.635 95.3011 162.804C98.0406 165.642 101.389 167.686 104.523 170.021C106.525 171.513 108.074 171.334 109.059 169.052C110.467 165.796 114.362 165.311 116.608 168.065C117.756 169.471 118.822 170.933 121.089 170.753C122.047 170.678 123 171.533 123.872 172.243C126.085 174.04 128.178 176.029 130.758 177.329C131.575 177.741 132.166 178.291 132.755 178.998C134.241 180.788 136.078 182.603 138.509 182.181C141.239 181.707 144.036 181.49 146.713 180.639C150.064 179.574 149.97 179.68 151.282 182.648C152.308 184.971 153.203 187.215 152.589 189.823C152.45 190.411 152.533 191.065 152.386 191.696C152.197 192.516 152.437 193.392 153.42 193.354C155.007 193.294 156.607 193.521 158.133 193.662C160.357 193.869 163.271 192.122 164.803 195.323C164.904 195.535 165.349 195.626 165.649 195.697C167.979 196.247 170.234 197.153 172.748 196.553C174.025 196.247 175.412 196.391 176.752 196.378C177.302 196.373 177.962 196.28 178.258 196.939C178.839 198.241 179.933 198.968 181.114 199.637C181.685 199.96 181.859 200.445 181.935 201.182C182.147 203.25 184.156 204.512 186.231 204.146C188.185 203.8 189.453 202.54 190.098 200.844C190.522 199.721 192.107 198.908 191.099 197.269C190.26 195.904 190.937 194.907 192.539 194.965C195.403 195.068 198.263 195.217 201.124 195.371C201.496 195.391 201.898 195.48 202.219 195.654C206.239 197.853 210.43 199.733 214.294 202.22C214.809 202.55 215.264 203.212 215.969 202.823C216.707 202.417 216.556 201.624 216.551 200.932C216.54 199.827 216.174 198.607 217.521 197.941L220.791 197.199C220.791 197.199 222.922 197.118 223.993 197.439C225.692 197.946 227.036 197.3 227.698 195.699C228.188 194.513 229.515 194.129 229.968 192.965C230.064 192.718 230.503 192.673 230.584 192.93C231.209 194.924 234.044 194.525 234.572 196.671C234.709 197.227 235.538 197.439 236.058 197.126C237.84 196.05 238.108 197.681 238.123 198.532C238.148 199.963 238.932 200.379 239.996 200.703L257.239 203.78C257.654 203.843 257.932 204.068 258.144 204.406C261.139 209.174 262.016 214.059 259.001 219.181C258.055 220.786 258.525 222.107 260.277 222.803C261.399 223.248 262.476 223.886 263.585 224.222C265.435 224.785 267.424 226.481 269.362 224.275C269.575 224.033 269.903 224.268 269.989 224.469C271.02 226.943 273.264 227.092 275.46 227.41C276.368 227.542 277.278 227.855 276.828 229.142C276.598 229.793 276.911 230.124 277.404 230.563C278.435 231.482 280.512 231.677 279.903 233.868C279.868 233.991 280.189 234.304 280.401 234.39C281.819 234.961 283.545 235.14 284.591 234.282C285.617 233.439 286.532 233.598 287.536 233.535C288.918 233.449 289.623 233.757 288.777 235.39C287.627 237.606 289.631 240.36 292.196 240.487C293.702 240.56 295.216 240.883 296.677 241.274C297.546 241.509 298.148 241.388 298.982 241.042C300.389 240.459 301.418 238.826 302.884 238.942C305.578 239.154 307.41 237.831 309.293 236.326C311.82 234.309 314.504 233.648 317.471 235.44C318.853 236.276 319.621 237.293 319.283 239.035C318.995 240.522 318.876 242.052 318.81 243.566C318.712 245.889 320.289 247.868 322.341 248.885C323.683 249.549 325.257 250.112 325.813 251.897C326.134 252.924 326.953 252.74 327.835 252.24C329.296 251.412 330.319 249.824 332.21 249.713C332.427 249.701 332.776 249.304 332.804 249.057C332.996 247.272 334.196 247.075 335.675 246.904C337.398 246.704 340.919 247.926 341.687 249.405C342.225 250.44 342.923 250.695 343.82 250.099C344.533 249.625 344.745 249.701 345.253 250.435C346.11 251.677 347.616 251.702 348.652 250.549C349.946 249.11 351.677 249.415 353.024 249.771C355.488 250.42 357.876 251.622 360.037 252.891C362.145 254.131 365.344 253.987 366.254 257.044C366.279 257.127 366.469 257.16 366.583 257.216C369.299 258.576 372.042 259.886 374.72 261.315C375.903 261.946 376.866 262.173 377.619 260.825C377.93 260.27 378.481 260.056 378.898 260.336C380.654 261.51 381.888 260.326 383.379 259.664C384.93 258.978 386.368 255.951 386.371 256.453C386.689 256.188 394.453 256.393 394.777 258.127C395.312 261.017 398.613 263.264 401.486 262.943C402.614 262.817 404.509 261.762 404.792 264.274C404.865 264.912 405.568 265.074 406.144 265.147C407.049 265.263 407.837 265.597 408.623 266.066C410.112 266.955 411.305 266.354 411.343 264.615C411.383 262.908 412.422 262.312 413.781 261.921C414.203 261.8 414.717 261.873 415.075 261.664C417.325 260.353 419.114 261.186 420.971 262.605C422.046 263.426 422.986 265.147 424.633 264.405C425.978 263.799 427.727 263.93 428.639 262.37C429.059 261.651 429.582 261.469 430.426 262.229C431.851 263.514 433.428 263.163 434.383 261.512C434.96 260.515 435.258 259.404 436.741 260.621C437.429 261.186 438.382 260.886 438.902 260.073C439.622 258.945 440.163 259.442 440.709 260.192C441.558 261.356 442.365 262.565 443.757 263.166C444.477 263.476 445.023 263.877 445.339 264.678C445.723 265.644 446.641 265.766 447.593 265.687C448.41 265.619 448.902 265.291 448.915 264.397C448.923 263.827 449.375 263.569 449.764 263.224C451.758 261.441 453.81 259.821 452.696 256.448C452.441 255.678 452.772 253.868 453.3 252.551C454.334 249.978 456.219 247.951 456.83 244.985C457.52 241.643 457.892 238.545 456.967 235.314C456.666 234.264 457.452 232.956 456.537 232.197C455.049 230.962 455.643 228.857 454.334 227.602C454.048 227.33 454.119 226.855 454.285 226.509C454.836 225.381 454.791 224.593 453.345 224.24C452.923 224.136 452.471 223.642 452.281 223.217C451.761 222.044 451.286 221.11 449.653 221.39C448.92 221.516 448.637 220.547 448.483 219.852C448.374 219.363 448.528 218.588 448.25 218.401C446.353 217.119 447.454 215.728 447.993 214.354C448.129 214.009 448.367 213.736 448.298 213.299C447.785 210.028 449.069 207.109 450.325 204.254C450.833 203.103 450.907 202.247 450.214 201.266C449.365 200.064 449.592 198.973 450.778 198.221C451.614 197.688 451.746 197.151 451.334 196.328C450.502 194.672 450.105 193.336 450.745 191.133C451.602 188.182 453.666 186.074 454.647 183.32C455.018 182.277 455.744 181.338 455.739 180.162C455.734 179.437 455.87 178.778 456.242 178.162C457.217 176.549 458.67 175.07 457.687 172.904C457.606 172.725 457.697 172.372 457.836 172.205C459.15 170.637 458.14 169.946 456.868 169.105C455.453 168.168 453.641 168.29 452.423 167.659C450.249 166.533 448.374 165.889 446.097 166.813C445.668 166.987 445.415 166.901 445.099 166.598C443.921 165.472 442.544 165.069 440.924 165.472C440.138 165.669 439.521 165.652 439.256 164.544C438.996 163.461 436.845 162.726 436.559 163.453C435.837 165.306 433.8 166.192 433.307 168.035C432.918 169.489 431.978 170.433 431.111 171.498C430.509 172.238 429.438 172.326 429.114 171.776C427.712 169.393 426.213 170.599 424.593 171.556C424.479 171.172 424.406 170.88 424.31 170.597C423.585 168.474 422.291 168.095 420.539 169.514C420.281 169.724 420.077 169.915 419.715 169.852C418.237 169.6 417.024 170.291 415.841 171.051C415.075 169.052 414.416 168.446 413.445 169.085C412.485 169.716 411.239 169.671 410.425 170.627C409.96 171.175 409.21 171.205 408.517 170.766C406.124 169.244 405.484 169.257 403.276 170.806C402.08 171.647 398.191 171.319 397.908 170.062C397.577 168.59 396.611 167.679 395.964 166.53C394.953 164.735 393.452 162.569 391.337 162.986C387.948 163.652 386.785 160.815 384.685 159.583C383.563 158.924 382.979 157.917 381.486 158.796C380.477 159.389 377.783 157.884 377.983 156.968C378.38 155.138 377.531 154.09 375.956 153.509C373.939 152.767 371.963 153.229 371.015 154.666C370.303 155.749 370.027 155.789 369.492 154.486C369.052 153.411 367.965 152.78 366.696 152.997C365.453 153.212 365.466 154.231 365.413 155.221C365.387 155.696 365.577 156.301 365.097 156.65L363.952 157.548L363.3 159.048L363.497 160.876L361.986 163.084C361.986 163.084 360.399 163.708 360.108 164.763C359.739 166.099 358.859 166.275 357.841 165.298C355.943 163.481 353.484 162.67 351.172 161.603C350.732 161.398 350.113 161.224 349.703 161.378C348.109 161.974 348.109 160.972 348.227 159.962C348.447 158.104 346.847 156.294 348.131 154.378C348.306 154.118 347.924 153.414 347.689 152.974C347.239 152.141 346.759 151.344 346.527 150.394C346.367 149.741 346.044 148.983 345.119 149.135C344.358 149.258 344.1 149.751 343.888 150.556C343.491 152.058 341.967 153.666 341.037 153.838C338.892 154.234 338.356 154.817 339.152 156.761C339.258 157.018 339.137 157.384 339.071 157.69C338.727 159.265 338.935 160.641 339.769 162.138C341.042 164.425 340.064 165.95 337.57 165.919C336.38 165.904 335.192 165.616 334.153 164.935C333.542 164.536 333.152 163.933 333.655 163.357C335.503 161.239 334.039 160.106 332.462 158.975C331.474 158.265 330.233 157.162 330.34 156.279C330.638 153.807 328.525 152.563 328.03 150.604C327.615 148.968 326.346 148.029 325.106 147.711C322.156 146.954 321.307 144.745 321.216 142.347C321.148 140.524 320.516 138.906 320.266 137.177C320.165 136.48 319.793 135.793 318.992 135.69C318.252 135.594 317.226 135.435 316.933 136.255C316.346 137.906 315.1 139.297 314.956 141.1C314.883 142.014 314.337 142.536 313.804 143.213C313.038 142.435 314.13 140.885 312.775 140.749C310.17 140.489 308.049 138.57 305.33 138.76C303.675 138.876 302.019 138.681 301.332 140.817C301.102 141.531 300.372 142.758 299.295 141.304C298.845 140.696 298.201 140.64 297.592 141.006C295.709 142.145 294.352 141.534 292.972 139.997C292.327 139.277 291.349 138.27 290.169 138.749C290.169 138.749 286.158 140.004 285.58 138.184L285.582 138.207Z" stroke="#54B226" stroke-width="4" stroke-miterlimit="10" mask="url(#path-1-outside-1_444_7832)"/>
<path d="M256.866 144.735C256.866 146.635 256.722 148.502 256.446 150.326C255.871 154.111 254.722 157.708 253.089 161.024C250.871 165.535 247.759 169.528 243.985 172.771H231.692L230.495 168.701L228.239 161.024L225.094 150.326H218.112L217.739 149.059L214.659 138.579H233.666L234.845 142.591L237.119 150.326L240.265 161.024L240.306 161.166C240.345 161.119 240.382 161.072 240.419 161.024C242.867 157.946 244.637 154.305 245.502 150.326C245.894 148.524 246.1 146.653 246.1 144.735C246.1 142.625 245.851 140.574 245.38 138.609L245.458 138.579L255.509 134.779C255.855 136.021 256.139 137.288 256.355 138.579C256.691 140.581 256.866 142.638 256.866 144.735Z" fill="#F29F05"/>
</svg>
