<svg width="144" height="115" viewBox="0 0 144 115" fill="none" xmlns="http://www.w3.org/2000/svg">
<path d="M141.681 20.651C141.063 18.856 140.247 17.1353 139.248 15.521C133.938 6.91403 125.059 1.82603 112.618 0.249026C96.4976 -1.13797 83.4656 3.26903 73.5336 13.467C66.5366 21.709 63.0316 30.315 63.0106 39.3C62.9966 43.463 63.7426 47.703 65.2266 52.027L33.2656 78.119L44.9666 92.423L78.2876 62.21C80.8649 63.3683 83.5685 64.222 86.3436 64.754C86.5526 64.81 86.7546 64.845 86.9496 64.866C91.2916 65.666 95.9406 65.763 100.91 65.167C107.447 64.376 113.427 62.518 118.842 59.589C120.668 58.6247 122.426 57.5358 124.104 56.33C126.192 54.8204 128.165 53.1571 130.007 51.354C134.537 46.939 137.792 42.222 139.778 37.204C141.332 33.301 142.106 29.208 142.106 24.926C142.106 23.741 142.043 22.578 141.925 21.443C141.848 21.183 141.764 20.923 141.674 20.658M85.7996 17.7C87.2386 16.5689 88.7572 15.5429 90.3436 14.63C100.729 9.59103 109.866 8.41403 117.762 11.112C124.355 13.418 128.272 17.462 129.505 23.244C129.721 24.253 129.847 25.276 129.861 26.314V27.098C129.784 31.219 128.223 35.396 125.17 39.636C124.82 40.1589 124.438 40.6599 124.027 41.136C123.888 41.353 123.728 41.577 123.56 41.809C122.609 42.9404 121.58 44.0033 120.48 44.99C116.912 48.27 112.618 50.828 107.594 52.665C106.259 53.154 104.898 53.5657 103.517 53.898L99.5436 54.683C98.9306 54.767 98.3306 54.83 97.7526 54.873L94.9576 54.984C93.7127 54.9528 92.4704 54.8523 91.2366 54.683L89.0196 54.199C88.2713 54.0386 87.5317 53.84 86.8036 53.604C80.4686 51.55 76.5446 47.696 75.0256 42.033C74.9005 41.5253 74.7934 41.0133 74.7046 40.498L74.4886 38.928C74.4665 38.6038 74.4548 38.279 74.4536 37.954V37.618C74.5376 34.296 75.3876 31.1 76.9976 28.038C77.6243 26.8749 78.3178 25.749 79.0746 24.666C79.2486 24.449 79.4166 24.225 79.5766 23.994C80.1083 23.3076 80.6568 22.6344 81.2216 21.975C82.3226 20.721 83.8486 19.298 85.7996 17.707V17.7Z" fill="#0A754E"/>
<path d="M90.3509 14.6229C88.7633 15.5339 87.2446 16.56 85.8069 17.6929C83.8489 19.2829 82.3219 20.7059 81.2279 21.9609C80.6668 22.6231 80.1184 23.2958 79.5829 23.9789C79.4229 24.2109 79.2559 24.4349 79.0819 24.6519C78.3254 25.7347 77.6319 26.8603 77.0049 28.0229C75.3949 31.0929 74.5519 34.2889 74.4609 37.6029V37.9399C74.4609 38.2619 74.4749 38.5919 74.4959 38.9139L74.7119 40.4839C74.8019 41.0029 74.9139 41.5139 75.0319 42.0189C76.5449 47.6819 80.4749 51.5359 86.8109 53.5889C87.5279 53.8279 88.2739 54.0239 89.0269 54.1849L91.2429 54.6689C92.4489 54.8299 93.6889 54.9349 94.9649 54.9699L97.7589 54.8579C98.3581 54.8136 98.9558 54.7502 99.5509 54.6679L103.523 53.8839C104.904 53.5516 106.266 53.1399 107.6 52.6509C112.625 50.8139 116.918 48.2559 120.486 44.9759C121.583 43.9857 122.612 42.923 123.567 41.7949C123.734 41.5629 123.887 41.3389 124.034 41.1219C124.431 40.6729 124.807 40.1759 125.177 39.6219C128.229 35.3819 129.791 31.1979 129.867 27.0839V26.2989C129.847 25.2666 129.728 24.2386 129.512 23.2289C128.278 17.4479 124.368 13.4039 117.768 11.0989C109.872 8.40694 100.735 9.57694 90.3509 14.6159V14.6229Z" fill="#FAF1E5"/>
<path d="M142.111 38.206C143.512 32.026 143.449 26.432 141.93 21.436C142.049 22.571 142.111 23.734 142.111 24.919C142.111 29.201 141.338 33.294 139.784 37.197C137.797 42.222 134.536 46.939 130.013 51.347C128.173 53.1524 126.2 54.8159 124.109 56.323C122.432 57.5291 120.674 58.618 118.848 59.582C113.432 62.512 107.453 64.369 100.916 65.161C95.9457 65.756 91.2977 65.658 86.9557 64.859C86.7511 64.8374 86.5485 64.8 86.3497 64.747C83.5743 64.215 80.8703 63.3613 78.2927 62.203L44.9727 92.416C48.4427 93.04 51.1197 92.612 52.9867 91.14L79.4007 67.032C81.628 68.044 83.9545 68.8215 86.3427 69.352C91.1447 70.452 96.3647 70.662 101.982 69.989C109 69.141 115.37 67.074 121.099 63.773C122.122 63.1856 123.124 62.5615 124.103 61.902C126.594 60.2047 128.928 58.2884 131.079 56.176C136.738 50.66 140.411 44.668 142.104 38.206H142.111Z" fill="#5BA388"/>
<path d="M71.9948 83.5093C72.5458 81.5533 72.8597 79.8363 72.9287 78.3443C73.0617 74.8253 72.0927 72.6943 70.0297 71.9443C69.1447 71.6163 68.1687 71.6163 67.0957 71.9443C64.8587 78.2313 66.4967 82.0863 72.0017 83.5163M68.3848 53.6393C66.4058 54.6973 64.2728 55.1253 61.9808 54.9153C58.8858 54.4383 57.1647 52.9523 56.8227 50.4573C56.6347 50.4713 56.4397 50.4853 56.2517 50.4923C48.1117 51.1723 40.8218 53.2193 34.3818 56.6323C29.6358 59.2813 25.0707 62.9743 20.6727 67.7123L14.2407 77.3553L9.22975 87.5173L0.34375 113.911H50.7318C58.5588 108.402 64.5167 101.289 68.5938 92.5703C70.1487 89.1363 71.2848 86.1163 71.9948 83.5093C66.4898 82.0793 64.8587 78.2243 67.0887 71.9383C66.451 72.174 65.8391 72.4745 65.2627 72.8353C63.7647 73.8303 62.3707 75.3373 61.0747 77.3623C61.6317 82.9693 59.3878 86.6423 54.3418 88.3723C53.2058 90.6363 51.1007 92.2343 48.0417 93.1663C47.7475 93.6315 47.3987 94.0598 47.0027 94.4423C44.8567 96.7123 42.1247 97.2943 38.8077 96.2013C38.3677 90.6363 36.1237 85.3593 32.0747 80.3613C36.1167 85.3593 38.3617 90.6363 38.8077 96.2013C42.1247 97.2943 44.8567 96.7123 47.0027 94.4423C47.4003 94.0613 47.7493 93.6328 48.0417 93.1663C48.2297 92.9073 48.3967 92.6343 48.5437 92.3393C49.4777 90.4893 49.7697 88.2193 49.4357 85.5273C47.9297 76.9423 43.2887 71.3283 35.5107 68.6793C43.2887 71.3213 47.9297 76.9423 49.4357 85.5273C49.7697 88.2253 49.4707 90.4963 48.5437 92.3393C48.3965 92.6266 48.2287 92.903 48.0417 93.1663C51.1007 92.2343 53.2058 90.6363 54.3418 88.3723C55.2688 86.5363 55.5687 84.2663 55.2337 81.5603C53.7287 72.9753 49.0867 67.3623 41.3097 64.7123C49.0867 67.3543 53.7287 72.9753 55.2337 81.5603C55.5687 84.2663 55.2688 86.5353 54.3418 88.3723C59.3878 86.6403 61.6317 82.9753 61.0747 77.3623C61.0747 77.2143 61.0607 77.0683 61.0397 76.9133C60.1817 72.0503 58.3217 68.1463 55.4567 65.1963C53.2687 62.9183 50.4947 61.2083 47.1147 60.0663C50.4877 61.2083 53.2687 62.9183 55.4567 65.1963C65.0187 64.3133 69.5417 61.0613 69.0267 55.4263C68.9457 54.7887 68.7266 54.1765 68.3848 53.6323M61.9808 54.9083C64.2728 55.1183 66.4128 54.6903 68.3848 53.6323C66.9148 51.2073 63.0607 50.1423 56.8227 50.4503C57.1647 52.9453 58.8858 54.4313 61.9808 54.9083Z" fill="#FAF1E5"/>
<path d="M0.345733 114.261C0.345733 114.261 0.289733 114.261 0.268733 114.254C0.22384 114.244 0.181408 114.225 0.143958 114.199C0.106509 114.172 0.0748037 114.138 0.0507348 114.099C0.0266659 114.06 0.0107245 114.016 0.00385216 113.97C-0.00302016 113.925 -0.000679893 113.879 0.0107339 113.834C0.0597339 113.623 4.92373 92.7671 14.4647 76.2481C18.4587 69.3241 23.5117 63.6331 29.4767 59.3371C30.9893 58.2429 32.565 57.2388 34.1957 56.3301C40.6487 52.8961 48.0577 50.8081 56.2047 50.1281L56.7827 50.0931H56.7897C63.2297 49.7771 67.1117 50.8711 68.6797 53.4431C69.0277 54.0101 69.2507 54.6631 69.3557 55.3771C69.6277 58.3271 68.5677 60.6821 66.2127 62.3781C64.0307 63.9551 60.6577 64.9931 56.1977 65.4761C58.7347 68.3071 60.4417 71.9861 61.2917 76.4161C62.4627 74.7271 63.7317 73.4301 65.0837 72.5401C65.7457 72.1271 66.3797 71.8191 66.9857 71.6221C68.1217 71.2581 69.1887 71.2581 70.1497 71.6221C72.3457 72.4141 73.3977 74.6781 73.2727 78.3431C73.1887 79.8571 72.8747 81.6231 72.3317 83.5931C71.6067 86.2071 70.4497 89.2691 68.8957 92.7031C64.8047 101.436 58.7617 108.661 50.9147 114.184C50.8386 114.237 50.7448 114.257 50.6536 114.242C50.5624 114.226 50.4809 114.175 50.4267 114.1C50.3745 114.023 50.3541 113.929 50.3697 113.838C50.3854 113.746 50.4359 113.664 50.5107 113.609C58.2537 108.157 64.2257 101.022 68.2547 92.4091C69.7247 89.1571 70.8327 86.2491 71.5577 83.7471C69.1047 83.0461 67.4107 81.8331 66.5187 80.1301C65.5157 78.2241 65.5157 75.6731 66.5187 72.5481C66.1707 72.7021 65.8147 72.8981 65.4457 73.1221C64.0167 74.0621 62.6647 75.5191 61.4317 77.4391C61.9467 83.0881 59.6407 86.8591 54.5737 88.6461C53.3957 90.8881 51.2767 92.5071 48.2667 93.4531C47.9673 93.896 47.629 94.3113 47.2557 94.6941C45.1157 96.9291 42.4117 97.5951 39.1927 96.6771C39.3727 99.5231 39.0877 102.466 38.3427 105.452C38.3192 105.542 38.2613 105.618 38.1815 105.666C38.1018 105.713 38.0066 105.727 37.9167 105.704C37.8722 105.692 37.8304 105.672 37.7937 105.644C37.757 105.616 37.7261 105.582 37.7029 105.542C37.6797 105.502 37.6645 105.458 37.6583 105.413C37.6521 105.367 37.655 105.321 37.6667 105.276C38.4397 102.186 38.7047 99.1441 38.4607 96.2221C38.0147 90.7621 35.7707 85.4991 31.7907 80.5791C31.7337 80.507 31.7069 80.4156 31.7161 80.3241C31.7252 80.2327 31.7696 80.1484 31.8397 80.0891C31.911 80.0313 32.0022 80.0039 32.0936 80.0129C32.1849 80.0219 32.269 80.0665 32.3277 80.1371C36.3417 85.0991 38.6277 90.4121 39.1297 95.9341C42.2237 96.9011 44.7197 96.3341 46.7467 94.2101C47.1195 93.831 47.4535 93.4156 47.7437 92.9701C47.9107 92.7241 48.0647 92.4581 48.2037 92.1851C49.0957 90.4121 49.3887 88.1831 49.0607 85.5761C47.5907 77.1871 42.9837 71.6081 35.3727 69.0161C35.3294 69.0014 35.2894 68.9784 35.2549 68.9483C35.2205 68.9182 35.1923 68.8816 35.172 68.8406C35.1311 68.7578 35.1247 68.6621 35.1542 68.5746C35.1838 68.487 35.2469 68.4148 35.3297 68.3739C35.4125 68.3329 35.5082 68.3265 35.5957 68.3561C43.4717 71.0341 48.2317 76.7951 49.7507 85.4781C50.0927 88.2461 49.7787 90.6081 48.8237 92.5071C48.8237 92.5211 48.8097 92.5281 48.8097 92.5421C51.2837 91.6171 53.0267 90.1661 54.0017 88.2251C54.8947 86.4591 55.1867 84.2371 54.8597 81.6091C53.3887 73.2201 48.7817 67.6421 41.1717 65.0491C41.1284 65.0344 41.0884 65.0114 41.0539 64.9813C41.0195 64.9512 40.9913 64.9146 40.971 64.8736C40.9508 64.8326 40.9387 64.788 40.9357 64.7423C40.9326 64.6967 40.9386 64.6509 40.9532 64.6076C40.9679 64.5642 40.9909 64.5242 41.021 64.4898C41.0511 64.4553 41.0877 64.4272 41.1287 64.4069C41.1697 64.3866 41.2143 64.3746 41.26 64.3715C41.3056 64.3684 41.3514 64.3744 41.3947 64.3891C49.2697 67.0671 54.0297 72.8281 55.5497 81.5041C55.8487 83.9151 55.6537 86.0111 54.9707 87.7631C59.3407 85.9831 61.2157 82.5901 60.7137 77.4111L60.6577 76.9701C59.8217 72.2181 57.9817 68.3351 55.1867 65.4551C53.0407 63.2331 50.2737 61.5371 46.9697 60.4161C46.8848 60.3846 46.8156 60.3212 46.7766 60.2395C46.7377 60.1577 46.7321 60.064 46.7611 59.9782C46.7902 59.8925 46.8515 59.8214 46.9321 59.7801C47.0126 59.7388 47.1062 59.7305 47.1927 59.7571C50.5457 60.8931 53.3607 62.6101 55.5707 64.8521C60.1767 64.4111 63.6127 63.3951 65.7877 61.8251C67.9547 60.2621 68.8887 58.1801 68.6447 55.4751C68.5797 54.9999 68.4386 54.5383 68.2267 54.1081C66.2677 55.0831 64.1427 55.4681 61.9127 55.2651C58.7757 54.7811 56.9637 53.2951 56.4967 50.8291L56.2397 50.8431C48.1897 51.5151 40.8797 53.5761 34.5097 56.9611C32.9045 57.8596 31.352 58.8492 29.8597 59.9251C23.9777 64.1651 18.9957 69.7861 15.0497 76.6191C5.57973 93.0261 0.735733 113.778 0.686733 113.988C0.669271 114.065 0.62601 114.135 0.564048 114.184C0.502087 114.234 0.425105 114.261 0.345733 114.261ZM67.3627 72.2251C66.2477 75.4071 66.1777 77.9511 67.1467 79.7951C67.9477 81.3151 69.4947 82.4151 71.7527 83.0601C72.2267 81.2731 72.5057 79.6751 72.5827 78.3011C72.7007 74.9311 71.8227 72.9541 69.9127 72.2671C69.1397 71.9731 68.2827 71.9591 67.3627 72.2181V72.2251ZM57.2147 50.7651C57.6537 52.8751 59.2217 54.1151 62.0097 54.5431C64.0727 54.7331 66.0447 54.3751 67.8707 53.4851C66.3587 51.4591 62.7767 50.5411 57.2147 50.7651Z" fill="#0A754E"/>
<mask id="mask0_1106_3683" style="mask-type:luminance" maskUnits="userSpaceOnUse" x="74" y="9" width="56" height="46">
<path d="M90.3529 14.6229C88.7653 15.5339 87.2465 16.56 85.8089 17.6929C83.8509 19.2839 82.3239 20.7069 81.2299 21.9609C80.6687 22.6234 80.1203 23.2965 79.5849 23.9799C79.4249 24.2099 79.2579 24.4349 79.0839 24.6519C78.3273 25.7347 77.6338 26.8603 77.0069 28.0229C75.3969 31.0929 74.5529 34.2889 74.4629 37.6029V37.9399C74.4629 38.2629 74.4769 38.5919 74.4979 38.9139L74.7139 40.4839C74.8039 41.0029 74.9159 41.5139 75.0339 42.0189C76.5469 47.6819 80.4769 51.5359 86.8129 53.5889C87.5401 53.8279 88.2799 54.0269 89.0289 54.1849L91.2449 54.6689C92.4509 54.8299 93.6909 54.9349 94.9669 54.9699L97.7609 54.8579C98.3601 54.8139 98.9577 54.7509 99.5529 54.6689L103.525 53.8839C104.906 53.5516 106.268 53.1399 107.602 52.6509C112.627 50.8139 116.92 48.2559 120.488 44.9759C121.585 43.9857 122.614 42.923 123.569 41.7949C123.736 41.5629 123.889 41.3389 124.036 41.1219C124.45 40.6484 124.832 40.1472 125.179 39.6219C128.231 35.3819 129.792 31.1979 129.869 27.0839V26.2989C129.849 25.2666 129.73 24.2386 129.514 23.2289C128.28 17.4479 124.37 13.4039 117.77 11.0989C109.874 8.40694 100.737 9.57694 90.3529 14.6159V14.6229Z" fill="white"/>
</mask>
<g mask="url(#mask0_1106_3683)">
<path d="M141.994 9.99755C131.421 17.6225 125.4 9.18455 114.827 16.8095C104.255 24.4345 110.276 32.8795 99.7042 40.5045C89.1312 48.1295 83.1102 39.6915 72.5372 47.3165C65.2682 52.5585 65.7072 57.7035 63.4492 63.1415L69.6662 72.0705C71.7502 67.3535 71.4152 62.1955 77.7222 55.9505C87.0062 46.7775 94.9302 56.2455 105.502 48.6205C116.075 40.9955 110.053 32.5505 120.626 24.9255C131.198 17.2995 137.22 25.7385 147.792 18.1125C153.869 13.7325 154.559 9.42255 155.939 4.95155L149.918 -3.68945C148.559 0.928547 147.883 5.75755 141.994 10.0045V9.99755Z" fill="#F5B237"/>
<path d="M136.64 2.30975C126.068 9.93475 120.046 1.49675 109.474 9.12175C98.9007 16.7467 104.923 25.1917 94.3497 32.8167C83.7777 40.4417 77.7557 32.0037 67.1837 39.6287C59.9147 44.8707 60.3537 50.0157 58.0957 55.4537L60.8967 59.4837C62.9807 54.7667 62.6467 49.6087 68.9537 43.3637C78.2367 34.1907 86.1607 43.6587 96.7337 36.0337C107.306 28.4087 101.285 19.9637 111.857 12.3387C122.43 4.71375 128.451 13.1517 139.024 5.52674C145.101 1.14674 145.791 -3.16325 147.171 -7.63525L144.564 -11.3853C143.205 -6.76625 142.529 -1.93725 136.64 2.30975Z" fill="#F5B237"/>
</g>
<path d="M121.833 67.809L128.336 69.989L121.466 70.382C120.5 70.44 119.661 71.05 119.346 71.937L117.098 78.244L116.694 71.581C116.662 71.1175 116.493 70.674 116.207 70.3075C115.922 69.941 115.533 69.6682 115.091 69.524L108.588 67.344L115.458 66.952C116.424 66.894 117.263 66.283 117.578 65.397L119.825 59.09L120.23 65.753C120.29 66.69 120.919 67.504 121.833 67.809ZM55.2022 9.08904L63.0902 9.16903L55.7642 12.017C54.7372 12.417 54.0552 13.383 54.0402 14.459L53.9582 22.11L51.0212 15.004C50.6092 14.008 49.6132 13.347 48.5042 13.332L40.6152 13.252L47.9422 10.404C48.9692 10.004 49.6502 9.03804 49.6652 7.96304L49.7482 0.311035L52.6842 7.41804C53.0962 8.41304 54.0932 9.07504 55.2022 9.08904ZM84.7642 18.661L92.4992 20.215L84.7692 21.643C83.6862 21.843 82.8352 22.666 82.6202 23.719L81.1082 31.221L79.5522 23.691C79.3332 22.635 78.4782 21.799 77.3912 21.578L69.6572 20.024L77.3872 18.596C78.4702 18.396 79.3202 17.573 79.5362 16.52L81.0482 9.01804L82.6042 16.548C82.8232 17.604 83.6782 18.44 84.7642 18.661Z" fill="#DC9105"/>
</svg>
