<svg width="333" height="333" viewBox="0 0 333 333" fill="none" xmlns="http://www.w3.org/2000/svg">
<path d="M333 95.0403C333 110.063 331.869 124.822 329.687 139.232C325.151 169.155 316.085 197.581 303.205 223.797C285.704 259.451 261.152 291.008 231.373 316.647H134.387L124.947 284.478L107.143 223.797L82.3282 139.232H27.2441L24.3045 129.222L0 46.3872H149.964L159.267 78.101L177.208 139.232L202.022 223.797L202.351 224.915C202.654 224.546 202.952 224.172 203.24 223.797C222.559 199.463 236.519 170.683 243.348 139.232C246.439 124.994 248.066 110.204 248.066 95.0403C248.066 78.364 246.096 62.153 242.378 46.6198L243 46.3872L322.297 16.3527C325.03 26.1652 327.267 36.1852 328.975 46.3872C331.621 62.2087 333 78.4651 333 95.0403Z" fill="#F29F05"/>
</svg>
