<svg width="152" height="24" viewBox="0 0 152 24" fill="none" xmlns="http://www.w3.org/2000/svg">
<path d="M144.464 8.74023C145.75 6.82127 147.341 5.86279 149.234 5.86279C150.133 5.86279 150.957 6.0809 151.711 6.51912L150.837 12.4921C149.866 11.8118 148.774 11.4716 147.559 11.4716C146.345 11.4716 145.604 11.9578 145.192 12.9283C144.95 13.5346 144.792 14.1189 144.718 14.6772L144.026 23.6357H137.47L136.378 6.37305H143.551L144.462 8.74023H144.464Z" fill="white"/>
<path d="M120.771 23.9998C118.902 23.9998 117.36 23.4536 116.147 22.361C114.956 21.2685 114.362 19.7277 114.362 17.7367C114.362 15.7457 115.042 14.265 116.401 13.3665C117.76 12.4441 119.399 11.9818 121.318 11.9818C123.236 11.9818 124.899 12.286 126.306 12.8923C125.99 10.8773 124.715 9.86879 122.482 9.86879C121.462 9.86879 120.201 10.0749 118.694 10.4871L117.784 7.20947C119.969 6.31102 122.19 5.86279 124.449 5.86279C130.956 5.86279 134.21 8.63018 134.21 14.1669C134.21 16.0599 133.992 18.6832 133.554 22.0329L133.372 23.6357H127.363L127.144 21.6327C125.494 23.2115 123.369 23.9998 120.771 23.9998ZM124.049 19.4836C125.141 19.4836 126.076 19.1794 126.852 18.5731L126.634 16.1699C126.028 15.7577 125.348 15.5516 124.595 15.5516C123.843 15.5516 123.261 15.7337 122.774 16.0979C122.312 16.4621 122.082 16.9103 122.082 17.4446C122.082 17.9788 122.264 18.4531 122.628 18.8653C122.992 19.2775 123.467 19.4836 124.049 19.4836Z" fill="white"/>
<path d="M92.5942 14.6033C92.5942 12.9285 92.8244 11.4837 93.2866 10.2691C93.7728 9.05452 94.4031 8.14407 95.1795 7.53777C96.6123 6.42121 98.203 5.86293 99.9499 5.86293C100.824 5.86293 101.625 6.04502 102.353 6.4092C103.105 6.74937 103.628 7.10155 103.92 7.46573L104.356 7.97599L104.066 0H112.37L111.388 23.6358H105.925L105.307 21.2686C103.85 23.0655 102.053 23.964 99.9159 23.964C97.8028 23.988 96.056 23.1996 94.6713 21.5968C93.2866 19.994 92.5962 17.6628 92.5962 14.6053L92.5942 14.6033ZM102.281 10.7434C100.848 10.7434 100.132 12.2001 100.132 15.1136C100.132 15.6478 100.168 16.1581 100.242 16.6423C100.316 17.1266 100.534 17.6368 100.898 18.1711C101.263 18.7053 101.797 18.9715 102.501 18.9715C103.206 18.9715 103.74 18.5833 104.104 17.8069C104.492 17.0065 104.686 16.108 104.686 15.1116C104.686 12.1981 103.886 10.7414 102.283 10.7414L102.281 10.7434Z" fill="white"/>
<path d="M84.351 5.86279C86.0498 5.86279 87.5066 6.57915 88.7212 8.01187C89.9598 9.44458 90.5781 11.3135 90.5781 13.6207C90.5781 15.9278 90.298 19.2415 89.7397 23.6357H83.3665L82.6381 15.4776C82.396 12.8803 81.6917 11.5817 80.5251 11.5817C79.1404 11.5817 78.4 12.8923 78.304 15.5156L78.0498 23.6377H71.3485L70.5841 6.37505H78.8142L78.6681 9.4706C78.7902 9.22847 79.0683 8.85229 79.5066 8.34203C79.9428 7.83178 80.369 7.41957 80.7812 7.10341C81.8497 6.277 83.0383 5.86479 84.351 5.86479V5.86279Z" fill="white"/>
<path d="M54.9776 23.9998C53.1086 23.9998 51.5659 23.4536 50.3533 22.361C49.1647 21.2685 48.5684 19.7277 48.5684 17.7367C48.5684 15.7457 49.2487 14.265 50.6074 13.3665C51.9661 12.4441 53.6049 11.9818 55.5238 11.9818C57.4428 11.9818 59.1056 12.286 60.5123 12.8923C60.1962 10.8773 58.9215 9.86879 56.6884 9.86879C55.6679 9.86879 54.4073 10.0749 52.9005 10.4871L51.9901 7.20947C54.1752 6.31102 56.3963 5.86279 58.6554 5.86279C65.1627 5.86279 68.4163 8.63018 68.4163 14.1669C68.4163 16.0599 68.1982 18.6832 67.76 22.0329L67.5779 23.6357H61.5689L61.3507 21.6327C59.6999 23.2115 57.5749 23.9998 54.9776 23.9998ZM58.2552 19.4836C59.3477 19.4836 60.2822 19.1794 61.0586 18.5731L60.8405 16.1699C60.2342 15.7577 59.5538 15.5516 58.8015 15.5516C58.0491 15.5516 57.4668 15.7337 56.9806 16.0979C56.5183 16.4621 56.2882 16.9103 56.2882 17.4446C56.2882 17.9788 56.4703 18.4531 56.8345 18.8653C57.1987 19.2775 57.6729 19.4836 58.2552 19.4836Z" fill="white"/>
<path d="M46.0827 10.015C45.7905 8.87444 45.2082 7.90195 44.3338 7.10155C43.4594 6.27714 42.3308 5.86293 40.9461 5.86293C40.0717 5.86293 39.2593 5.98499 38.5069 6.22711C36.71 6.83342 35.4234 7.91396 34.647 9.46873L35.0111 0L26.3768 0.776388L27.3273 23.6358H34.0287L34.3928 15.2236C34.5149 12.7704 35.2913 11.5458 36.724 11.5458C37.3063 11.5458 37.7185 11.7879 37.9626 12.2741C38.2047 12.7604 38.3988 13.7309 38.5449 15.1876L39.3453 23.6358H45.7185C46.2768 19.2416 46.5569 16.1581 46.5569 14.3852C46.5569 12.6123 46.3988 11.1556 46.0827 10.015Z" fill="white"/>
<g clip-path="url(#clip0_803_13505)">
<path d="M24.6123 4.25466C24.6123 11.7694 21.6371 18.5909 16.7981 23.6119H6.4887L0 1.58866H9.38285L13.7443 15.7446C13.789 15.689 13.8328 15.6333 13.8767 15.5768C16.022 12.3273 17.2707 8.43655 17.2707 4.25466C17.2707 3.36599 17.214 2.49011 17.1049 1.63113L24.4242 1.00061C24.4469 1.19608 24.6123 3.35527 24.6123 4.25466Z" fill="white"/>
</g>
<defs>
<clipPath id="clip0_803_13505">
<rect width="24.6123" height="22.6113" fill="white" transform="translate(0 1.00061)"/>
</clipPath>
</defs>
</svg>
