<svg width="152" height="24" viewBox="0 0 152 24" fill="none" xmlns="http://www.w3.org/2000/svg">
<path d="M144.608 8.74023C145.895 6.82127 147.485 5.86279 149.378 5.86279C150.277 5.86279 151.101 6.0809 151.856 6.51912L150.981 12.4921C150.011 11.8118 148.918 11.4716 147.703 11.4716C146.489 11.4716 145.748 11.9578 145.336 12.9283C145.094 13.5346 144.936 14.1189 144.862 14.6772L144.17 23.6357H137.614L136.522 6.37305H143.695L144.606 8.74023H144.608Z" fill="#F5B237"/>
<path d="M120.915 23.9998C119.046 23.9998 117.504 23.4536 116.291 22.361C115.101 21.2685 114.506 19.7277 114.506 17.7367C114.506 15.7457 115.187 14.265 116.545 13.3665C117.904 12.4441 119.543 11.9818 121.462 11.9818C123.381 11.9818 125.043 12.286 126.45 12.8923C126.134 10.8773 124.859 9.86879 122.626 9.86879C121.606 9.86879 120.345 10.0749 118.838 10.4871L117.928 7.20947C120.113 6.31102 122.334 5.86279 124.593 5.86279C131.101 5.86279 134.354 8.63018 134.354 14.1669C134.354 16.0599 134.136 18.6832 133.698 22.0329L133.516 23.6357H127.507L127.289 21.6327C125.638 23.2115 123.513 23.9998 120.915 23.9998ZM124.193 19.4836C125.286 19.4836 126.22 19.1794 126.996 18.5731L126.778 16.1699C126.172 15.7577 125.492 15.5516 124.739 15.5516C123.987 15.5516 123.405 15.7337 122.918 16.0979C122.456 16.4621 122.226 16.9103 122.226 17.4446C122.226 17.9788 122.408 18.4531 122.772 18.8653C123.137 19.2775 123.611 19.4836 124.193 19.4836Z" fill="#F5B237"/>
<path d="M92.7383 14.6033C92.7383 12.9285 92.9684 11.4837 93.4306 10.2691C93.9169 9.05452 94.5472 8.14407 95.3236 7.53777C96.7563 6.42121 98.3471 5.86293 100.094 5.86293C100.968 5.86293 101.769 6.04502 102.497 6.4092C103.25 6.74937 103.772 7.10155 104.064 7.46573L104.5 7.97599L104.21 0H112.514L111.532 23.6358H106.069L105.451 21.2686C103.994 23.0655 102.197 23.964 100.06 23.964C97.9469 23.988 96.2 23.1996 94.8153 21.5968C93.4306 19.994 92.7403 17.6628 92.7403 14.6053L92.7383 14.6033ZM102.425 10.7434C100.992 10.7434 100.276 12.2001 100.276 15.1136C100.276 15.6478 100.312 16.1581 100.386 16.6423C100.46 17.1266 100.678 17.6368 101.042 18.1711C101.407 18.7053 101.941 18.9715 102.645 18.9715C103.35 18.9715 103.884 18.5833 104.248 17.8069C104.636 17.0065 104.83 16.108 104.83 15.1116C104.83 12.1981 104.03 10.7414 102.427 10.7414L102.425 10.7434Z" fill="#F5B237"/>
<path d="M84.4951 5.86279C86.194 5.86279 87.6507 6.57915 88.8653 8.01187C90.104 9.44458 90.7223 11.3135 90.7223 13.6207C90.7223 15.9278 90.4421 19.2415 89.8838 23.6357H83.5107L82.7823 15.4776C82.5402 12.8803 81.8358 11.5817 80.6692 11.5817C79.2845 11.5817 78.5442 12.8923 78.4481 15.5156L78.194 23.6377H71.4927L70.7283 6.37505H78.9584L78.8123 9.4706C78.9344 9.22847 79.2125 8.85229 79.6507 8.34203C80.0869 7.83178 80.5132 7.41957 80.9254 7.10341C81.9939 6.277 83.1825 5.86479 84.4951 5.86479V5.86279Z" fill="#F5B237"/>
<path d="M55.1217 23.9998C53.2528 23.9998 51.71 23.4536 50.4974 22.361C49.3088 21.2685 48.7125 19.7277 48.7125 17.7367C48.7125 15.7457 49.3929 14.265 50.7515 13.3665C52.1102 12.4441 53.749 11.9818 55.668 11.9818C57.587 11.9818 59.2498 12.286 60.6565 12.8923C60.3403 10.8773 59.0657 9.86879 56.8326 9.86879C55.8121 9.86879 54.5514 10.0749 53.0447 10.4871L52.1342 7.20947C54.3193 6.31102 56.5404 5.86279 58.7996 5.86279C65.3068 5.86279 68.5604 8.63018 68.5604 14.1669C68.5604 16.0599 68.3423 18.6832 67.9041 22.0329L67.722 23.6357H61.713L61.4949 21.6327C59.8441 23.2115 57.719 23.9998 55.1217 23.9998ZM58.3994 19.4836C59.4919 19.4836 60.4264 19.1794 61.2028 18.5731L60.9847 16.1699C60.3784 15.7577 59.698 15.5516 58.9456 15.5516C58.1933 15.5516 57.611 15.7337 57.1247 16.0979C56.6625 16.4621 56.4324 16.9103 56.4324 17.4446C56.4324 17.9788 56.6145 18.4531 56.9787 18.8653C57.3428 19.2775 57.8171 19.4836 58.3994 19.4836Z" fill="#F5B237"/>
<path d="M46.2268 10.015C45.9347 8.87444 45.3524 7.90195 44.478 7.10155C43.6035 6.27714 42.475 5.86293 41.0903 5.86293C40.2158 5.86293 39.4034 5.98499 38.6511 6.22711C36.8542 6.83342 35.5675 7.91396 34.7911 9.46873L35.1553 0L26.521 0.776388L27.4715 23.6358H34.1728L34.537 15.2236C34.6591 12.7704 35.4355 11.5458 36.8682 11.5458C37.4505 11.5458 37.8627 11.7879 38.1068 12.2741C38.3489 12.7604 38.543 13.7309 38.6891 15.1876L39.4895 23.6358H45.8627C46.4209 19.2416 46.7011 16.1581 46.7011 14.3852C46.7011 12.6123 46.543 11.1556 46.2268 10.015Z" fill="#F5B237"/>
<g clip-path="url(#clip0_17_8925)">
<path d="M24.7565 4.25466C24.7565 11.7694 21.7813 18.5909 16.9423 23.6119H6.63286L0.144165 1.58866H9.52702L13.8885 15.7446C13.9332 15.689 13.977 15.6333 14.0208 15.5768C16.1662 12.3273 17.4148 8.43655 17.4148 4.25466C17.4148 3.36599 17.3582 2.49011 17.249 1.63113L24.5684 1.00061C24.5911 1.19608 24.7565 3.35527 24.7565 4.25466Z" fill="#F5B237"/>
</g>
<defs>
<clipPath id="clip0_17_8925">
<rect width="24.6123" height="22.6113" fill="white" transform="translate(0.144165 1.00061)"/>
</clipPath>
</defs>
</svg>
