<svg width="40" height="40" viewBox="0 0 40 40" fill="none" xmlns="http://www.w3.org/2000/svg">
<path d="M30.1797 22.6307L35.0508 17.861C35.3389 17.4151 35.5325 16.9149 35.6198 16.3913C35.707 15.8677 35.6861 15.3317 35.5583 14.8165C35.3851 14.2829 35.0645 13.8092 34.6336 13.45C34.2026 13.0909 33.6788 12.8609 33.1227 12.7868L26.4248 11.772C26.2687 11.7706 26.1168 11.7211 25.9896 11.6303C25.8626 11.5395 25.7665 11.4119 25.7144 11.2646L22.6699 5.17566C22.4242 4.6866 22.0472 4.2755 21.5813 3.98823C21.1154 3.70095 20.5788 3.54883 20.0314 3.54883C19.4841 3.54883 18.9474 3.70095 18.4815 3.98823C18.0156 4.2755 17.6387 4.6866 17.3928 5.17566L14.3484 11.2646C14.2963 11.4119 14.2003 11.5395 14.0732 11.6303C13.9461 11.7211 13.7942 11.7706 13.638 11.772L6.94014 12.7868C6.38968 12.8762 5.87328 13.1117 5.44486 13.4687C5.01645 13.8257 4.69171 14.2912 4.50455 14.8165C4.31099 15.3377 4.27513 15.9043 4.40146 16.4457C4.52779 16.9871 4.8107 17.4793 5.21493 17.861L10.0861 22.6307C10.289 22.8516 10.3982 23.1428 10.3906 23.4425L9.27424 30.1404C9.18572 30.6956 9.25265 31.2644 9.4676 31.7839C9.68254 32.3033 10.0371 32.7532 10.492 33.0834C10.9432 33.4121 11.4785 33.6057 12.0356 33.6417C12.5926 33.6776 13.1484 33.5544 13.638 33.2864C15.1602 32.4745 16.7839 31.6627 18.3062 30.8508C18.7736 30.4721 19.3346 30.2267 19.9299 30.1404C20.2919 30.1323 20.6471 30.2388 20.9447 30.4449C23.8404 31.9049 26.1941 34.2515 27.6629 37.1427L28.2718 38.665C28.4748 39.1724 28.6777 39.8828 29.1851 39.9842C29.6926 40.0857 30.0985 39.6798 30.3015 39.1724C30.3488 38.6463 30.2431 38.1176 29.997 37.6501L29.3881 36.1279C28.8767 35.0897 28.2649 34.104 27.5614 33.1849C26.6343 31.987 25.5407 30.9277 24.314 30.0389C23.7351 29.5398 23.0853 29.1294 22.3858 28.8211C21.7183 28.3894 20.9475 28.1441 20.1532 28.1108H20.0517C19.2408 28.156 18.4472 28.363 17.7176 28.7196C16.5016 29.3014 15.3161 29.9451 14.1657 30.6478C13.6455 30.9587 13.1028 31.23 12.542 31.4597C12.3812 31.543 12.1997 31.5778 12.0195 31.5597C11.8393 31.5418 11.6683 31.4718 11.5272 31.3582C11.3926 31.2485 11.2857 31.1087 11.2152 30.95C11.1446 30.7913 11.1125 30.6183 11.1212 30.4449L12.2375 23.747C12.3156 23.2744 12.2829 22.7901 12.1421 22.3322C12.0012 21.8743 11.756 21.4554 11.4257 21.1084L6.5545 16.3387C6.42436 16.2084 6.33566 16.0426 6.29954 15.8621C6.26343 15.6814 6.28151 15.4943 6.35154 15.3239C6.42937 15.1455 6.55684 14.9933 6.71877 14.8853C6.88072 14.7774 7.07028 14.7183 7.26488 14.715L13.9628 13.7002C14.4469 13.6567 14.9102 13.4826 15.3033 13.1967C15.6964 12.9108 16.0047 12.5237 16.1953 12.0765L19.2398 5.98752C19.3309 5.84067 19.4579 5.71948 19.6088 5.63544C19.7598 5.5514 19.9297 5.50728 20.1024 5.50728C20.2752 5.50728 20.4451 5.5514 20.5961 5.63544C20.747 5.71948 20.8741 5.84067 20.965 5.98752L24.0095 12.0765C24.213 12.5146 24.5247 12.8936 24.9155 13.1777C25.3061 13.4618 25.7627 13.6416 26.2421 13.7002L32.94 14.715C33.1102 14.7546 33.2703 14.8292 33.4101 14.934C33.5498 15.0388 33.6663 15.1717 33.7519 15.3239C33.9548 15.6284 33.7519 16.0343 33.5489 16.3387L28.6777 21.1084C28.3277 21.4419 28.0692 21.8596 27.9271 22.3217C27.7849 22.7837 27.7639 23.2745 27.8659 23.747V24.1529C27.8659 24.2544 27.9673 24.4574 27.9673 24.5589C27.9912 24.7299 28.0251 24.8993 28.0688 25.0663C28.0688 25.2692 28.1703 25.4722 28.1703 25.6752C28.1703 25.8781 28.2718 26.0811 28.2718 26.2841C28.2718 26.487 28.3733 26.69 28.3733 26.893C28.3733 27.0959 28.4748 27.2989 28.4748 27.5019C28.4748 27.7048 28.5762 27.8063 28.5762 28.0093C28.5762 28.2122 28.6777 28.3137 28.6777 28.5167C28.6777 28.7196 28.7792 28.8211 28.7792 29.0241C28.7792 29.2271 28.8807 29.1256 28.8807 29.2271L29.1851 29.5315C29.3848 29.6254 29.6082 29.6562 29.8257 29.62C30.0433 29.5837 30.2446 29.4821 30.4029 29.3285C30.5044 29.2271 30.6059 29.1256 30.6059 29.0241C30.6566 28.7218 30.6566 28.4131 30.6059 28.1108C30.6059 28.0093 30.5044 27.8063 30.5044 27.7048C30.5044 27.6033 30.4029 27.2989 30.4029 27.0959C30.4029 26.893 30.3015 26.69 30.3015 26.487C30.3015 26.2841 30.2 26.0811 30.2 25.7766C30.2 25.4722 30.0985 25.3707 30.0985 25.0663C30.0985 24.7618 29.997 24.6603 29.997 24.4574C29.997 24.2544 29.8955 24.1529 29.8955 23.95C29.9107 23.807 29.8748 23.6632 29.794 23.544V23.3411C29.7972 23.2005 29.8337 23.0627 29.9008 22.9392C29.9679 22.8156 30.0635 22.7098 30.1797 22.6307Z" fill="#A90B0B"/>
<path d="M9.07128 8.11863C8.26842 8.11863 7.4836 7.88056 6.81604 7.43451C6.1485 6.98846 5.62821 6.35449 5.32096 5.61275C5.01372 4.871 4.93333 4.05481 5.08996 3.26738C5.24659 2.47996 5.63321 1.75665 6.20091 1.18894C6.76862 0.621242 7.49192 0.23463 8.27934 0.0780004C9.06678 -0.0786291 9.88297 0.00175879 10.6247 0.308999C11.3665 0.616238 12.0004 1.13653 12.4465 1.80408C12.8925 2.47163 13.1306 3.25646 13.1306 4.05931C13.1306 5.13591 12.7029 6.16841 11.9416 6.92969C11.1804 7.69095 10.1479 8.11863 9.07128 8.11863ZM9.07128 2.02966C8.66985 2.02966 8.27744 2.1487 7.94366 2.37171C7.60988 2.59474 7.34974 2.91173 7.19612 3.2826C7.0425 3.65347 7.0023 4.06157 7.08062 4.45528C7.15893 4.84899 7.35224 5.21065 7.63609 5.4945C7.91994 5.77835 8.2816 5.97166 8.67531 6.04997C9.06902 6.12828 9.47713 6.0881 9.848 5.93447C10.2189 5.78086 10.5359 5.52071 10.7589 5.18693C10.9819 4.85315 11.1009 4.46074 11.1009 4.05931C11.1009 3.52102 10.8871 3.00476 10.5065 2.62413C10.1258 2.2435 9.60958 2.02966 9.07128 2.02966Z" fill="#A90B0B"/>
</svg>
