<svg width="40" height="40" viewBox="0 0 40 40" fill="none" xmlns="http://www.w3.org/2000/svg">
<path d="M36.6476 13.5206C36.4479 13.0348 36.1082 12.621 35.6727 12.3331C35.2372 12.0451 34.7262 11.8964 34.2059 11.9063H25.5942C25.4843 11.9095 25.3754 11.885 25.2772 11.8354C25.1788 11.7856 25.0942 11.7121 25.0307 11.6214C24.9671 11.5247 24.9256 11.4148 24.9093 11.2998C24.8931 11.1848 24.9025 11.0676 24.9368 10.9568L27.0968 3.36018C27.2772 2.77853 27.2434 2.15056 27.0018 1.59211C26.7601 1.03365 26.3269 0.582387 25.782 0.321565C25.2598 0.0254214 24.6495 -0.0703927 24.0629 0.0516983C23.4764 0.17379 22.9531 0.5056 22.589 0.986266L10.0706 16.0844C9.76284 16.4637 9.56484 16.9216 9.49854 17.4076C9.43224 17.8936 9.50024 18.3887 9.69499 18.8382C9.90066 19.2926 10.2314 19.6776 10.6478 19.9471C11.0642 20.2164 11.5485 20.359 12.0428 20.3575H15.8931C16.2688 20.3575 16.4566 20.5474 16.4566 20.6423C16.5244 20.7371 16.5684 20.8471 16.5847 20.9629C16.601 21.0787 16.5893 21.1968 16.5505 21.307L12.6062 30.3279C12.5316 30.4393 12.4983 30.5738 12.5123 30.7077C12.5123 30.9596 12.6113 31.201 12.7874 31.3792C12.9635 31.5572 13.2024 31.6573 13.4514 31.6573C13.6316 31.6543 13.807 31.5989 13.9568 31.4979C14.1067 31.3969 14.2246 31.2544 14.2966 31.0876L18.147 22.0667C18.3257 21.6741 18.4027 21.2421 18.3706 20.8112C18.3385 20.3802 18.1984 19.9647 17.9635 19.6037C17.7285 19.2427 17.4066 18.9481 17.028 18.7477C16.6493 18.5473 16.2265 18.4477 15.7992 18.4583H11.9489C11.8181 18.4489 11.6912 18.4099 11.5774 18.3442C11.4636 18.2784 11.3658 18.1876 11.2915 18.0785C11.2168 17.9607 11.1854 17.8202 11.2025 17.6815C11.2197 17.5427 11.2844 17.4144 11.3854 17.3188L24.0634 2.22069C24.172 2.11119 24.3091 2.03518 24.4588 2.00154C24.6084 1.96792 24.7645 1.97806 24.9087 2.03079C25.0513 2.11617 25.1641 2.24433 25.2314 2.39747C25.2987 2.55061 25.3172 2.72114 25.2843 2.8854L23.1243 10.482C23.0212 10.8667 23.0014 11.2695 23.0662 11.6628C23.1311 12.0562 23.279 12.4307 23.5 12.7609C23.7358 13.0903 24.0467 13.3573 24.4064 13.5391C24.7662 13.7209 25.164 13.8123 25.566 13.8055H34.2059C34.3528 13.7958 34.4985 13.8378 34.6183 13.9243C34.7381 14.0108 34.8246 14.1366 34.8633 14.2802C34.9171 14.4104 34.9278 14.5547 34.894 14.6915C34.8601 14.8284 34.7835 14.9505 34.6755 15.0399C33.9242 15.7995 33.1729 16.4642 32.5155 17.2239C30.919 18.7432 29.4164 20.3575 27.8199 21.8768L20.2131 29.2834C18.6166 30.8027 17.114 32.417 15.6114 33.9363L11.1976 38.3992C11.0255 38.5767 10.9291 38.8153 10.9291 39.0639C10.9291 39.3124 11.0255 39.551 11.1976 39.7286C11.3731 39.9026 11.6091 40 11.855 40C12.1008 40 12.3368 39.9026 12.5123 39.7286C14.2027 38.1144 15.7992 36.4051 17.4896 34.7909C20.0252 32.227 22.6548 29.6632 25.1904 27.1943C26.1295 26.2448 27.0686 25.2952 28.1016 24.3456C29.6981 22.8263 31.2946 21.2121 32.7972 19.6928C33.7363 18.7432 34.7694 17.7936 35.7085 16.7491C35.8024 16.6542 35.9902 16.3693 36.0841 16.3693C36.4454 16.0035 36.6917 15.5379 36.7919 15.0311C36.8922 14.5242 36.842 13.9986 36.6476 13.5206Z" fill="#A90B0B"/>
<path d="M4.05941 17.8953C3.86232 17.8745 3.67209 17.8058 3.50289 17.6944C3.32098 17.5234 3.2021 17.2871 3.16803 17.029C3.13396 16.7707 3.18698 16.5079 3.31738 16.2886L11.016 5.64465C11.1688 5.45048 11.3801 5.32088 11.6125 5.27864C11.8449 5.2364 12.0836 5.28422 12.2867 5.4137C12.4686 5.5847 12.5875 5.82096 12.6216 6.07915C12.6556 6.33735 12.6026 6.60019 12.4723 6.8195L4.77362 17.4635C4.69814 17.5951 4.593 17.7038 4.46806 17.7793C4.34313 17.8548 4.2025 17.8947 4.05941 17.8953Z" fill="#A90B0B"/>
</svg>
