<svg width="40" height="40" viewBox="0 0 40 40" fill="none" xmlns="http://www.w3.org/2000/svg">
<g clip-path="url(#clip0_376_651)">
<mask id="mask0_376_651" style="mask-type:luminance" maskUnits="userSpaceOnUse" x="0" y="0" width="40" height="40">
<path d="M40 0.21582H0V39.7834H40V0.21582Z" fill="white"/>
</mask>
<g mask="url(#mask0_376_651)">
<path d="M29.6218 19.0277C29.6218 18.6214 29.5012 18.2243 29.2756 17.8865C29.0499 17.5488 28.7291 17.2854 28.3538 17.13C27.9784 16.9745 27.5655 16.9339 27.167 17.0131C26.7685 17.0923 26.4025 17.288 26.1153 17.5753C25.8281 17.8625 25.6324 18.2286 25.5531 18.6269C25.4739 19.0254 25.5145 19.4384 25.67 19.8137C25.8255 20.1891 26.0887 20.5099 26.4265 20.7356C26.7643 20.9613 27.1615 21.0817 27.5677 21.0817C28.1041 21.0556 28.6114 20.8307 28.9911 20.451C29.3708 20.0714 29.5955 19.564 29.6218 19.0277Z" fill="#A90B0B"/>
<path d="M20.9731 19.0277C20.9731 18.6214 20.8526 18.2243 20.6269 17.8865C20.4012 17.5488 20.0805 17.2854 19.7051 17.13C19.3298 16.9745 18.9168 16.9339 18.5183 17.0131C18.1198 17.0923 17.7539 17.288 17.4666 17.5753C17.1794 17.8625 16.9837 18.2286 16.9045 18.6269C16.8252 19.0254 16.8659 19.4384 17.0213 19.8137C17.1768 20.1891 17.44 20.5099 17.7779 20.7356C18.1156 20.9613 18.5128 21.0817 18.9191 21.0817C19.4554 21.0556 19.9627 20.8307 20.3424 20.451C20.7221 20.0714 20.9468 19.564 20.9731 19.0277Z" fill="#A90B0B"/>
<path d="M33.5135 7.02734H6.48649C4.76616 7.02734 3.1163 7.71074 1.89985 8.92719C0.683396 10.1436 0 11.7935 0 13.5138V25.2976C0 27.0179 0.683396 28.6678 1.89985 29.8842C3.1163 31.1008 4.76616 31.7841 6.48649 31.7841H7.13513V38.703C7.11757 38.9146 7.17211 39.1259 7.28987 39.3026C7.40764 39.4792 7.58172 39.6108 7.78378 39.676C7.91063 39.762 8.06383 39.8003 8.21622 39.7841C8.35829 39.7879 8.49951 39.7609 8.63015 39.7049C8.76079 39.649 8.87775 39.5653 8.97297 39.4598L16.4324 32.0003C16.5379 31.9051 16.6216 31.7881 16.6776 31.6575C16.7335 31.5268 16.7605 31.3856 16.7568 31.2436C16.7663 31.0991 16.7449 30.9543 16.6939 30.8188C16.643 30.6834 16.5637 30.5602 16.4613 30.4579C16.3589 30.3556 16.2359 30.2762 16.1004 30.2253C15.965 30.1744 15.8201 30.153 15.6757 30.1625C15.3434 30.193 15.0346 30.3474 14.8108 30.5949L9.2973 36.1084V30.703C9.30685 30.5586 9.28544 30.4137 9.23449 30.2783C9.18353 30.1428 9.10423 30.0197 9.00187 29.9174C8.89951 29.815 8.77646 29.7357 8.64097 29.6848C8.50547 29.6338 8.36066 29.6124 8.21622 29.6219H6.48649C5.3396 29.6219 4.2397 29.1664 3.42872 28.3554C2.61776 27.5444 2.16216 26.4445 2.16216 25.2976V13.5138C2.16216 12.3669 2.61776 11.267 3.42872 10.4561C4.2397 9.64511 5.3396 9.18951 6.48649 9.18951H33.5135C34.6604 9.18951 35.7603 9.64511 36.5712 10.4561C37.3823 11.267 37.8378 12.3669 37.8378 13.5138V25.2976C37.8378 26.4445 37.3823 27.5444 36.5712 28.3554C35.7603 29.1664 34.6604 29.6219 33.5135 29.6219H21.4054C21.1187 29.6219 20.8437 29.7359 20.641 29.9386C20.4383 30.1413 20.3243 30.4163 20.3243 30.703C20.3243 30.9897 20.4383 31.2648 20.641 31.4675C20.8437 31.6702 21.1187 31.7841 21.4054 31.7841H33.5135C35.2338 31.7841 36.8837 31.1008 38.1001 29.8842C39.3166 28.6678 40 27.0179 40 25.2976V13.5138C40 11.7935 39.3166 10.1436 38.1001 8.92719C36.8837 7.71074 35.2338 7.02734 33.5135 7.02734Z" fill="#A90B0B"/>
<path d="M6.054 2.37923H22.7027C22.8471 2.38878 22.9919 2.36737 23.1274 2.31641C23.2629 2.26546 23.3859 2.18616 23.4883 2.0838C23.5907 1.98144 23.6699 1.85839 23.721 1.72289C23.7719 1.5874 23.7933 1.44259 23.7838 1.29814C23.7933 1.1537 23.7719 1.00888 23.721 0.873388C23.6699 0.737893 23.5907 0.614846 23.4883 0.512487C23.3859 0.410127 23.2629 0.330818 23.1274 0.279868C22.9919 0.228919 22.8471 0.207505 22.7027 0.21706H6.054C5.90956 0.207505 5.76475 0.228919 5.62924 0.279868C5.49375 0.330818 5.3707 0.410127 5.26835 0.512487C5.16599 0.614846 5.08668 0.737893 5.03573 0.873388C4.98478 1.00888 4.96336 1.1537 4.97292 1.29814C4.97292 1.58486 5.08682 1.85984 5.28956 2.06258C5.4923 2.26532 5.76728 2.37923 6.054 2.37923Z" fill="#A90B0B"/>
</g>
</g>
<defs>
<clipPath id="clip0_376_651">
<rect width="40" height="40" fill="white"/>
</clipPath>
</defs>
</svg>
