<svg width="40" height="40" viewBox="0 0 40 40" fill="none" xmlns="http://www.w3.org/2000/svg">
<mask id="mask0_376_666" style="mask-type:luminance" maskUnits="userSpaceOnUse" x="0" y="4" width="40" height="32">
<path d="M39.9999 4.60742H0V35.3933H39.9999V4.60742Z" fill="white"/>
</mask>
<g mask="url(#mask0_376_666)">
<path d="M4.44455 12.4125L18.9702 22.277L29.7019 16.3149C29.8298 16.2585 29.9441 16.1752 30.037 16.0707C30.13 15.9662 30.1994 15.843 30.2405 15.7093C30.2815 15.5757 30.2935 15.4348 30.2754 15.2961C30.2573 15.1575 30.2096 15.0243 30.1355 14.9057C30.0791 14.7778 29.9958 14.6635 29.8913 14.5706C29.7868 14.4777 29.6636 14.4083 29.5299 14.3672C29.3962 14.3261 29.2553 14.3142 29.1167 14.3323C28.978 14.3504 28.8449 14.3981 28.7263 14.4721L19.0786 19.7838L5.52856 10.6781C5.39674 10.6262 5.27831 10.5453 5.18205 10.4414C5.08581 10.3375 5.01418 10.2132 4.97253 10.0779C4.93087 9.94248 4.92024 9.79946 4.94144 9.65942C4.96263 9.51936 5.01511 9.38589 5.09495 9.26889C5.42016 8.51009 6.50416 8.40168 7.58817 8.40168H29.2683C29.5558 8.40168 29.8316 8.28747 30.0348 8.08418C30.2381 7.88089 30.3523 7.60517 30.3523 7.31768C30.3619 7.17284 30.3404 7.02763 30.2894 6.89177C30.2383 6.75591 30.1587 6.63253 30.0561 6.5299C29.9535 6.42725 29.8301 6.34773 29.6942 6.29664C29.5584 6.24556 29.4131 6.22409 29.2683 6.23367H6.82937C5.63696 6.34207 3.79414 6.55887 3.14374 8.40168C2.82503 9.11257 2.78165 9.91647 3.02199 10.6575C3.26233 11.3986 3.76928 12.024 4.44455 12.4125Z" fill="#A90B0B"/>
<path d="M36.7478 14.5801C36.489 14.5801 36.2409 14.6829 36.0579 14.8659C35.8749 15.0488 35.7722 15.297 35.7722 15.5557V28.1302C35.781 28.816 35.6523 29.4965 35.394 30.1317C35.1355 30.767 34.7526 31.344 34.2677 31.829C33.7827 32.3138 33.2057 32.6968 32.5704 32.9551C31.9352 33.2136 31.2547 33.3422 30.5689 33.3335H7.26277C6.57705 33.3422 5.89652 33.2136 5.26129 32.9551C4.62607 32.6968 4.04898 32.3138 3.56406 31.829C3.07915 31.344 2.69621 30.767 2.43781 30.1317C2.17943 29.4965 2.0508 28.816 2.05953 28.1302V13.9297C2.05953 13.8016 2.0343 13.6747 1.98527 13.5564C1.93625 13.438 1.86438 13.3305 1.77379 13.2399C1.6832 13.1493 1.57564 13.0774 1.45728 13.0284C1.33892 12.9794 1.21205 12.9541 1.08393 12.9541C0.814265 12.9528 0.553778 13.052 0.353335 13.2324C0.152893 13.4128 0.0268864 13.6614 -7.71045e-05 13.9297V28.2386C-0.0102343 29.1809 0.167884 30.1159 0.523833 30.9885C0.879781 31.861 1.40639 32.6539 2.07278 33.3202C2.73916 33.9866 3.53191 34.5132 4.40452 34.8692C5.27712 35.2252 6.21202 35.4033 7.15437 35.3931H30.5689C31.5168 35.4046 32.4575 35.2281 33.3367 34.8739C34.216 34.5198 35.0164 33.995 35.6917 33.3298C36.367 32.6645 36.9038 31.8721 37.2711 30.9983C37.6384 30.1245 37.829 29.1865 37.8318 28.2386V15.5557C37.8293 15.419 37.7988 15.2842 37.742 15.1597C37.6852 15.0353 37.6035 14.9238 37.5018 14.8323C37.4001 14.7408 37.2808 14.6712 37.151 14.6278C37.0213 14.5845 36.884 14.5682 36.7478 14.5801Z" fill="#A90B0B"/>
<path d="M35.8804 4.60742C35.0658 4.60742 34.2694 4.84901 33.592 5.30164C32.9146 5.75426 32.3866 6.3976 32.0748 7.15029C31.763 7.90298 31.6814 8.73123 31.8404 9.53027C31.9993 10.3293 32.3916 11.0633 32.9677 11.6394C33.5438 12.2155 34.2778 12.6078 35.0768 12.7667C35.8759 12.9257 36.7042 12.8441 37.4568 12.5323C38.2095 12.2206 38.8529 11.6926 39.3055 11.0152C39.7581 10.3378 39.9998 9.54136 39.9998 8.72665C39.9998 7.63417 39.5657 6.58642 38.7933 5.81391C38.0207 5.04141 36.973 4.60742 35.8804 4.60742ZM35.8804 10.7863C35.3427 10.76 34.834 10.5346 34.4533 10.1539C34.0726 9.77315 33.8471 9.26441 33.8209 8.72665C33.8471 8.1889 34.0726 7.68015 34.4533 7.29945C34.834 6.91874 35.3427 6.69331 35.8804 6.66704C36.1534 6.65799 36.4252 6.70506 36.6792 6.80537C36.9332 6.90567 37.1639 7.05705 37.3569 7.25014C37.5501 7.44323 37.7014 7.67391 37.8017 7.92789C37.9021 8.18186 37.9491 8.45373 37.9401 8.72665C37.9138 9.26441 37.6883 9.77315 37.3076 10.1539C36.9269 10.5346 36.4182 10.76 35.8804 10.7863Z" fill="#A90B0B"/>
</g>
</svg>
