<svg width="40" height="40" viewBox="0 0 40 40" fill="none" xmlns="http://www.w3.org/2000/svg">
<path d="M40 20.0341C40 14.7207 37.8928 9.62497 34.1422 5.86786C30.3914 2.11073 25.3043 0 20 0C14.6957 0 9.60859 2.11073 5.85787 5.86786C2.10714 9.62497 0 14.7207 0 20.0341C0.00425288 22.9646 0.634292 25.8603 1.84783 28.5268C3.03635 31.1248 4.78039 33.4294 6.95652 35.2774C9.12622 37.1625 11.6885 38.5387 14.4565 39.306C15.3855 39.5498 16.3296 39.7316 17.2826 39.8504C17.7479 39.9407 18.2221 39.9773 18.6957 39.9593C19.4565 39.9593 20.9783 40.286 20.9783 39.0883C20.9797 38.9735 20.9583 38.8595 20.915 38.7532C20.8718 38.6469 20.8078 38.5503 20.7268 38.4691C20.6458 38.3879 20.5493 38.3238 20.4432 38.2806C20.3371 38.2373 20.2233 38.2158 20.1087 38.2172C16.5186 38.2172 13.009 37.1508 10.0239 35.1528C7.03878 33.1548 4.71217 30.315 3.33827 26.9925C1.96438 23.67 1.6049 20.014 2.30532 16.4868C3.00572 12.9596 4.73454 9.71964 7.27317 7.17669C9.81179 4.63373 13.0462 2.90196 16.5674 2.20036C20.0886 1.49876 23.7384 1.85885 27.0552 3.23508C30.3721 4.61133 33.2071 6.9419 35.2016 9.9321C37.1963 12.9223 38.2609 16.4379 38.2609 20.0341C38.2284 23.8147 37.0536 27.4968 34.8913 30.5956C33.9662 32.1399 32.6549 33.416 31.087 34.2975C29.7787 34.9419 28.2964 35.1417 26.8647 34.8665C25.4329 34.5915 24.1297 33.8566 23.1522 32.7732C22.3608 31.9109 21.7999 30.8622 21.5217 29.7245C21.3751 28.6787 21.3387 27.6204 21.413 26.567C22.2748 26.3682 23.0442 25.8837 23.5967 25.192C24.1491 24.5003 24.4522 23.642 24.4565 22.7561C24.4565 20.6874 23.0435 19.9252 21.7391 19.2719L19.6739 18.4009C18.913 18.0742 18.4783 17.7476 18.4783 16.8765C18.4783 15.57 19.6739 15.2433 20.5435 15.2433C21.3851 15.2741 22.2221 15.3836 23.0435 15.57C23.1435 15.6284 23.2546 15.6656 23.3696 15.6789C23.4841 15.6803 23.5979 15.6588 23.704 15.6155C23.8102 15.5723 23.9066 15.5081 23.9877 15.427C24.0687 15.3458 24.1327 15.2492 24.1759 15.1428C24.2191 15.0366 24.2405 14.9226 24.2391 14.8078C24.23 14.5976 24.1497 14.3968 24.0114 14.2385C23.873 14.0801 23.685 13.9737 23.4783 13.9368C22.7788 13.6661 22.0487 13.4832 21.3043 13.3924V10.1259C21.3164 10.0034 21.3029 9.87967 21.2649 9.76258C21.227 9.64548 21.1651 9.53753 21.0835 9.44549C21.0018 9.35346 20.9021 9.27935 20.7904 9.2278C20.6788 9.17627 20.5577 9.14842 20.4348 9.146C20.1753 9.146 19.9265 9.24924 19.743 9.43301C19.5596 9.61679 19.4565 9.86604 19.4565 10.1259V13.5012C18.6178 13.6452 17.8514 14.0667 17.28 14.6983C16.7086 15.3299 16.3651 16.1352 16.3043 16.9854C16.2863 17.6879 16.4854 18.379 16.8746 18.9637C17.2638 19.5485 17.8239 19.9984 18.4783 20.2519L20.6522 21.2318C21.0952 21.3452 21.4912 21.5957 21.7839 21.9475C22.0766 22.2994 22.2511 22.7347 22.2826 23.1916C22.2826 24.3893 21.5217 25.0426 20.2174 25.0426C19.3911 25.0302 18.5765 24.8448 17.8261 24.4982C17.6472 24.4513 17.4658 24.4149 17.2826 24.3893C17.1659 24.3794 17.0485 24.3951 16.9385 24.4354C16.8285 24.4757 16.7286 24.5395 16.6458 24.6224C16.5629 24.7054 16.4992 24.8055 16.459 24.9157C16.4188 25.0259 16.4032 25.1434 16.413 25.2604C16.398 25.4448 16.4428 25.6292 16.5408 25.7861C16.6386 25.943 16.7845 26.0641 16.9565 26.1314C17.7975 26.4509 18.673 26.6702 19.5652 26.7847C19.4187 28.6074 19.7171 30.4385 20.4348 32.1199C21.1851 33.5222 22.2675 34.7185 23.587 35.6041C23.9972 35.8983 24.4338 36.1534 24.8913 36.3662C26.5835 37.0499 28.4467 37.1865 30.2203 36.757C31.9939 36.3276 33.589 35.3533 34.7826 33.9709C37.0391 31.485 38.6777 28.5006 39.5652 25.2604C39.8135 23.5285 39.9587 21.7833 40 20.0341Z" fill="#A90B0B"/>
</svg>
