<svg width="74" height="73" viewBox="0 0 74 73" fill="none" xmlns="http://www.w3.org/2000/svg">
<path d="M51.3761 12.3638L49.2372 14.5026C48.3694 15.3704 46.97 15.3704 46.1022 14.5026L44.2139 12.6143C43.3461 11.7465 41.9467 11.7465 41.0789 12.6143L39.2822 14.411C38.4144 15.2788 37.015 15.2788 36.1472 14.411L34.0817 12.3454C33.2139 11.4776 31.8144 11.4776 30.9467 12.3454L29.4006 13.8915C28.5328 14.7593 27.1333 14.7593 26.2656 13.8915L24.5544 12.1804C23.6867 11.3126 22.2872 11.3126 21.4194 12.1804L19.9406 13.6593C19.0728 14.5271 17.6733 14.5271 16.8056 13.6593L15.0944 11.9482C14.2267 11.0804 12.8272 11.0804 11.9594 11.9482L10.12 13.7876C9.25222 14.6554 7.85278 14.6554 6.985 13.7876L5.18833 11.991C4.32056 11.1232 2.92111 11.1232 2.05333 11.991L0.647778 13.3965C0.232222 13.8121 0 14.3743 0 14.961V63.7949C0 68.7082 3.98444 72.6926 8.89778 72.6926H53.0628V11.7282C52.4578 11.6976 51.8406 11.9054 51.3822 12.3638H51.3761ZM38.4939 40.096C38.1761 42.1799 37.5467 44.1599 36.6483 45.9871C35.4261 48.4682 33.715 50.6682 31.6372 52.4526H24.8722L24.2122 50.2099L22.9717 45.9871L21.2422 40.096H17.3983L17.1906 39.3993L15.4978 33.6304H25.96L26.6078 35.8365L27.8606 40.096L29.59 45.9871L29.6144 46.0665C29.6144 46.0665 29.6572 46.0176 29.6756 45.9871C31.0261 44.2943 31.9978 42.2899 32.4744 40.096C32.6883 39.106 32.8044 38.0732 32.8044 37.016C32.8044 35.8549 32.67 34.7243 32.4072 33.6426L32.45 33.6243L37.9806 31.5343C38.17 32.2188 38.3289 32.9154 38.445 33.6243C38.6283 34.7243 38.7261 35.861 38.7261 37.0099C38.7261 38.0549 38.6467 39.0815 38.4939 40.0899V40.096Z" fill="#096A47"/>
<path d="M65.3458 13.5002L64.2703 12.4247C63.4025 11.5569 62.0031 11.5569 61.1353 12.4247L59.4242 14.1358C58.5564 15.0036 57.1569 15.0036 56.2892 14.1358L54.5169 12.3636C54.1136 11.9603 53.5942 11.7525 53.0625 11.728V72.6925H57.1019C62.0153 72.6925 65.9997 68.708 65.9997 63.7947V15.0708C65.9997 14.4841 65.7675 13.9219 65.3519 13.5064L65.3458 13.5002Z" fill="#3B9171"/>
<path d="M37.9808 31.5405L32.4503 33.6305L32.4075 33.6489C32.6642 34.7305 32.8047 35.8611 32.8047 37.0222C32.8047 38.0794 32.6886 39.1061 32.4747 40.1022C31.998 42.29 31.0264 44.2944 29.6758 45.9933C29.6575 46.0178 29.633 46.0483 29.6147 46.0727L29.5903 45.9933L27.8608 40.1022L26.608 35.8427L25.9603 33.6366H15.498L17.1908 39.4055L17.3986 40.1022H21.2425L22.9719 45.9933L24.2125 50.2161L24.8725 52.4589H31.6375C33.7153 50.6744 35.4264 48.4744 36.6486 45.9933C37.5469 44.1661 38.1825 42.1861 38.4942 40.1022C38.6469 39.1 38.7264 38.0733 38.7264 37.0222C38.7264 35.8672 38.6286 34.7366 38.4453 33.6366C38.3292 32.9277 38.1703 32.2311 37.9808 31.5466V31.5405Z" fill="#F29F05"/>
<rect x="46" y="0.307617" width="28" height="28" rx="14" fill="#F29F05"/>
<path d="M60 19.3076C58.9601 19.3045 58.0653 19.1049 57.3156 18.7088C56.57 18.3128 55.9956 17.7392 55.5926 16.988C55.1935 16.2367 54.996 15.3331 55.0001 14.277C55.0001 13.224 55.1996 12.3266 55.5986 11.5848C56.0017 10.8431 56.576 10.2789 57.3217 9.89225C58.0714 9.50249 58.9641 9.30762 60 9.30762C61.0359 9.30762 61.9266 9.50249 62.6723 9.89225C63.422 10.282 63.9983 10.8478 64.4014 11.5896C64.8045 12.3282 65.004 13.224 64.9999 14.277C64.9999 15.3362 64.7984 16.2415 64.3954 16.9927C63.9963 17.7439 63.424 18.3175 62.6783 18.7136C61.9327 19.1096 61.0399 19.3076 60 19.3076ZM60 17.615C60.7094 17.615 61.2757 17.3368 61.6989 16.7805C62.1221 16.2242 62.3317 15.3897 62.3277 14.277C62.3277 13.5446 62.2309 12.9348 62.0375 12.4476C61.848 11.9605 61.578 11.5943 61.2273 11.3491C60.8807 11.1039 60.4716 10.9814 60 10.9814C59.2946 10.9814 58.7304 11.2564 58.3072 11.8064C57.8839 12.3565 57.6703 13.18 57.6663 14.277C57.6663 15.0188 57.761 15.638 57.9504 16.1346C58.1439 16.6281 58.416 16.999 58.7666 17.2473C59.1173 17.4924 59.5284 17.615 60 17.615Z" fill="white"/>
</svg>
