<svg width="24" height="24" viewBox="0 0 24 24" fill="none" xmlns="http://www.w3.org/2000/svg">
<path d="M18.9922 15.0625H9.20312L8.76562 13.3125H18.9922C19.1745 13.3125 19.3385 13.2533 19.4844 13.1348C19.6302 13.0163 19.7305 12.875 19.7852 12.7109L22.4102 4.83594C22.5013 4.6901 22.5286 4.55338 22.4922 4.42578C22.4557 4.29818 22.401 4.17057 22.3281 4.04297C22.237 3.95182 22.1276 3.86979 22 3.79688C21.8724 3.72396 21.7448 3.6875 21.6172 3.6875H10.2422C9.98698 3.6875 9.77734 3.76953 9.61328 3.93359C9.44922 4.09766 9.36719 4.30729 9.36719 4.5625C9.36719 4.81771 9.44922 5.02734 9.61328 5.19141C9.77734 5.35547 9.98698 5.4375 10.2422 5.4375H20.3867L18.3906 11.5625H8.21875L5.70312 1.9375H2.36719C2.11198 1.9375 1.90234 2.01953 1.73828 2.18359C1.57422 2.34766 1.49219 2.55729 1.49219 2.8125C1.49219 3.06771 1.57422 3.27734 1.73828 3.44141C1.90234 3.60547 2.11198 3.6875 2.36719 3.6875H4.28125L7.34375 15.3359C6.6875 15.5911 6.14518 16.0059 5.7168 16.5801C5.28841 17.1543 5.07422 17.8151 5.07422 18.5625C5.07422 19.5286 5.41602 20.3535 6.09961 21.0371C6.7832 21.7207 7.60807 22.0625 8.57422 22.0625C9.54036 22.0625 10.3652 21.7207 11.0488 21.0371C11.7324 20.3535 12.0742 19.5286 12.0742 18.5625C12.0742 18.2526 12.0332 17.9473 11.9512 17.6465C11.8691 17.3457 11.737 17.0677 11.5547 16.8125H15.8477C15.7201 17.0677 15.6016 17.3457 15.4922 17.6465C15.3828 17.9473 15.3281 18.2526 15.3281 18.5625C15.3281 19.5286 15.6699 20.3535 16.3535 21.0371C17.0371 21.7207 17.862 22.0625 18.8281 22.0625C19.776 22.0625 20.5964 21.7207 21.2891 21.0371C21.9818 20.3535 22.3281 19.5286 22.3281 18.5625C22.3281 17.5964 22.0137 16.7715 21.3848 16.0879C20.7559 15.4043 19.9583 15.0625 18.9922 15.0625ZM10.4062 18.5625C10.4062 19.0365 10.2376 19.4466 9.90039 19.793C9.56315 20.1393 9.14844 20.3125 8.65625 20.3125C8.18229 20.3125 7.77214 20.1393 7.42578 19.793C7.07943 19.4466 6.90625 19.0365 6.90625 18.5625C6.90625 18.0885 7.07943 17.6784 7.42578 17.332C7.77214 16.9857 8.18229 16.8125 8.65625 16.8125C9.14844 16.8125 9.56315 16.9857 9.90039 17.332C10.2376 17.6784 10.4062 18.0885 10.4062 18.5625ZM18.9922 20.3125C18.5182 20.3125 18.1081 20.1393 17.7617 19.793C17.4154 19.4466 17.2422 19.0365 17.2422 18.5625C17.2422 18.0885 17.4154 17.6784 17.7617 17.332C18.1081 16.9857 18.5182 16.8125 18.9922 16.8125C19.4661 16.8125 19.8763 16.9857 20.2227 17.332C20.569 17.6784 20.7422 18.0885 20.7422 18.5625C20.7422 19.0365 20.569 19.4466 20.2227 19.793C19.8763 20.1393 19.4661 20.3125 18.9922 20.3125Z" fill="white"/>
</svg>
