<svg width="37" height="36" viewBox="0 0 37 36" fill="none" xmlns="http://www.w3.org/2000/svg">
<g clip-path="url(#clip0_446_7954)">
<path d="M18.3547 11.3887C14.0253 11.3887 10.5029 14.9108 10.5029 19.2404C10.5029 22.121 12.1025 24.7781 14.6196 26.1513V27.7737C14.6196 28.2255 14.9858 28.5916 15.4375 28.5916H21.2448C21.6965 28.5916 22.0627 28.2255 22.0627 27.7737V26.1535C24.5965 24.7857 26.2064 22.1276 26.2064 19.2405C26.2064 14.9108 22.684 11.3887 18.3547 11.3887ZM20.9056 24.9029C20.614 25.0357 20.4267 25.3266 20.4267 25.6472V26.9558H16.2554V25.6472C16.2554 25.3279 16.0695 25.0376 15.7797 24.9043C13.5679 23.8855 12.1387 21.6622 12.1387 19.2404C12.1387 15.8129 14.9271 13.0245 18.3547 13.0245C21.7822 13.0245 24.5706 15.8129 24.5706 19.2404C24.5706 21.666 23.132 23.8887 20.9056 24.9029Z" fill="#F29F05"/>
<path d="M20.6189 29.6816H16.0933C15.6416 29.6816 15.2754 30.0478 15.2754 30.4995C15.2754 30.9513 15.6415 31.3174 16.0933 31.3174H20.6189C21.0707 31.3174 21.4368 30.9513 21.4368 30.4995C21.4368 30.0478 21.0707 29.6816 20.6189 29.6816Z" fill="#F29F05"/>
<path fill-rule="evenodd" clip-rule="evenodd" d="M17.9259 4.5H19.0741V7.94444H17.9259V4.5ZM34 17.1296V18.2778H30.5556V17.1296H34ZM6.44444 18.2778V17.1296H3V18.2778H6.44444ZM28.1438 6.7963L29.0323 7.52342L26.851 10.1891L25.9624 9.46197L28.1438 6.7963ZM8.40446 6.86909L7.59259 7.68095L10.0282 10.1165L10.8401 9.30468L8.40446 6.86909Z" fill="#F29F05"/>
<path d="M20.5 18.3102C20.5 18.5603 20.483 18.806 20.4503 19.046C20.3821 19.5442 20.246 20.0175 20.0526 20.454C19.7899 21.0477 19.4212 21.5731 18.9741 22H17.5178L17.3761 21.4644L17.1088 20.454L16.7362 19.046H15.9091L15.8649 18.8793L15.5 17.5001H17.7517L17.8914 18.0281L18.1608 19.046L18.5334 20.454L18.5383 20.4726C18.5428 20.4665 18.5473 20.4602 18.5516 20.454C18.8417 20.0488 19.0513 19.5696 19.1539 19.046C19.2003 18.8089 19.2247 18.5627 19.2247 18.3102C19.2247 18.0325 19.1951 17.7626 19.1393 17.504L19.1486 17.5001L20.3393 17C20.3803 17.1634 20.4139 17.3302 20.4396 17.5001C20.4793 17.7635 20.5 18.0342 20.5 18.3102Z" fill="#F29F05"/>
</g>
<defs>
<clipPath id="clip0_446_7954">
<rect width="31" height="27" fill="white" transform="translate(3 4.5)"/>
</clipPath>
</defs>
</svg>
