<svg width="37" height="36" viewBox="0 0 37 36" fill="none" xmlns="http://www.w3.org/2000/svg">
<path d="M19.1659 23.7787C19.3816 23.5493 19.6821 23.42 19.9957 23.42H28.1715C30.8934 23.42 33.0999 21.2134 33.0999 18.4916V10.32C33.0999 7.59815 30.8933 5.3916 28.1715 5.3916H8.82827C6.10634 5.3916 3.8999 7.59814 3.8999 10.32V18.4916C3.8999 21.2135 6.10644 23.42 8.82827 23.42H11.6043C12.2334 23.42 12.7434 23.93 12.7434 24.5591V30.6075L19.1659 23.7787ZM19.1659 23.7787C19.1658 23.7788 19.166 23.7786 19.1659 23.7787Z" stroke="#F29F05" stroke-width="1.8"/>
<path d="M22.7754 10.7795C21.8093 9.74016 20.2431 9.74016 19.277 10.7795L18.7312 11.3667C18.6011 11.5066 18.3901 11.5066 18.26 11.3667L17.723 10.7889C16.757 9.74953 15.1907 9.74953 14.2246 10.7889C13.2585 11.8283 13.2585 13.5135 14.2246 14.5529L18.2603 18.895C18.3904 19.035 18.6014 19.035 18.7316 18.895L22.7754 14.5435C23.7415 13.5041 23.7415 11.819 22.7754 10.7795Z" fill="#F29F05"/>
</svg>
