<svg width="37" height="36" viewBox="0 0 37 36" fill="none" xmlns="http://www.w3.org/2000/svg">
<g clip-path="url(#clip0_446_7906)">
<path d="M20.2227 11.463L24.2412 13.7593L25.9634 18.3519L29.4078 15.4815H34.0004L32.2782 10.8889L34.0004 6.87037H28.8338L25.3893 4L24.2412 8.59259L20.2227 11.463Z" fill="#F29F05"/>
<path d="M15.8055 11.3564L6.62036 14.8009" stroke="#F29F05"/>
<path d="M21.5458 18.2451L12.3606 21.6896" stroke="#F29F05"/>
<path d="M8.92702 22.834L3.18628 25.1303" stroke="#F29F05"/>
<path d="M18.0838 14.8076L14.6394 15.9558" stroke="#F29F05"/>
<path fill-rule="evenodd" clip-rule="evenodd" d="M6.73297 6.94811C6.99523 7.06467 7.10575 7.37759 6.97488 7.63301L6.33908 8.87392C6.21316 9.11968 6.31031 9.42098 6.55607 9.54691C6.80184 9.67283 7.10314 9.57568 7.22906 9.32991L7.91532 7.99054C8.03635 7.75433 8.32084 7.65384 8.56338 7.76163L9.85407 8.33528C10.1064 8.44743 10.4019 8.33379 10.5141 8.08145C10.6262 7.8291 10.5125 7.53362 10.2602 7.42147L9.07063 6.89276C8.80837 6.7762 8.69784 6.46328 8.82871 6.20786L9.58289 4.73592C9.70881 4.49016 9.61166 4.18885 9.3659 4.06293C9.12014 3.93701 8.81883 4.03416 8.69291 4.27992L7.88828 5.85033C7.76725 6.08654 7.48275 6.18703 7.24022 6.07924L6.00691 5.53109C5.75457 5.41894 5.45908 5.53258 5.34693 5.78493C5.23478 6.03727 5.34842 6.33275 5.60076 6.4449L6.73297 6.94811Z" fill="#F29F05"/>
<path fill-rule="evenodd" clip-rule="evenodd" d="M12.4732 28.7635C12.7355 28.8801 12.846 29.193 12.7151 29.4484L12.0793 30.6893C11.9534 30.9351 12.0505 31.2364 12.2963 31.3623C12.5421 31.4883 12.8434 31.3911 12.9693 31.1453L13.6556 29.806C13.7766 29.5698 14.0611 29.4693 14.3036 29.5771L15.5943 30.1507C15.8466 30.2629 16.1421 30.1492 16.2543 29.8969C16.3664 29.6445 16.2528 29.3491 16.0004 29.2369L14.8109 28.7082C14.5486 28.5916 14.4381 28.2787 14.5689 28.0233L15.3231 26.5513C15.449 26.3056 15.3519 26.0043 15.1061 25.8784C14.8604 25.7524 14.5591 25.8496 14.4331 26.0953L13.6285 27.6658C13.5075 27.902 13.223 28.0025 12.9804 27.8947L11.7471 27.3465C11.4948 27.2344 11.1993 27.348 11.0872 27.6004C10.975 27.8527 11.0887 28.1482 11.341 28.2603L12.4732 28.7635Z" fill="#F29F05"/>
<path fill-rule="evenodd" clip-rule="evenodd" d="M25.0533 24.1346C25.3155 24.2512 25.4261 24.5641 25.2952 24.8195L24.6594 26.0604C24.5335 26.3062 24.6306 26.6075 24.8764 26.7334C25.1221 26.8593 25.4235 26.7622 25.5494 26.5164L26.2356 25.1771C26.3567 24.9409 26.6412 24.8404 26.8837 24.9482L28.1744 25.5218C28.4267 25.634 28.7222 25.5203 28.8344 25.268C28.9465 25.0156 28.8329 24.7201 28.5805 24.608L27.3909 24.0793C27.1287 23.9627 27.0182 23.6498 27.149 23.3944L27.9032 21.9224C28.0291 21.6767 27.932 21.3754 27.6862 21.2495C27.4404 21.1235 27.1391 21.2207 27.0132 21.4664L26.2086 23.0369C26.0876 23.2731 25.8031 23.3736 25.5605 23.2658L24.3272 22.7176C24.0749 22.6055 23.7794 22.7191 23.6672 22.9714C23.5551 23.2238 23.6687 23.5193 23.9211 23.6314L25.0533 24.1346Z" fill="#F29F05"/>
<path d="M11.1953 17.1045L4.3064 19.4008" stroke="#F29F05"/>
</g>
<defs>
<clipPath id="clip0_446_7906">
<rect width="31" height="28" fill="white" transform="translate(3 4)"/>
</clipPath>
</defs>
</svg>
