<svg width="24" height="24" viewBox="0 0 24 24" fill="none" xmlns="http://www.w3.org/2000/svg">
<g clip-path="url(#clip0_332_683)">
<path d="M11.9998 0C10.3484 0.00639704 8.73941 0.5237 7.3937 1.48092C6.048 2.43813 5.0315 3.78835 4.48371 5.34626C3.93592 6.90418 3.88368 8.59345 4.33417 10.1822C4.78465 11.771 5.71578 13.1815 6.99977 14.22V23C6.99977 23.1857 7.05149 23.3678 7.14912 23.5257C7.24676 23.6837 7.38645 23.8114 7.55256 23.8944C7.71867 23.9775 7.90462 24.0126 8.08958 23.996C8.27454 23.9793 8.4512 23.9114 8.59977 23.8L11.9998 21.25C15.5498 23.91 15.7098 24.25 16.4498 23.89C17.1898 23.53 16.9998 23.48 16.9998 14.22C18.2838 13.1815 19.2149 11.771 19.6654 10.1822C20.1159 8.59345 20.0636 6.90418 19.5158 5.34626C18.968 3.78835 17.9515 2.43813 16.6058 1.48092C15.2601 0.5237 13.6512 0.00639704 11.9998 0ZM5.99977 8C5.99835 6.73551 6.39645 5.50289 7.13725 4.47812C7.87806 3.45336 8.92368 2.68883 10.1249 2.29369C11.326 1.89856 12.6213 1.89301 13.8258 2.27785C15.0303 2.66269 16.0825 3.41824 16.832 4.43663C17.5816 5.45502 17.9902 6.68418 17.9996 7.94864C18.009 9.21309 17.6187 10.4482 16.8843 11.4776C16.15 12.507 15.1092 13.2781 13.9106 13.6808C12.7119 14.0835 11.4167 14.0972 10.2098 13.72C8.99053 13.3389 7.92473 12.5786 7.16752 11.5498C6.41031 10.521 6.00121 9.27742 5.99977 8ZM14.9998 21C11.4398 18.33 12.5498 18.34 8.99977 21V15.42C10.9285 16.175 13.071 16.175 14.9998 15.42V21Z" fill="white"/>
<path d="M9.99988 9.08001L9.69987 10.91C9.68508 11.002 9.6963 11.0964 9.73227 11.1824C9.76824 11.2683 9.82753 11.3426 9.90344 11.3966C9.97936 11.4507 10.0689 11.4825 10.1619 11.4884C10.2549 11.4943 10.3477 11.4741 10.4299 11.43L11.9999 10.58L13.5699 11.43C13.652 11.4741 13.7448 11.4943 13.8379 11.4884C13.9309 11.4825 14.0204 11.4507 14.0963 11.3966C14.1722 11.3426 14.2315 11.2683 14.2675 11.1824C14.3035 11.0964 14.3147 11.002 14.2999 10.91L13.9999 9.08001L15.2999 7.78001C15.3664 7.71329 15.4127 7.62914 15.4334 7.53725C15.4542 7.44537 15.4486 7.34949 15.4172 7.26066C15.3859 7.17183 15.33 7.09366 15.2562 7.03516C15.1824 6.97667 15.0935 6.94022 14.9999 6.93001L13.2199 6.66001L12.4499 5.00001C12.4089 4.91548 12.345 4.84418 12.2654 4.7943C12.1858 4.74441 12.0938 4.71796 11.9999 4.71796C11.9059 4.71796 11.8139 4.74441 11.7343 4.7943C11.6547 4.84418 11.5908 4.91548 11.5499 5.00001L10.7599 6.64001L8.99988 6.93001C8.90789 6.94338 8.82145 6.98212 8.75026 7.04189C8.67908 7.10166 8.62596 7.18009 8.59688 7.26838C8.5678 7.35666 8.5639 7.45131 8.58563 7.54168C8.60735 7.63206 8.65384 7.71459 8.71988 7.78001L9.99988 9.08001Z" fill="white"/>
</g>
<defs>
<clipPath id="clip0_332_683">
<rect width="24" height="24" fill="white"/>
</clipPath>
</defs>
</svg>
