<?xml version="1.0" encoding="UTF-8"?>
<svg id="Layer_2" data-name="Layer 2" xmlns="http://www.w3.org/2000/svg" viewBox="0 0 137.14 137.14">
  <defs>
    <style>
      .cls-1 {
        fill: none;
      }

      .cls-1, .cls-2 {
        stroke-width: 0px;
      }

      .cls-2 {
        fill: #fff;
      }
    </style>
  </defs>
  <g id="Layer_1-2" data-name="Layer 1">
    <g>
      <rect class="cls-1" width="137.14" height="137.14"/>
      <g>
        <path class="cls-2" d="M106.99,75.05c0-3.35-.04-6.69,0-10.04.05-4.07-.33-8.1-1.2-12.07-1.74-7.98-5.22-15.06-11.11-20.83-3.39-3.31-7.3-5.86-11.71-7.63-5.27-2.12-10.73-3-16.4-2.64-2.68.17-5.33.61-7.9,1.36-4.25,1.25-8.19,3.16-11.75,5.82-5.49,4.1-9.45,9.39-12.14,15.65-1.39,3.25-2.34,6.64-2.95,10.13-.63,3.6-.86,7.21-.83,10.86.04,6.01.04,12.02,0,18.02-.03,3.52.37,6.98,1.48,10.31,2.24,6.73,6.24,12.09,12.55,15.54,3.57,1.95,7.43,2.79,11.5,2.73,2.74-.04,5.49-.02,8.23,0,2.15,0,3.74.99,4.5,3.01,1.05,2.77-.79,5.68-3.56,6.02-1.27.15-2.57.09-3.86.08-2.47,0-4.95.02-7.42-.08-3.17-.13-6.24-.83-9.23-1.89-5.04-1.78-9.41-4.6-13.13-8.43-3.42-3.51-5.99-7.56-7.62-12.19-.45-1.29-.8-2.61-1.16-3.93-.15-.56-.43-.74-1.01-.75-5.19-.02-9.63-1.79-13.02-5.82-1.77-2.11-2.92-4.55-3.61-7.22-.64-2.47-.81-4.99-.47-7.48.91-6.62,4.14-11.61,10.5-14.22,1.84-.75,3.78-1.12,5.76-1.2.51-.02.68-.17.78-.7.51-2.88,1-5.77,1.66-8.61,1.06-4.53,2.83-8.79,5.13-12.83,4.03-7.1,9.5-12.8,16.53-16.97,3.28-1.94,6.75-3.43,10.41-4.5,5.14-1.5,10.36-2.12,15.7-1.82,3.39.19,6.73.72,10,1.66,9.26,2.68,16.96,7.74,23.03,15.25,3.27,4.05,5.83,8.53,7.61,13.41.97,2.66,1.72,5.41,2.41,8.16.51,2.03.77,4.12,1.11,6.19.07.43.29.47.62.52,3.7.55,7.01,1.98,9.79,4.52,2.94,2.69,4.81,5.98,5.58,9.9,1.57,8-2.44,15.95-9.65,19.52-2.37,1.18-4.89,1.83-7.55,1.86-1.04.01-2.08.02-3.12,0-2.47-.04-4.47-2.04-4.48-4.5-.02-4.72,0-9.44,0-14.16h0Z"/>
        <circle class="cls-2" cx="50.8" cy="75.74" r="4.87"/>
        <circle class="cls-2" cx="69.01" cy="75.74" r="4.87"/>
        <circle class="cls-2" cx="87.22" cy="75.74" r="4.87"/>
      </g>
    </g>
  </g>
</svg>