<svg width="11" height="12" viewBox="0 0 11 12" fill="none" xmlns="http://www.w3.org/2000/svg">
<g id="Timer ICon" clip-path="url(#clip0_927_2780)">
<path id="Vector" d="M5.98746 1.90719V1.28725H6.82451C7.09471 1.28725 7.31198 1.07334 7.31198 0.810374C7.31198 0.54741 7.09471 0.333496 6.82451 0.333496H4.17409C3.90529 0.333496 3.68663 0.54741 3.68663 0.810374C3.68663 1.07334 3.90529 1.28725 4.17409 1.28725H5.01253V1.90719C2.48329 2.14836 0.5 4.2398 0.5 6.77543C0.5 9.47319 2.74234 11.6668 5.5 11.6668C8.25766 11.6668 10.5 9.47319 10.5 6.77543C10.5 4.2398 8.51671 2.14836 5.98746 1.90719ZM5.5 10.5768C3.35376 10.5768 1.61421 8.87505 1.61421 6.77543C1.61421 4.83794 3.0961 3.23972 5.01253 3.00537C5.1727 2.98493 5.33426 2.97403 5.5 2.97403C5.66574 2.97403 5.8273 2.98493 5.98746 3.00537C7.90251 3.23972 9.38579 4.83794 9.38579 6.77543C9.38579 8.87505 7.64624 10.5768 5.5 10.5768Z" fill="#1E1E1E"/>
<path id="Vector_2" d="M8.84819 6.77547H5.5V3.5C5.66574 3.5 5.8273 3.51226 5.98747 3.53406C7.60585 3.76569 8.84819 5.1282 8.84819 6.77547Z" fill="#51B348"/>
</g>
<defs>
<clipPath id="clip0_927_2780">
<rect width="10" height="11.3333" fill="white" transform="translate(0.5 0.333496)"/>
</clipPath>
</defs>
</svg>
