<svg width="18" height="18" viewBox="0 0 13 13" fill="none" xmlns="http://www.w3.org/2000/svg">
<path d="M6.5 2C4.27778 2 2.5 3.6632 2.5 5.7422C2.5 8.32017 4.01111 10.6071 6.27778 11.9376C6.41111 12.0208 6.58889 12.0208 6.76667 11.9376C8.98889 10.5655 10.5 8.32017 10.5 5.7422C10.5 3.6632 8.72222 2 6.5 2ZM6.5 7.40541C5.52222 7.40541 4.72222 6.65696 4.72222 5.7422C4.72222 4.82744 5.52222 4.079 6.5 4.079C7.47778 4.079 8.27778 4.82744 8.27778 5.7422C8.27778 6.65696 7.47778 7.40541 6.5 7.40541Z" fill="#ffffff35"/>
</svg>
