<svg width="80" height="28" viewBox="0 0 80 28" fill="none" xmlns="http://www.w3.org/2000/svg">
<path d="M6.85742 6.85707H9.65107L8.25425 3.30151L6.85742 6.85707Z" fill="#2FABF7"/>
<path d="M41.5238 3.8096C41.2698 3.68262 40.8889 3.68262 40.5079 3.68262H37.9683V5.71436H40.5079C40.8889 5.71436 41.2698 5.71436 41.5238 5.58738C41.7778 5.46039 41.9048 5.07944 41.9048 4.69849C42.0318 4.19055 41.7778 3.93659 41.5238 3.8096Z" fill="#228FE0"/>
<path d="M68.6984 0V1.52381L67.9365 0H61.9682V1.52381L61.2063 0H53.0793C51.6825 0 50.5396 0.253969 49.5238 0.761905V0H43.8095V0.761905C43.1746 0.253969 42.4127 0 41.3968 0H20.9524L19.5555 3.1746L18.1587 0H11.6825V1.52381L10.9206 0H5.46031L2.92063 5.96825L0 12.5714H6.47619L7.23809 10.5397H9.01587L9.77777 12.5714H17.1428V11.0476L17.7778 12.5714H21.4603L22.0952 11.0476V12.5714H39.746V9.26983H40C40.2539 9.26983 40.2539 9.26984 40.2539 9.65079V12.4444H49.3968V11.6825C50.1587 12.0635 51.3015 12.4444 52.8254 12.4444H56.6349L57.3968 10.4127H59.1746L59.9365 12.4444H67.3015V10.5397L68.4444 12.4444H74.4126V0H68.6984ZM25.7778 10.6667H23.619V3.68254L20.5714 10.6667H18.6667L15.619 3.68254V10.6667H11.3016L10.4127 8.7619H6.09523L5.33333 10.7936H2.92063L6.73015 1.77778H9.90475L13.4603 10.2857V1.77778H16.8889L19.6825 7.87301L22.2222 1.77778H25.7778V10.6667ZM34.4127 3.68254H29.4603V5.33333H34.2857V7.11111H29.4603V8.88888H34.4127V10.7936H27.3016V1.77778H34.4127V3.68254ZM43.9365 7.36507C44.1904 7.87301 44.3174 8.25396 44.3174 9.01587V10.7936H42.1587V9.65079C42.1587 9.14285 42.1587 8.38094 41.7777 7.87301C41.3968 7.49206 41.0158 7.49206 40.2539 7.49206H37.9682V10.7936H35.8095V1.77778H40.6349C41.7777 1.77778 42.5396 1.77778 43.1746 2.15873C43.8095 2.53968 44.1904 3.1746 44.1904 4.19047C44.1904 5.5873 43.3016 6.3492 42.6666 6.60317C43.3016 6.73015 43.6825 7.11111 43.9365 7.36507ZM47.746 10.6667H45.5873V1.65079H47.746V10.6667ZM72.7618 10.6667H69.7142L65.6507 3.93651V10.6667H61.3333L60.5714 8.7619H56.1269L55.365 10.7936H52.9523C51.9365 10.7936 50.6666 10.5397 49.9047 9.77777C49.1428 9.01587 48.7619 7.99999 48.7619 6.3492C48.7619 5.07936 49.0158 3.80952 49.9047 2.79365C50.5396 2.03174 51.6825 1.77778 53.0793 1.77778H55.1111V3.68254H53.0793C52.3174 3.68254 51.9365 3.80952 51.4285 4.19047C51.0476 4.57142 50.7936 5.33333 50.7936 6.22222C50.7936 7.23809 50.9206 7.87301 51.4285 8.38095C51.8095 8.7619 52.3174 8.88888 52.9523 8.88888H53.8412L56.7619 1.90476H59.9365L63.492 10.4127V1.90476H66.6666L70.3492 8.12698V1.90476H72.5079V10.6667H72.7618Z" fill="#0571C1"/>
<path d="M56.8886 6.85707H59.8093L58.4124 3.30151L56.8886 6.85707ZM35.3013 25.1428V17.9047L31.9998 21.4602L35.3013 25.1428Z" fill="#228FE0"/>
<path d="M21.7141 18.7937V20.4445H26.4125V22.2223H21.7141V24.127H26.9205L29.3332 21.4604L27.0474 18.7937H21.7141Z" fill="#2FABF7"/>
<path d="M40.1271 18.7937H37.4604V21.0794H40.2541C41.016 21.0794 41.5239 20.6985 41.5239 19.9366C41.397 19.1747 40.889 18.7937 40.1271 18.7937Z" fill="#228FE0"/>
<path d="M79.3649 20.9523V15.238H74.0315C72.8887 15.238 71.9998 15.492 71.3649 15.9999V15.238H65.5236C64.6347 15.238 63.4919 15.492 62.9839 15.9999V15.238H52.6982V15.9999C51.9363 15.365 50.5395 15.238 49.9046 15.238H43.0474V15.9999C42.4125 15.365 40.8887 15.238 40.1268 15.238H32.5078L30.73 17.1428L29.0792 15.238H17.6506V27.6825H28.8252L30.603 25.7777L32.2538 27.6825H39.1109V24.7618H39.9998C40.8887 24.7618 42.0316 24.7618 42.9205 24.3809V27.8095H48.6347V24.5079H48.8887C49.2697 24.5079 49.2697 24.5079 49.2697 24.8888V27.8095H66.5395C67.6823 27.8095 68.8252 27.5555 69.4601 27.0476V27.8095H74.9204C76.0633 27.8095 77.2061 27.6825 77.9681 27.1745C79.2379 26.4126 79.9998 25.0158 79.9998 23.365C79.9998 22.4761 79.7458 21.5872 79.3649 20.9523ZM39.9998 22.9841H37.4601V26.0317H33.3967L30.857 23.111L28.1903 26.0317H19.8094V17.0158H28.3173L30.857 19.9364L33.5236 17.0158H40.2538C41.9046 17.0158 43.8093 17.5238 43.8093 19.9364C43.6824 22.4761 41.9046 22.9841 39.9998 22.9841ZM52.6982 22.4761C52.9522 22.8571 53.0792 23.365 53.0792 24.1269V25.9047H50.9205V24.7618C50.9205 24.2539 50.9205 23.365 50.5395 22.9841C50.2855 22.6031 49.7776 22.6031 49.0157 22.6031H46.73V25.9047H44.5712V16.8888H49.3966C50.4125 16.8888 51.3014 16.8888 51.9363 17.2698C52.5712 17.6507 53.0792 18.2857 53.0792 19.3015C53.0792 20.6984 52.1903 21.4603 51.5554 21.7142C52.1903 21.9682 52.5712 22.2222 52.6982 22.4761ZM61.4601 18.7936H56.5078V20.4444H61.3331V22.2222H56.5078V23.9999H61.4601V25.9047H54.349V16.8888H61.4601V18.7936ZM66.7935 25.9047H62.73V23.9999H66.7935C67.1744 23.9999 67.4284 23.9999 67.6823 23.746C67.8093 23.619 67.9363 23.365 67.9363 23.111C67.9363 22.8571 67.8093 22.6031 67.6823 22.4761C67.5554 22.3491 67.3014 22.2222 66.9204 22.2222C64.8887 22.0952 62.476 22.2222 62.476 19.4285C62.476 18.1587 63.2379 16.7618 65.5236 16.7618H69.7141V18.9206H65.7776C65.3966 18.9206 65.1427 18.9206 64.8887 19.0476C64.6347 19.1745 64.6347 19.4285 64.6347 19.6825C64.6347 20.0634 64.8887 20.1904 65.1427 20.3174C65.3966 20.4444 65.6506 20.4444 65.9046 20.4444H67.0474C68.1903 20.4444 68.9522 20.6984 69.4601 21.2063C69.8411 21.5872 70.095 22.2222 70.095 23.111C70.095 25.0158 68.9522 25.9047 66.7935 25.9047ZM77.7141 25.0158C77.2062 25.5237 76.3173 25.9047 75.0474 25.9047H70.9839V23.9999H75.0474C75.4284 23.9999 75.6823 23.9999 75.9363 23.746C76.0633 23.619 76.1903 23.365 76.1903 23.111C76.1903 22.8571 76.0633 22.6031 75.9363 22.4761C75.8093 22.3491 75.5554 22.2222 75.1744 22.2222C73.1427 22.0952 70.73 22.2222 70.73 19.4285C70.73 18.1587 71.4919 16.7618 73.7776 16.7618H77.9681V18.9206H74.1585C73.7776 18.9206 73.5236 18.9206 73.2696 19.0476C73.0157 19.1745 73.0157 19.4285 73.0157 19.6825C73.0157 20.0634 73.1427 20.1904 73.5236 20.3174C73.7776 20.4444 74.0315 20.4444 74.2855 20.4444H75.4284C76.5712 20.4444 77.3331 20.6984 77.8411 21.2063C77.9681 21.2063 77.9681 21.3333 77.9681 21.3333C78.349 21.8412 78.476 22.4761 78.476 23.111C78.476 23.873 78.222 24.5079 77.7141 25.0158Z" fill="#0571C1"/>
<path d="M50.4122 19.0476C50.1583 18.9207 49.7773 18.9207 49.3964 18.9207H46.8567V20.9524H49.3964C49.7773 20.9524 50.1583 20.9524 50.4122 20.8254C50.6662 20.6984 50.7932 20.3175 50.7932 19.9365C50.9202 19.4286 50.6662 19.1746 50.4122 19.0476Z" fill="#228FE0"/>
<path d="M41.5236 3.80945C41.2696 3.68247 40.8886 3.68246 40.5077 3.68246H37.968V5.71421H40.5077C40.8886 5.71421 41.2696 5.71421 41.5236 5.58723C41.7775 5.46024 41.9045 5.07929 41.9045 4.69834C42.0315 4.1904 41.7775 3.93643 41.5236 3.80945ZM56.8886 6.85707H59.8093L58.4124 3.30151L56.8886 6.85707ZM35.3013 25.1428V17.9047L31.9998 21.4602L35.3013 25.1428ZM40.1267 18.7936H37.4601V21.0793H40.2537C41.0156 21.0793 41.5236 20.6983 41.5236 19.9364C41.3966 19.1745 40.8886 18.7936 40.1267 18.7936ZM50.4124 19.0475C50.1585 18.9205 49.7775 18.9205 49.3966 18.9205H46.8569V20.9523H49.3966C49.7775 20.9523 50.1585 20.9523 50.4124 20.8253C50.6664 20.6983 50.7934 20.3174 50.7934 19.9364C50.9204 19.4285 50.6664 19.1745 50.4124 19.0475Z" fill="#228FE0"/>
<path d="M39.2379 25.6507L37.4601 23.746V25.9047H33.2697L30.73 22.9841L27.9363 25.9047H19.5554V17.0158H28.0633L30.73 19.9364L31.9998 18.4126L28.8252 15.238H17.6506V27.6825H28.8252L30.73 25.7777L32.3808 27.6825H39.2379V25.6507Z" fill="#2FABF7"/>
<path d="M26.0317 12.4444L24.3809 10.6667H23.619V9.90475L21.7143 7.99999L20.4444 10.6667H18.6667L15.619 3.68254V10.6667H11.3016L10.4127 8.7619H6.09523L5.20635 10.6667H2.92063L6.73015 1.77778H9.90476L13.4603 10.2857V1.77778H15.3651L13.5873 0H11.6825V1.52381L11.0476 0H5.46031L2.92063 5.96825L0 12.4444H6.60317L7.36507 10.5397H9.14285L10.0317 12.4444H17.1428V10.9206L17.7778 12.4444H21.4603L22.0952 10.9206V12.4444H26.0317Z" fill="#2FABF7"/>
<path d="M20.1907 6.60352L18.1589 4.57178L19.6827 7.87336L20.1907 6.60352Z" fill="#2FABF7"/>
<path d="M77.9683 27.0474C79.1111 26.2855 79.8731 25.0157 80 23.6188L78.2223 21.8411C78.3492 22.222 78.4762 22.603 78.4762 23.1109C78.4762 23.8728 78.2223 24.5077 77.7143 25.0157C77.2064 25.5236 76.3175 25.9045 75.0477 25.9045H70.9842V23.9998H75.0477C75.4286 23.9998 75.6826 23.9998 75.9365 23.7458C76.0635 23.6188 76.1905 23.3649 76.1905 23.1109C76.1905 22.8569 76.0635 22.603 75.9365 22.476C75.8096 22.349 75.5556 22.222 75.1746 22.222C73.1429 22.095 70.7302 22.222 70.7302 19.4284C70.7302 18.1585 71.4921 17.0157 73.3969 16.7617L72 15.3649C71.7461 15.4919 71.6191 15.6188 71.4921 15.6188V14.8569H65.6508C64.762 14.8569 63.6191 15.1109 63.1112 15.6188V14.8569H52.6985V15.6188C51.9366 14.9839 50.5397 14.8569 49.9048 14.8569H43.0477V15.6188C42.4128 14.9839 40.889 14.8569 40.1271 14.8569H32.508L30.7302 16.7617L29.0794 14.8569H27.6826L31.4921 18.6665L33.3969 16.6347H40.1271C41.7778 16.6347 43.6826 17.1426 43.6826 19.5553C43.6826 22.095 41.9048 22.603 40.0001 22.603H37.4604V24.5077L39.3651 26.4125V24.5077H40.0001C40.889 24.5077 42.0318 24.5077 42.9207 24.1268V27.5553H48.635V24.2538H48.889C49.2699 24.2538 49.2699 24.2538 49.2699 24.6347V27.5553H66.5397C67.6826 27.5553 68.8254 27.3014 69.4604 26.7934V27.5553H74.9207C75.9365 27.6823 77.0794 27.5553 77.9683 27.0474ZM52.6985 22.476C52.9524 22.8569 53.0794 23.3649 53.0794 24.1268V25.9045H50.9207V24.7617C50.9207 24.2538 50.9207 23.3649 50.5397 22.9839C50.2858 22.603 49.7778 22.603 49.0159 22.603H46.7302V25.9045H44.5715V16.8887H49.3969C50.4128 16.8887 51.3016 16.8887 51.9366 17.2696C52.5715 17.6506 53.0794 18.2855 53.0794 19.3014C53.0794 20.6982 52.1905 21.4601 51.5556 21.7141C52.1905 21.968 52.5715 22.222 52.6985 22.476ZM61.4604 18.7934H56.508V20.4442H61.3334V22.222H56.508V23.9998H61.4604V25.9045H54.3493V16.8887H61.4604V18.7934ZM66.7937 25.9045H62.7302V23.9998H66.7937C67.1746 23.9998 67.4286 23.9998 67.6826 23.7458C67.8096 23.6188 67.9366 23.3649 67.9366 23.1109C67.9366 22.8569 67.8096 22.603 67.6826 22.476C67.5556 22.349 67.3016 22.222 66.9207 22.222C64.8889 22.095 62.4762 22.222 62.4762 19.4284C62.4762 18.1585 63.2381 16.7617 65.5239 16.7617H69.7143V18.9204H65.7778C65.3969 18.9204 65.1429 18.9204 64.8889 19.0474C64.635 19.1744 64.635 19.4284 64.635 19.6823C64.635 20.0633 64.8889 20.1903 65.1429 20.3172C65.3969 20.4442 65.6508 20.4442 65.9048 20.4442H67.0477C68.1905 20.4442 68.9524 20.6982 69.4604 21.2061C69.8413 21.5871 70.0953 22.222 70.0953 23.1109C70.0953 25.0157 68.9524 25.9045 66.7937 25.9045Z" fill="#228FE0"/>
<path d="M72.8892 19.6818C72.8892 20.0628 73.0161 20.1898 73.3971 20.3167C73.6511 20.4437 73.905 20.4437 74.159 20.4437H75.3019C76.0638 20.4437 76.5717 20.5707 77.0796 20.8247L75.1749 18.9199H74.032C73.6511 18.9199 73.3971 18.9199 73.1431 19.0469C73.0161 19.1739 72.8892 19.4279 72.8892 19.6818Z" fill="#228FE0"/>
<path d="M68.4441 12.0632L68.698 12.4442H68.825L68.4441 12.0632ZM61.46 5.0791L63.6187 10.2854V7.23783L61.46 5.0791Z" fill="#228FE0"/>
<path d="M39.7461 9.26956H40.0001C40.2541 9.26956 40.2541 9.26956 40.2541 9.65051V12.4442H49.3969V11.6823C50.1588 12.0632 51.3017 12.4442 52.8255 12.4442H56.635L57.3969 10.4124H59.1747L59.9366 12.4442H67.3016V11.1743L65.5239 9.39654V10.7934H61.2064L60.5715 8.76162H56.1271L55.3651 10.7934H52.9525C51.9366 10.7934 50.6667 10.5394 49.9048 9.77749C49.1429 9.01559 48.762 7.99972 48.762 6.34893C48.762 5.07909 49.0159 3.80924 49.9048 2.79337C50.5398 2.03147 51.6826 1.7775 53.0794 1.7775H55.1112V3.68226H53.0794C52.3175 3.68226 51.9366 3.80924 51.4286 4.1902C51.0477 4.57115 50.7937 5.33305 50.7937 6.22194C50.7937 7.23781 50.9207 7.87274 51.4286 8.38067C51.8096 8.76162 52.3175 8.88861 52.9525 8.88861H53.8413L56.762 1.90449H58.0318L56.254 0.126709H52.9525C51.5556 0.126709 50.4128 0.380675 49.3969 0.888611V0.126709H43.8096V0.888611C43.1747 0.380675 42.4128 0.126709 41.3969 0.126709H20.9525L19.5557 3.30131L18.1588 0.126709H12.5715L14.3493 1.90449H16.889L19.0477 6.60289L19.8096 7.3648L22.0953 1.7775H25.6509V10.7934H23.4922V3.80925L21.3334 8.88861L25.016 12.5711H39.6191L39.7461 9.26956ZM45.5874 1.7775H47.7461V10.7934H45.5874V1.7775ZM34.4128 3.68226H29.4604V5.33305H34.2858V7.11083H29.4604V8.88861H34.4128V10.7934H27.3017V1.7775H34.4128V3.68226ZM37.9683 10.6664H35.8096V1.65052H40.635C41.7779 1.65052 42.5398 1.65052 43.1747 2.03147C43.8096 2.41242 44.1906 3.04734 44.1906 4.06321C44.1906 5.46004 43.3017 6.22194 42.6667 6.47591C43.1747 6.60289 43.5556 6.98384 43.6826 7.23781C43.9366 7.74575 44.0636 8.1267 44.0636 8.88861V10.6664H41.9048V9.52353C41.9048 9.01559 41.9048 8.25369 41.5239 7.74575C41.3969 7.49178 41.016 7.49178 40.2541 7.49178H37.9683V10.6664Z" fill="#228FE0"/>
</svg>
