<svg width="80" height="30" viewBox="0 0 80 30" fill="none" xmlns="http://www.w3.org/2000/svg">
<path d="M18.9185 0.00182226H26.0248C28.6418 -0.0405822 31.5139 0.640316 31.5139 3.81056C31.5139 5.17217 30.7052 6.27843 29.514 6.87414C31.1306 7.34209 32.1313 8.74666 32.1313 10.4699C32.1313 14.087 29.4714 15.1931 26.2161 15.1931H18.9185V0.00182226ZM22.8755 5.98066H25.9398C26.6204 5.98066 27.5565 5.61882 27.5565 4.53387C27.5565 3.42743 26.7691 3.06596 25.9398 3.06596H22.8755V5.98066ZM22.8755 12.023H26.046C27.3011 12.023 28.1735 11.5764 28.1735 10.321C28.1735 8.98054 27.2374 8.53371 26.046 8.53371H22.8755V12.023Z" fill="#0A754E"/>
<path d="M38.4067 0.00195312H42.4274L48.1083 15.1932H43.9807L43.0446 12.47H37.7469L36.7893 15.1932H32.7256L38.4067 0.00195312ZM38.6616 9.53417H42.1082L40.4273 4.21512H40.3851L38.6616 9.53417Z" fill="#0A754E"/>
<path d="M49.2129 0.00195312H53.2772L58.5536 9.36362H58.5959V0.00195312H62.3198V15.1932H58.2555L52.979 5.72562H52.9368V15.1932H49.2129V0.00195312Z" fill="#0A754E"/>
<path d="M65.0205 0.00195312H68.9779V5.83191L73.9777 0.00195312H78.8927L73.2756 5.98079L79.5949 15.1934H74.6803L70.5951 8.81087L68.9781 10.513V15.1936H65.0207V0.0021384L65.0205 0.00195312Z" fill="#0A754E"/>
<path d="M8.96744 20.705H5.84614V28.822H3.12142V20.705H0.000488281V18.3606H8.96744V20.705Z" fill="#043121"/>
<path d="M10.1689 18.3608H15.5022C17.3484 18.3608 19.165 19.1962 19.165 21.3056C19.165 22.4339 18.6235 23.5035 17.5243 23.9287V23.9577C18.6377 24.2218 18.9597 25.4667 19.0479 26.4633C19.0772 26.9026 19.1215 28.441 19.4876 28.8224H16.7911C16.5569 28.4708 16.513 27.4451 16.4837 27.1522C16.4101 26.0971 16.2348 25.0131 14.9601 25.0131H12.8942V28.8224H10.1689V18.3608ZM12.8948 22.9026H15.1798C16.0004 22.9026 16.4399 22.4632 16.4399 21.6723C16.4399 20.896 15.8246 20.5436 15.0628 20.5436H12.8946L12.8948 22.9026Z" fill="#043121"/>
<path d="M23.5895 18.3608H26.3587L30.2705 28.8222H27.4277L26.7836 26.9465H23.1352L22.4761 28.8222H19.6772L23.5895 18.3608ZM23.7654 24.9248H26.1392L24.9815 21.2613H24.9522L23.7654 24.9248Z" fill="#043121"/>
<path d="M31.0332 18.3608H33.8315L37.4654 24.8076H37.4951V18.3608H40.0592V28.8222H37.2609L33.6266 22.3024H33.5973V28.8222H31.0332V18.3608Z" fill="#043121"/>
<path d="M44.0436 25.3057C44.1025 26.5363 44.8643 26.9316 46.0219 26.9316C46.8421 26.9316 47.6921 26.6389 47.6921 25.8623C47.6921 24.9393 46.1975 24.7636 44.6887 24.3382C43.1941 23.9134 41.6262 23.2398 41.6262 21.32C41.6262 19.0345 43.9267 18.1406 45.8902 18.1406C47.9706 18.1406 50.0656 19.1512 50.0806 21.5104H47.3553C47.3992 20.5581 46.5053 20.2504 45.6701 20.2504C45.0841 20.2504 44.3515 20.4553 44.3515 21.1442C44.3515 21.9499 45.8605 22.0964 47.3843 22.5215C48.8938 22.9463 50.4174 23.6495 50.4174 25.5395C50.4174 28.1918 48.1608 29.0417 45.8607 29.0417C43.4578 29.0417 41.3337 27.9865 41.3184 25.3055H44.0436V25.3057Z" fill="#043121"/>
<path d="M51.6919 18.3608H59.399V20.5438H54.4175V22.6831H58.7251V24.7925H54.4175V28.8222H51.6919V18.3608Z" fill="#043121"/>
<path d="M60.645 18.3608H68.9819V20.5438H63.3701V22.3754H68.4983V24.4852H63.3701V26.478H69.1285V28.822H60.6452L60.645 18.3608Z" fill="#043121"/>
<path d="M70.6816 18.3608H76.0149C77.8611 18.3608 79.6774 19.1962 79.6774 21.3056C79.6774 22.4339 79.1356 23.5035 78.0367 23.9287V23.9577C79.15 24.2218 79.4726 25.4667 79.5602 26.4633C79.5899 26.9026 79.6335 28.441 80 28.8224H77.3038C77.069 28.4708 77.0257 27.4451 76.9962 27.1522C76.9229 26.0971 76.7473 25.0131 75.4726 25.0131H73.4069V28.8224H70.6816V18.3608ZM73.4069 22.9026H75.6928C76.5131 22.9026 76.9523 22.4632 76.9523 21.6723C76.9523 20.896 76.3375 20.5436 75.5752 20.5436H73.4069V22.9026Z" fill="#043121"/>
<path d="M16.4948 0.000244141H0V3.30331H16.4948V0.000244141Z" fill="#F8CB46"/>
<path d="M16.4948 11.8904H0V15.1933H16.4948V11.8904Z" fill="#F8CB46"/>
<path d="M16.4948 5.94434H0V9.2474H16.4948V5.94434Z" fill="#F8CB46"/>
</svg>
