<svg width="80" height="30" viewBox="0 0 80 30" fill="none" xmlns="http://www.w3.org/2000/svg">
<path d="M14 2.99601H7.72727C7.88717 3.30117 7.99467 3.62972 8.04546 3.96865C8.41906 3.81501 8.82174 3.73969 9.22727 3.74759C9.65926 3.74657 10.0863 3.83699 10.4788 4.01258C10.8712 4.18817 11.2197 4.44472 11.5 4.76444C11.8478 5.07924 12.1275 5.45844 12.3227 5.87979C12.5178 6.30113 12.6244 6.75614 12.6364 7.21812C12.6184 8.11344 12.2625 8.97107 11.6364 9.62759C11.3717 9.97233 11.0291 10.2533 10.635 10.4488C10.2409 10.6442 9.80595 10.749 9.36363 10.755C8.96903 10.7306 8.57939 10.6563 8.20455 10.5339V8.61075C8.5544 8.82815 8.95099 8.9643 9.36363 9.00865C9.55978 8.99556 9.75071 8.94138 9.92332 8.84981C10.0959 8.75823 10.2461 8.63144 10.3636 8.47812C10.6436 8.13137 10.7956 7.70321 10.7955 7.26233C10.8015 6.82335 10.6395 6.39787 10.3409 6.06865C10.2057 5.90322 10.0324 5.77102 9.83502 5.6827C9.63763 5.59439 9.42167 5.55243 9.20454 5.56022C8.80458 5.53822 8.40967 5.6558 8.09091 5.8918C7.9999 6.40558 7.79394 6.89363 7.48762 7.32144C7.18129 7.74926 6.78207 8.1064 6.31819 8.36759C6.2337 8.42701 6.1649 8.50509 6.11746 8.59539C6.07002 8.6857 6.0453 8.78566 6.0453 8.88707C6.0453 8.98848 6.07002 9.08844 6.11746 9.17875C6.1649 9.26905 6.2337 9.34712 6.31819 9.40654L9.77272 12.1255H7.09091C6.93635 12.1256 6.78555 12.0793 6.6591 11.9929L0.568182 7.17391L1.90909 5.8918L3.04545 6.86444C3.35939 7.09547 3.74269 7.21974 4.13636 7.21812C4.44364 7.23456 4.75114 7.19014 5.04024 7.08755C5.32933 6.98496 5.594 6.82633 5.81818 6.62128C6.02339 6.4085 6.18325 6.15831 6.28857 5.88515C6.39389 5.61199 6.44257 5.32125 6.43181 5.0297C6.44795 4.63122 6.35296 4.23592 6.15691 3.88567C5.96086 3.53543 5.67105 3.2433 5.31818 3.04023H0V1.62549H14V2.99601Z" fill="#F29F05"/>
<path d="M80.0002 1.76514V11.9808H78.1347L73.6902 5.55112H73.6154V11.9808H71.4556V1.76514H73.3511L77.7606 8.18984H77.8503V1.76514H80.0002Z" fill="#0A754E"/>
<path d="M69.8553 6.87299C69.8553 7.98701 69.6441 8.93475 69.2218 9.71622C68.8028 10.4977 68.2308 11.0946 67.5059 11.507C66.7843 11.916 65.9729 12.1205 65.0717 12.1205C64.1639 12.1205 63.3491 11.9143 62.6275 11.502C61.9059 11.0896 61.3356 10.4927 60.9166 9.71124C60.4976 8.92976 60.2881 7.98368 60.2881 6.87299C60.2881 5.75898 60.4976 4.81124 60.9166 4.02976C61.3356 3.24829 61.9059 2.65304 62.6275 2.24402C63.3491 1.83166 64.1639 1.62549 65.0717 1.62549C65.9729 1.62549 66.7843 1.83166 67.5059 2.24402C68.2308 2.65304 68.8028 3.24829 69.2218 4.02976C69.6441 4.81124 69.8553 5.75898 69.8553 6.87299ZM67.6655 6.87299C67.6655 6.15138 67.5574 5.54283 67.3413 5.04734C67.1285 4.55185 66.8275 4.17608 66.4384 3.92003C66.0494 3.66397 65.5938 3.53594 65.0717 3.53594C64.5496 3.53594 64.094 3.66397 63.705 3.92003C63.3159 4.17608 63.0133 4.55185 62.7971 5.04734C62.5843 5.54283 62.4779 6.15138 62.4779 6.87299C62.4779 7.59461 62.5843 8.20316 62.7971 8.69865C63.0133 9.19413 63.3159 9.56991 63.705 9.82596C64.094 10.082 64.5496 10.21 65.0717 10.21C65.5938 10.21 66.0494 10.082 66.4384 9.82596C66.8275 9.56991 67.1285 9.19413 67.3413 8.69865C67.5574 8.20316 67.6655 7.59461 67.6655 6.87299Z" fill="#0A754E"/>
<path d="M46.7363 11.9808V1.76514H48.8962V5.9801H53.2807V1.76514H55.4356V11.9808H53.2807V7.76086H48.8962V11.9808H46.7363Z" fill="#0A754E"/>
<path d="M43.0741 4.70316C43.0342 4.30078 42.863 3.9882 42.5604 3.76539C42.2578 3.54259 41.8471 3.43119 41.3283 3.43119C40.9758 3.43119 40.6782 3.48107 40.4354 3.58083C40.1927 3.67727 40.0064 3.81195 39.8768 3.98487C39.7504 4.15779 39.6872 4.35399 39.6872 4.57347C39.6806 4.75637 39.7188 4.91599 39.8019 5.05233C39.8884 5.18867 40.0065 5.30672 40.1561 5.40649C40.3057 5.50292 40.4787 5.58772 40.6749 5.66088C40.8711 5.73071 41.0806 5.79057 41.3034 5.84045L42.2212 6.05993C42.6668 6.15969 43.0758 6.29271 43.4483 6.45898C43.8207 6.62525 44.1433 6.82976 44.416 7.07252C44.6886 7.31527 44.8998 7.60126 45.0494 7.93048C45.2024 8.25969 45.2806 8.63713 45.2839 9.06278C45.2806 9.68796 45.1209 10.23 44.805 10.6889C44.4924 11.1445 44.0402 11.4986 43.4483 11.7514C42.8597 12.0008 42.1497 12.1255 41.3183 12.1255C40.4936 12.1255 39.7753 11.9991 39.1635 11.7464C38.5549 11.4937 38.0794 11.1195 37.7369 10.6241C37.3977 10.1253 37.2198 9.50839 37.2031 8.77347H39.2931C39.3164 9.11599 39.4145 9.40197 39.5874 9.63143C39.7637 9.85755 39.9981 10.0288 40.2908 10.1452C40.5867 10.2583 40.9209 10.3148 41.2934 10.3148C41.6592 10.3148 41.9768 10.2616 42.2461 10.1552C42.5188 10.0488 42.73 9.90079 42.8796 9.71124C43.0293 9.52169 43.1041 9.30387 43.1041 9.05779C43.1041 8.82834 43.0359 8.63546 42.8996 8.47917C42.7665 8.32288 42.5703 8.18986 42.311 8.08012C42.0549 7.97038 41.7407 7.87062 41.3682 7.78083L40.2559 7.5015C39.3946 7.292 38.7145 6.96444 38.2157 6.51884C37.7169 6.07323 37.4692 5.47299 37.4725 4.71812C37.4692 4.0996 37.6338 3.55922 37.9663 3.09698C38.3022 2.63475 38.7627 2.27394 39.348 2.01456C39.9333 1.75518 40.5984 1.62549 41.3433 1.62549C42.1015 1.62549 42.7632 1.75518 43.3285 2.01456C43.8972 2.27394 44.3395 2.63475 44.6554 3.09698C44.9713 3.55922 45.1342 4.09461 45.1442 4.70316H43.0741Z" fill="#0A754E"/>
<path d="M29.0186 11.9808H26.7041L30.2307 1.76514H33.0141L36.5357 11.9808H34.2212L31.6623 4.09958H31.5825L29.0186 11.9808ZM28.8739 7.96537H34.3409V9.65136H28.8739V7.96537Z" fill="#0A754E"/>
<path d="M25.9011 5.34164H23.7163C23.6764 5.05898 23.5949 4.80791 23.4719 4.58843C23.3489 4.36563 23.1909 4.17608 22.998 4.01979C22.8052 3.86349 22.5824 3.74378 22.3296 3.66064C22.0802 3.57751 21.8092 3.53594 21.5166 3.53594C20.9878 3.53594 20.5272 3.66729 20.1348 3.93C19.7424 4.18938 19.4382 4.56848 19.222 5.06729C19.0059 5.56278 18.8978 6.16468 18.8978 6.87299C18.8978 7.60126 19.0059 8.21314 19.222 8.70862C19.4415 9.20411 19.7474 9.57822 20.1398 9.83095C20.5322 10.0837 20.9862 10.21 21.5016 10.21C21.7909 10.21 22.0586 10.1718 22.3047 10.0953C22.5541 10.0188 22.7752 9.90744 22.9681 9.76112C23.161 9.61147 23.3206 9.43024 23.447 9.21741C23.5767 9.00459 23.6664 8.76183 23.7163 8.48915L25.9011 8.49912C25.8446 8.96801 25.7033 9.42026 25.4771 9.85589C25.2543 10.2882 24.9534 10.6756 24.5743 11.0181C24.1985 11.3573 23.7496 11.6267 23.2275 11.8262C22.7087 12.0224 22.1218 12.1205 21.4667 12.1205C20.5555 12.1205 19.7408 11.9143 19.0225 11.502C18.3075 11.0896 17.7422 10.4927 17.3265 9.71124C16.9142 8.92976 16.708 7.98368 16.708 6.87299C16.708 5.75898 16.9175 4.81124 17.3365 4.02976C17.7555 3.24829 18.3242 2.65304 19.0424 2.24402C19.7607 1.83166 20.5688 1.62549 21.4667 1.62549C22.0586 1.62549 22.6073 1.70862 23.1128 1.87489C23.6215 2.04117 24.0721 2.28392 24.4645 2.60316C24.8569 2.91907 25.1762 3.30649 25.4223 3.76539C25.6717 4.2243 25.8313 4.74972 25.9011 5.34164Z" fill="#0A754E"/>
<path d="M69.0698 17.1255H72.1073L74.4856 21.8328H74.5845L76.9629 17.1255H80.0003L75.8863 24.6176V28.3746H73.1839V24.6176L69.0698 17.1255Z" fill="#043121"/>
<path d="M59.2681 28.3746V17.1255H63.9149C64.7571 17.1255 65.484 17.2775 66.0955 17.5814C66.7107 17.8817 67.1849 18.3137 67.5181 18.8777C67.8514 19.4379 68.018 20.1025 68.018 20.8715C68.018 21.6515 67.8477 22.3143 67.5071 22.8599C67.1666 23.4018 66.6832 23.8156 66.0571 24.1012C65.4309 24.3832 64.6894 24.5242 63.8325 24.5242H60.8939V22.382H63.3272C63.7373 22.382 64.0797 22.3289 64.3543 22.2227C64.6326 22.1129 64.8432 21.9481 64.986 21.7284C65.1288 21.505 65.2002 21.2194 65.2002 20.8715C65.2002 20.5237 65.1288 20.2362 64.986 20.0092C64.8432 19.7785 64.6326 19.6064 64.3543 19.4929C64.076 19.3757 63.7337 19.3171 63.3272 19.3171H61.987V28.3746H59.2681ZM65.6012 23.2334L68.4025 28.3746H65.4364L62.69 23.2334H65.6012Z" fill="#043121"/>
<path d="M49.103 28.3746V17.1255H56.9466V19.3336H51.8219V21.6405H56.5457V23.8541H51.8219V26.1665H56.9466V28.3746H49.103Z" fill="#043121"/>
<path d="M39.1055 17.1255L41.6211 25.3646H41.7145L44.2302 17.1255H47.2731L43.4777 28.3746H39.858L36.0625 17.1255H39.1055Z" fill="#043121"/>
<path d="M34.2262 17.1255V28.3746H31.5073V17.1255H34.2262Z" fill="#043121"/>
<path d="M22.0825 28.3746V17.1255H24.8014V26.1665H29.4812V28.3746H22.0825Z" fill="#043121"/>
<path d="M11.9175 28.3746V17.1255H19.7611V19.3336H14.6364V21.6405H19.3601V23.8541H14.6364V26.1665H19.7611V28.3746H11.9175Z" fill="#043121"/>
<path d="M4.15799 28.3746H0V17.1255H4.1525C5.29865 17.1255 6.2855 17.3507 7.11308 17.8011C7.94431 18.2478 8.58512 18.8923 9.03553 19.7345C9.48593 20.5731 9.71113 21.5764 9.71113 22.7445C9.71113 23.9163 9.48593 24.9233 9.03553 25.7655C8.58879 26.6078 7.9498 27.2541 7.11857 27.7045C6.28734 28.1512 5.30048 28.3746 4.15799 28.3746ZM2.7189 26.0567H4.05363C4.68346 26.0567 5.21625 25.9505 5.65201 25.7381C6.09143 25.522 6.42282 25.1723 6.64619 24.689C6.87323 24.2019 6.98674 23.5538 6.98674 22.7445C6.98674 21.9353 6.87323 21.2908 6.64619 20.8111C6.41916 20.3277 6.08411 19.9799 5.64103 19.7675C5.20161 19.5514 4.65966 19.4434 4.01518 19.4434H2.7189V26.0567Z" fill="#043121"/>
</svg>
