<svg width="80" height="30" viewBox="0 0 80 30" fill="none" xmlns="http://www.w3.org/2000/svg">
<path d="M48.9143 24.8888C48.9143 26.181 47.7215 27.2275 46.4321 27.2275H2.19378C0.901582 27.2275 0.00146484 26.181 0.00146484 24.8888V5.11111C0.00146484 3.81892 0.904343 2.77246 2.19378 2.77246H46.4293C47.7215 2.77246 48.9115 3.81892 48.9115 5.11111V24.8888H48.9143Z" fill="#CF2027"/>
<path d="M55.9054 10.2937C54.7954 10.2937 53.9229 10.7493 53.3016 11.6577H53.2657V10.5643H50.3169V23.177H53.4121V18.9912H53.448C54.0858 19.8471 54.997 20.2833 56.1428 20.2833C58.8183 20.2833 60.1298 17.953 60.1298 15.4984C60.1298 12.8229 58.8735 10.2937 55.9081 10.2937H55.9054ZM55.1792 17.9198C53.7765 17.9198 53.3044 16.8458 53.3044 15.1891C53.3044 13.2232 54.3785 12.66 55.1958 12.66C56.5791 12.66 57.0346 13.988 57.0346 15.1891C57.0346 16.4813 56.5432 17.9198 55.1792 17.9198Z" fill="#080B10"/>
<path d="M69.8102 13.4607C69.8102 10.7852 67.6455 10.2937 65.4062 10.2937C64.3128 10.2937 63.2581 10.4566 62.4022 10.9481C61.5462 11.4396 60.983 12.2403 60.9277 13.4772H63.8214C63.9677 12.6959 64.4757 12.2927 65.3676 12.2927C66.0054 12.2927 66.8613 12.5661 66.8613 13.2757C66.8613 13.8583 66.5687 14.0212 66.0413 14.1482C63.8932 14.5844 60.5439 14.3663 60.5439 17.4256C60.5439 19.3722 61.9438 20.2833 63.7661 20.2833C64.912 20.2833 66.0772 19.9741 66.8779 19.1182C66.9331 19.4274 66.9331 19.7201 67.0601 20.01H70.1719C69.8074 19.2645 69.8074 18.3892 69.8074 17.5885V13.4552L69.8102 13.4607ZM64.9341 18.3754C64.2245 18.3754 63.6419 18.0828 63.6419 17.3014C63.6419 16.52 64.2052 16.2632 64.9175 16.1003C65.5912 15.9015 66.3919 15.8628 66.8282 15.5922C66.9 17.5581 66.4113 18.3754 64.9368 18.3754H64.9341Z" fill="#080B10"/>
<path d="M76.8345 10.5671L75.0508 16.7189H75.0149L73.2313 10.5671H69.9539L72.3919 17.1385C72.5741 17.6493 73.1761 19.1044 73.1761 19.6153C73.1761 20.2696 72.6487 20.67 71.9391 20.67H70.865V23.1826H72.3201C74.3937 23.1826 75.5423 22.9286 76.2685 20.8522L79.9987 10.5699H76.8317L76.8345 10.5671Z" fill="#080B10"/>
<path fill-rule="evenodd" clip-rule="evenodd" d="M41.1942 15.1476C40.9567 14.3303 40.5895 13.64 40.0925 13.0768C39.5928 12.5163 38.9549 12.0883 38.1791 11.7956C37.4005 11.5029 36.4782 11.3594 35.4097 11.3594C34.551 11.3594 33.7696 11.5085 33.0683 11.8067C32.367 12.1049 31.7678 12.5135 31.2681 13.0353C30.9063 13.4109 30.6054 13.8333 30.3624 14.2972C30.3127 13.9686 30.2299 13.6704 30.1139 13.3998C29.9124 12.9415 29.639 12.5632 29.2911 12.265C28.9432 11.9668 28.5484 11.7404 28.1038 11.5885C27.6593 11.4367 27.1954 11.3594 26.7095 11.3594C25.8784 11.3594 25.1798 11.4974 24.6193 11.7763C24.0561 12.0524 23.5812 12.4638 23.1946 13.005H23.1532V11.6327H19.1772V14.0818C18.9784 13.7201 18.741 13.386 18.4593 13.0795C17.9817 12.5577 17.3715 12.1435 16.6287 11.8315C15.886 11.5195 15.008 11.3621 13.9974 11.3621C12.9868 11.3621 12.106 11.5195 11.3661 11.8315C10.7807 12.0772 10.2782 12.3893 9.85852 12.7648V11.6327H7.69382C7.66621 11.133 7.74628 10.7933 7.93403 10.6139C8.12179 10.4344 8.46416 10.3433 8.96392 10.3433C9.12959 10.3433 9.29801 10.3598 9.46368 10.3957C9.62934 10.4316 9.79501 10.462 9.96344 10.4896V7.65949C9.64315 7.64569 9.33667 7.62912 9.03847 7.60703C8.74027 7.58494 8.43103 7.57666 8.11074 7.57666C7.27965 7.57666 6.58109 7.63464 6.02059 7.75337C5.46009 7.8721 4.95481 8.15373 4.51303 8.5955C4.10991 8.99862 3.86141 9.47353 3.76478 10.0202C3.66814 10.5697 3.63224 11.1053 3.65985 11.6327H1.97559V14.1702H3.65985V22.4314H7.77941V14.1702H8.77064C8.65192 14.3966 8.55252 14.6313 8.46692 14.877C8.22947 15.5562 8.1135 16.2714 8.1135 17.0196C8.1135 17.7679 8.23223 18.4858 8.46692 19.1733C8.70162 19.8608 9.06056 20.4627 9.53823 20.9845C10.0159 21.5036 10.6261 21.9206 11.3688 22.2326C12.1116 22.5446 12.9896 22.7019 14.0002 22.7019C15.0107 22.7019 15.8915 22.5446 16.6315 22.2326C17.3742 21.9206 17.9844 21.5036 18.4621 20.9845C18.7437 20.6781 18.9812 20.3412 19.18 19.9795V22.4314H23.2995V16.7297C23.2995 16.3017 23.352 15.9483 23.4569 15.6777C23.5618 15.4071 23.6916 15.1945 23.8517 15.0427C24.0119 14.8908 24.1886 14.7859 24.3819 14.7307C24.5752 14.6754 24.7629 14.6478 24.9451 14.6478C25.2489 14.6478 25.4891 14.7003 25.663 14.8052C25.837 14.9101 25.9723 15.0537 26.0689 15.2415C26.1655 15.4292 26.2291 15.6556 26.2567 15.9179C26.2843 16.183 26.2981 16.4674 26.2981 16.7711V22.4314H30.4176V19.9685C30.691 20.4517 31.0306 20.8741 31.4365 21.2358C31.9777 21.7135 32.6182 22.0779 33.361 22.3292C34.1037 22.5777 34.9044 22.7047 35.7659 22.7047C36.3761 22.7047 36.9697 22.6357 37.5468 22.4976C38.1211 22.3596 38.6567 22.1497 39.1482 21.8736C39.6397 21.5975 40.0732 21.2441 40.4487 20.8134C40.8242 20.3826 41.1141 19.8773 41.3212 19.2948H37.4916C37.3231 19.5571 37.0746 19.7531 36.7488 19.8773C36.4203 20.0016 36.0889 20.0651 35.7548 20.0651C35.1005 20.0651 34.5979 19.8718 34.25 19.4825C33.9021 19.0932 33.6978 18.5879 33.6426 17.9639H41.5504C41.5504 16.9092 41.4316 15.9732 41.197 15.1531L41.1942 15.1476ZM15.7148 17.9253C15.6789 18.2373 15.6016 18.5244 15.4746 18.7895C15.3503 19.0545 15.1681 19.2727 14.9334 19.4439C14.696 19.6178 14.384 19.7034 13.9974 19.7034C13.6108 19.7034 13.2961 19.6178 13.0614 19.4439C12.8239 19.2699 12.6445 19.0518 12.5202 18.7895C12.396 18.5272 12.3159 18.2373 12.28 17.9253C12.2441 17.6132 12.2275 17.3123 12.2275 17.0196C12.2275 16.7269 12.2441 16.426 12.28 16.114C12.3159 15.802 12.3932 15.5176 12.5202 15.2608C12.6445 15.004 12.8239 14.7886 13.0614 14.6147C13.2961 14.4407 13.6108 14.3552 13.9974 14.3552C14.384 14.3552 14.6987 14.4407 14.9334 14.6147C15.1681 14.7886 15.3503 15.004 15.4746 15.2608C15.5988 15.5176 15.6789 15.802 15.7148 16.114C15.7507 16.426 15.7673 16.7269 15.7673 17.0196C15.7673 17.3123 15.7507 17.6132 15.7148 17.9253ZM33.6619 15.813C33.7586 15.2304 33.9794 14.7831 34.3273 14.4711C34.6752 14.1591 35.1612 14.0045 35.7852 14.0045C36.3126 14.0045 36.7461 14.1812 37.0857 14.5346C37.4253 14.888 37.5965 15.316 37.5965 15.8158H33.6647L33.6619 15.813Z" fill="white"/>
<path fill-rule="evenodd" clip-rule="evenodd" d="M39.5984 7.25085C39.5625 7.73128 39.5266 8.21171 39.4907 8.68662C42.0944 9.11735 43.5827 10.6166 44.0051 13.2038C44.4911 13.1651 44.9743 13.1265 45.4768 13.0878C45.2448 9.55085 42.0917 7.23152 39.5984 7.25085Z" fill="white"/>
<path fill-rule="evenodd" clip-rule="evenodd" d="M39.7915 10.0396C39.7528 10.52 39.7142 11.0032 39.6755 11.514C40.5536 11.6631 41.0257 12.1905 41.1914 13.0188C41.7022 12.9774 42.1854 12.9387 42.6658 12.9001C42.6575 11.4726 41.1306 9.954 39.7915 10.0396Z" fill="white"/>
</svg>
