<svg width="80" height="30" viewBox="0 0 80 30" fill="none" xmlns="http://www.w3.org/2000/svg">
<path d="M69.5966 5.09907C69.6513 4.97648 69.737 4.87033 69.8454 4.79115C69.9538 4.71197 70.081 4.66252 70.2145 4.64771C73.3608 3.92905 76.5071 3.20893 79.6535 2.48734C79.7338 2.46893 79.8177 2.47503 79.8945 2.50487C80.0084 2.55307 80.0304 2.68892 79.9602 2.816C79.7718 3.17095 79.5834 3.5259 79.3949 3.87647L75.9243 10.3707C75.8623 10.5242 75.7472 10.6502 75.6 10.7258C75.4528 10.8015 75.2833 10.8216 75.1224 10.7826C74.9976 10.7495 74.8822 10.688 74.785 10.603C73.9611 9.81421 73.1417 9.02104 72.3091 8.21474C74.6535 6.47505 76.9965 4.73828 79.338 3.00443C79.3334 2.99959 79.3303 2.99349 79.3292 2.9869C76.7438 4.48996 74.1569 5.99156 71.5685 7.4917C70.9594 6.90011 70.3503 6.3173 69.7543 5.72133C69.6834 5.62661 69.6273 5.52171 69.5878 5.4102C69.5765 5.38032 69.5677 5.34954 69.5615 5.31817C69.5747 5.25244 69.5878 5.17795 69.5966 5.09907Z" fill="#ED1C24"/>
<path d="M71.8444 10.6162C71.7701 10.6584 71.686 10.6801 71.6006 10.6792C71.5152 10.6784 71.4316 10.655 71.3582 10.6114C71.2848 10.5678 71.2242 10.5055 71.1826 10.431C71.141 10.3564 71.1199 10.2722 71.1213 10.1868C71.0863 9.50755 71.0643 8.82833 71.0337 8.14911C71.0293 8.07899 71.0293 8.00888 71.0249 7.91248C71.7479 8.60046 72.4535 9.2753 73.1721 9.96329C73.1064 9.99835 73.0582 10.0334 73.01 10.0553" fill="#ED1C24"/>
<path d="M44.0662 27.5223V14.5907C44.0394 14.1762 44.1001 13.7607 44.2443 13.3712C44.3885 12.9816 44.613 12.6267 44.9032 12.3296C45.539 11.7723 46.3685 11.4874 47.2126 11.5364H51.0031C51.6985 11.4915 52.3904 11.6679 52.9794 12.0403C53.3614 12.3129 53.6704 12.6754 53.8791 13.0958C54.0877 13.5161 54.1896 13.9814 54.1757 14.4505V20.2392C54.2129 21.0503 53.9421 21.8455 53.4176 22.4654C53.1373 22.8136 52.7831 23.0952 52.3807 23.29C51.9784 23.4847 51.5378 23.5877 51.0907 23.5916H46.0688V27.5179H44.0662V27.5223ZM46.0864 20.397C46.092 20.7149 46.2154 21.0193 46.4326 21.2515C46.6323 21.4486 46.8938 21.5709 47.1731 21.5977H51.0381C51.0859 21.5994 51.1335 21.592 51.1784 21.5758C51.4206 21.5432 51.6459 21.4336 51.8211 21.2632C51.9963 21.0928 52.112 20.8705 52.1512 20.6293C52.1685 20.5531 52.1758 20.475 52.1731 20.397V14.4768C52.1715 14.2373 52.0948 14.0044 51.954 13.8107C51.7669 13.6559 51.5382 13.5599 51.2967 13.5346H47.5018C46.5465 13.5346 46.0688 13.9422 46.0688 14.7572V20.1691C46.0615 20.2455 46.0675 20.3226 46.0864 20.397Z" fill="#ED1C24"/>
<path d="M55.1357 20.3531V18.9071C55.0899 17.9799 55.34 17.0622 55.85 16.2866C56.1191 15.9151 56.4772 15.6173 56.8915 15.4205C57.3057 15.2237 57.7628 15.1343 58.2207 15.1604H63.1988V14.3453C63.1995 14.2397 63.1793 14.1351 63.1395 14.0373C63.0996 13.9395 63.0408 13.8506 62.9665 13.7756C62.9006 13.6995 62.8192 13.6382 62.7278 13.5959C62.6364 13.5536 62.537 13.5312 62.4363 13.5302H55.1313V11.532H62.2742C63.8517 11.532 64.8085 12.2755 65.1444 13.7625C65.1697 13.9455 65.1844 14.1299 65.1882 14.3146V20.5153C65.1913 21.0592 65.0393 21.5928 64.75 22.0534C64.1059 23.0788 63.2718 23.5915 62.2479 23.5915H58.2295C57.5959 23.5795 56.9835 23.361 56.4854 22.9693C55.958 22.6054 55.5507 22.0929 55.3154 21.4969C55.1903 21.1288 55.1295 20.7419 55.1357 20.3531ZM57.6686 21.4092C58.0282 21.5554 58.4162 21.6183 58.8035 21.5933H61.5336C62.6422 21.5933 63.1973 21.1945 63.1988 20.397V18.4426C63.1988 17.6757 62.7284 17.2462 61.7877 17.1542H58.5713C57.616 17.2594 57.1383 17.6888 57.1383 18.4426V20.397C57.117 20.5992 57.156 20.8032 57.2503 20.9833C57.3447 21.1634 57.4902 21.3116 57.6686 21.4092Z" fill="#ED1C24"/>
<path d="M66.1655 27.5224V25.5241H73.1462C73.8079 25.419 74.1365 24.9895 74.1365 24.2358V23.5916H69.0927C68.7058 23.5969 68.3217 23.5243 67.9633 23.3782C67.605 23.2321 67.2796 23.0155 67.0065 22.7412C66.7335 22.467 66.5184 22.1406 66.3739 21.7816C66.2294 21.4226 66.1585 21.0382 66.1655 20.6512V11.5321H68.1637V20.0991C68.1637 21.0938 68.6429 21.5919 69.6011 21.5934H72.7474C73.672 21.5934 74.1351 21.1639 74.1365 20.305V11.5277L76.1435 11.5321L76.1348 24.1175C76.1868 25.0051 75.909 25.8806 75.3548 26.5758C75.0489 26.8968 74.6768 27.1473 74.2644 27.31C73.852 27.4727 73.4091 27.5436 72.9665 27.518H66.1655V27.5224Z" fill="#ED1C24"/>
<path fill-rule="evenodd" clip-rule="evenodd" d="M0 11.5496H7.07709V13.0789H5.88516C5.7005 13.0782 5.52308 13.1507 5.3917 13.2804C5.26031 13.4101 5.18564 13.5866 5.18402 13.7713V21.3392C5.18564 21.5238 5.26031 21.7003 5.3917 21.83C5.52308 21.9598 5.7005 22.0322 5.88516 22.0315H7.07709V23.5653H0V22.0315H1.36721C1.55139 22.032 1.72822 21.9593 1.85886 21.8295C1.9895 21.6997 2.06327 21.5233 2.06397 21.3392V13.7713C2.06258 13.5873 1.98859 13.4114 1.8581 13.2817C1.72761 13.152 1.55118 13.0791 1.36721 13.0789H0V11.5496Z" fill="#ED1C24"/>
<path fill-rule="evenodd" clip-rule="evenodd" d="M8.27783 11.5496H14.5355L16.1305 15.2349L17.7125 18.9203L19.2944 15.2349L20.8807 11.5496H26.8623V13.0789H25.5258C25.3402 13.079 25.1621 13.1522 25.0301 13.2826C24.8981 13.413 24.8227 13.5901 24.8202 13.7757V21.3961C24.8208 21.4882 24.8395 21.5793 24.8753 21.6641C24.9111 21.749 24.9632 21.8259 25.0287 21.8906C25.0942 21.9553 25.1718 22.0065 25.2571 22.0412C25.3424 22.0759 25.4337 22.0935 25.5258 22.0929H26.8623V23.5653H19.7107L19.702 22.071H20.6879C20.6879 22.071 21.5644 22.2068 21.6169 21.3698L21.652 14.3278L17.6862 23.5565V23.5697H16.2576V23.5565L12.2918 14.3278L12.3269 21.3698C12.3795 22.2068 13.2559 22.071 13.2559 22.071H14.2419L14.2331 23.5653H8.27783V22.0929H9.60999C9.79519 22.0929 9.97286 22.0196 10.1042 21.8891C10.2356 21.7585 10.31 21.5813 10.3111 21.3961V13.7757C10.31 13.5905 10.2356 13.4133 10.1042 13.2827C9.97286 13.1522 9.79519 13.0789 9.60999 13.0789H8.27783V11.5496Z" fill="#ED1C24"/>
<path fill-rule="evenodd" clip-rule="evenodd" d="M41.1173 23.5652H28.0806V22.0841H29.3996C29.5848 22.0841 29.7624 22.0108 29.8938 21.8803C30.0252 21.7497 30.0996 21.5725 30.1007 21.3873V13.7669C30.0996 13.5817 30.0252 13.4045 29.8938 13.2739C29.7624 13.1434 29.5848 13.0701 29.3996 13.0701H28.0806V11.5364H41.1173V16.2471H39.3688C39.3135 15.4666 39.1529 14.6971 38.8912 13.9597C38.5056 13.0701 36.7571 13.1358 36.7571 13.1358H33.2602L33.2383 16.5802C35.5301 16.6328 36.1436 16.7511 35.9859 14.5644L37.7168 14.5556L37.7212 20.2392H35.9815C35.9815 20.2392 35.9815 19.9325 35.9508 18.964C35.9201 17.9167 34.2812 18.1533 33.2514 18.1796V21.9833L37.0244 21.9964C38.5056 21.8957 38.9306 21.1595 39.1673 20.4408C39.3218 19.7776 39.3881 19.0968 39.3645 18.4163L41.1085 18.4207V23.5652H41.1173Z" fill="#ED1C24"/>
</svg>
