<svg width="80" height="31" viewBox="0 0 80 31" fill="none" xmlns="http://www.w3.org/2000/svg">
<path d="M36.3021 0.540814C35.9777 0.189285 35.572 0 35.0583 0H7.04412C6.53035 0 6.0977 0.189285 5.80025 0.540814C5.47576 0.892343 5.34056 1.32499 5.42168 1.83877L7.42269 21.0647C7.53085 22.2004 8.47728 23.6065 9.4237 24.2014L19.3206 30.0422C19.7803 30.3126 20.4293 30.4749 21.0782 30.4749C21.7543 30.4749 22.3762 30.3126 22.8359 30.0422L32.7328 24.2014C33.7062 23.6606 34.5986 22.2004 34.7338 21.0647L36.7348 1.83877C36.7348 1.37908 36.6266 0.892343 36.3021 0.540814ZM28.1899 21.8489C27.3787 22.3897 26.2971 22.1734 25.7563 21.3892L20.6997 13.953L17.6441 17.0086V20.3887C17.6441 21.3621 16.8599 22.1463 15.8864 22.1463C14.913 22.1463 14.1288 21.3621 14.1288 20.3887V5.73263C14.1288 4.75916 14.913 3.97498 15.8864 3.97498C16.8599 3.97498 17.6441 4.75916 17.6441 5.73263V12.0331L25.1884 4.48875C25.8644 3.81274 27.0001 3.81274 27.6762 4.48875C28.3522 5.16477 28.3522 6.30048 27.6762 6.9765L23.2145 11.4112C23.2145 11.4382 23.2415 11.4382 23.2415 11.4653L28.6496 19.3882C29.1904 20.1994 28.9741 21.281 28.1899 21.8489Z" fill="#5D2E8E"/>
<path fill-rule="evenodd" clip-rule="evenodd" d="M79.9999 6.9765V19.2259C79.9999 20.8754 78.6479 22.2274 76.9984 22.2274H36.1399L36.2481 20.9295H76.9984C77.9178 20.9295 78.7019 20.1453 78.7019 19.2259V6.92241C78.7019 6.00303 77.9178 5.21885 76.9984 5.21885H37.8975L38.0057 3.9209H76.9984C78.6479 3.9209 79.9999 5.27293 79.9999 6.9765Z" fill="#5D2E8E"/>
<path fill-rule="evenodd" clip-rule="evenodd" d="M41.3049 9.76164C41.3049 9.57236 41.1967 9.49124 41.0345 9.49124H40.4937V8.38257H41.7375C42.3324 8.38257 42.6028 8.54481 42.6028 9.16675V13.5203H43.1977C43.4411 13.5203 43.7385 13.4392 43.9008 13.2499L45.4691 11.0866H46.9293L45.1176 13.5473C44.7931 13.9259 44.6038 14.0611 44.6038 14.0611V14.0882C44.6038 14.0882 44.8472 14.1693 45.0365 14.6019L46.01 16.4137C46.1181 16.6029 46.2533 16.6841 46.6048 16.6841H46.9834V17.7657H46.037C45.4151 17.7657 45.2258 17.6575 44.9283 17.1438L43.7115 14.8994C43.5493 14.656 43.2788 14.629 43.0355 14.629H42.5217V17.7927H41.2238L41.3049 9.76164Z" fill="#5D2E8E"/>
<path fill-rule="evenodd" clip-rule="evenodd" d="M48.3083 9.78874C48.3083 9.59946 48.2001 9.51834 48.0379 9.51834H47.4971V8.40967H48.7409C49.3358 8.40967 49.6062 8.65303 49.6062 9.22089V11.8438C49.6062 12.1683 49.5792 12.3846 49.5792 12.3846H49.6062C49.8767 11.7086 50.742 10.8974 52.0669 10.8974C53.6353 10.8974 54.3384 11.7627 54.3384 13.4933V16.3867C54.3384 16.576 54.4465 16.6571 54.6088 16.6571H55.1496V17.7387H53.9057C53.3108 17.7387 53.0404 17.4953 53.0404 16.8734V13.7908C53.0404 12.8443 52.8511 12.1142 51.7965 12.1142C50.769 12.1142 49.9578 12.8173 49.6874 13.7637C49.6062 14.0341 49.5792 14.3586 49.5792 14.6561V17.7928H48.2813L48.3083 9.78874Z" fill="#5D2E8E"/>
<path d="M58.6378 16.9003C59.7465 16.9003 60.4496 15.7646 60.4496 14.7911V14.5478H60.1251C59.1516 14.5478 57.421 14.5748 57.421 15.8457C57.3669 16.4136 57.7996 16.9003 58.6378 16.9003ZM60.1251 13.6284H60.3955V13.5473C60.3955 12.3845 59.9628 11.9519 58.9082 11.9519C58.5838 11.9519 57.7996 12.033 57.7996 12.4656V12.8442H56.5827V12.1682C56.5827 11.0595 58.2593 10.9243 58.8812 10.9243C61.0445 10.9243 61.6123 12.06 61.6123 13.5473V16.4136C61.6123 16.6029 61.7205 16.711 61.8827 16.711H62.4235V17.7927H61.2067C60.6118 17.7927 60.3955 17.5222 60.3955 17.0085C60.3955 16.7651 60.4225 16.6299 60.4225 16.6299H60.3955C60.3955 16.6299 59.8547 17.9549 58.2863 17.9549C57.1506 17.9549 56.0149 17.2518 56.0149 15.9268C56.069 13.7906 59.0164 13.6284 60.1251 13.6284Z" fill="#5D2E8E"/>
<path fill-rule="evenodd" clip-rule="evenodd" d="M63.5593 9.57254H62.9644V8.46387H64.2082C64.8031 8.46387 65.0735 8.70723 65.0735 9.32917V16.4138C65.0735 16.6031 65.1817 16.6842 65.3439 16.6842H65.8847V17.7659H64.6409C64.046 17.7659 63.7756 17.5225 63.7756 16.9006V9.84294C63.8026 9.84294 63.8297 9.57254 63.5593 9.57254Z" fill="#5D2E8E"/>
<path fill-rule="evenodd" clip-rule="evenodd" d="M67.345 12.1143H66.4797V11.0868H67.3721V9.22095H68.616V11.0868H70.2114V12.1143H68.643V15.1699C68.643 16.4949 69.5624 16.7112 70.0221 16.7112C70.2114 16.7112 70.3466 16.7112 70.3466 16.7112V17.7658C70.3466 17.7658 70.1843 17.7928 69.9139 17.7928C69.0486 17.7928 67.3721 17.5224 67.3721 15.2781V12.1143H67.345Z" fill="#5D2E8E"/>
<path fill-rule="evenodd" clip-rule="evenodd" d="M72.4286 8.43677H73.2398C73.3209 8.43677 73.4021 8.51789 73.4021 8.59901V9.59952C73.4021 9.68064 73.3209 9.76176 73.2398 9.76176H72.4286C72.3475 9.76176 72.2664 9.68064 72.2664 9.59952V8.59901C72.2664 8.49085 72.3204 8.43677 72.4286 8.43677Z" fill="#5D2E8E"/>
<path fill-rule="evenodd" clip-rule="evenodd" d="M72.2123 12.4657C72.2123 12.2765 72.1042 12.1953 71.9419 12.1953H71.4011V11.0867H72.645C73.2399 11.0867 73.5103 11.33 73.5103 11.952V16.4137C73.5103 16.603 73.6185 16.6841 73.7807 16.6841H74.3215V17.7657H73.0776C72.4828 17.7657 72.2123 17.5224 72.2123 16.9004V12.4657Z" fill="#5D2E8E"/>
<path fill-rule="evenodd" clip-rule="evenodd" d="M3.34026 5.02563L0.0748685 5.77668L2.34361 15.4624L5.39951 14.7878L3.34026 5.02563Z" fill="#F9A61C"/>
<path d="M4.43727 4.85589L0 5.32227L1.08538 15.649L5.52266 15.1826L4.43727 4.85589Z" fill="#F9A61C"/>
</svg>
