<svg width="80" height="30" viewBox="0 0 80 30" fill="none" xmlns="http://www.w3.org/2000/svg">
<path d="M46.5426 3.20874H33.4185V26.7913H46.5426V3.20874Z" fill="#FF5A00"/>
<path d="M34.2922 15C34.2922 10.2087 36.5443 5.95631 40.0001 3.20874C37.4568 1.20874 34.2485 0 30.7491 0C22.4591 0 15.7515 6.70874 15.7515 15C15.7515 23.2913 22.4591 30 30.7491 30C34.2485 30 37.4568 28.7913 40.0001 26.7913C36.5394 24.0825 34.2922 19.7913 34.2922 15Z" fill="#EB001B"/>
<path d="M64.2486 15C64.2486 23.2913 57.5409 30 49.251 30C45.7515 30 42.5433 28.7913 40 26.7913C43.4994 24.0388 45.7078 19.7913 45.7078 15C45.7078 10.2087 43.4558 5.95631 40 3.20874C42.5384 1.20874 45.7467 0 49.2461 0C57.5409 0 64.2486 6.75243 64.2486 15Z" fill="#F79E1B"/>
</svg>
