<svg width="80" height="30" viewBox="0 0 80 30" fill="none" xmlns="http://www.w3.org/2000/svg">
<path d="M34.6666 27.8065H28.186L32.2394 2.27612H38.7196L34.6666 27.8065Z" fill="#00579F"/>
<path d="M58.1591 2.90016C56.8809 2.38359 54.8535 1.81323 52.3466 1.81323C45.9468 1.81323 41.4402 5.28953 41.4125 10.2596C41.3594 13.9265 44.6392 15.9632 47.0922 17.1858C49.5994 18.4352 50.4517 19.2507 50.4517 20.3643C50.4262 22.0746 48.4257 22.863 46.5599 22.863C43.9726 22.863 42.5862 22.4566 40.4794 21.505L39.6261 21.0971L38.7192 26.8281C40.2392 27.5335 43.0395 28.1594 45.9468 28.1869C52.7467 28.1869 57.1736 24.7644 57.2261 19.468C57.2519 16.5617 55.5201 14.3347 51.7863 12.515C49.5197 11.3469 48.1316 10.5592 48.1316 9.36397C48.1582 8.27741 49.3056 7.16449 51.8643 7.16449C53.9711 7.10998 55.519 7.62583 56.6917 8.14204L57.2778 8.41314L58.1591 2.90016Z" fill="#00579F"/>
<path d="M66.7721 18.762C67.3058 17.2953 69.3594 11.6188 69.3594 11.6188C69.3325 11.6733 69.8921 10.125 70.2121 9.17456L70.665 11.3744C70.665 11.3744 71.8922 17.4855 72.1587 18.762C71.1459 18.762 68.0521 18.762 66.7721 18.762ZM74.7715 2.27612H69.7588C68.213 2.27612 67.0386 2.73746 66.3716 4.39439L56.7456 27.8061H63.5455C63.5455 27.8061 64.6649 24.6551 64.9056 23.9764C65.6515 23.9764 72.2664 23.9764 73.2261 23.9764C73.4121 24.8728 73.9993 27.8061 73.9993 27.8061H79.9997L74.7715 2.27612Z" fill="#00579F"/>
<path d="M22.7734 2.27612L16.4268 19.6854L15.7332 16.1546C14.5599 12.0805 10.88 7.65409 6.77344 5.45316L12.5867 27.7794H19.4397L29.626 2.27612H22.7734Z" fill="#00579F"/>
<path d="M10.5333 2.27612H0.106668L0 2.79197C8.13339 4.9106 13.52 10.0175 15.7331 16.1557L13.4665 4.42218C13.0933 2.79161 11.9465 2.32991 10.5333 2.27612Z" fill="#FAA61A"/>
</svg>
